<svg width="139" height="172" viewBox="0 0 139 172" fill="none" xmlns="http://www.w3.org/2000/svg">
<path d="M69.6193 171.771C51.4579 171.771 35.4787 165.444 21.6818 152.791C7.87912 140.132 0.977783 123.006 0.977783 101.413C0.977783 87.1126 6.66359 71.5624 18.0352 54.7624C29.4011 37.9567 46.5958 19.7581 69.6193 0.166626C92.6429 19.7581 109.84 37.9567 121.212 54.7624C132.578 71.5624 138.261 87.1126 138.261 101.413C138.261 123.006 131.36 140.132 117.557 152.791C103.76 165.444 87.7807 171.771 69.6193 171.771ZM69.6193 154.61C84.0627 154.61 96.2523 149.677 106.188 139.809C116.13 129.942 121.101 117.143 121.101 101.413C121.101 91.2597 116.882 79.6393 108.445 66.5516C100.008 53.4697 87.0657 38.9205 69.6193 22.9041C52.1729 38.9205 39.2311 53.4697 30.794 66.5516C22.3568 79.6393 18.1382 91.2597 18.1382 101.413C18.1382 117.143 23.1061 129.942 33.042 139.809C42.9836 149.677 55.176 154.61 69.6193 154.61ZM71.9789 146.03C73.6949 145.887 75.1621 145.209 76.3805 143.996C77.5932 142.778 78.1995 141.311 78.1995 139.595C78.1995 137.593 77.556 135.985 76.269 134.773C74.982 133.554 73.3374 133.017 71.3354 133.16C65.4722 133.589 59.2516 131.981 52.6735 128.338C46.0953 124.688 41.9482 118.073 40.2322 108.492C39.9462 106.919 39.194 105.632 37.9756 104.63C36.7629 103.629 35.3701 103.129 33.797 103.129C31.795 103.129 30.1504 103.878 28.8634 105.377C27.5764 106.881 27.1474 108.635 27.5764 110.637C30.0074 123.65 35.7276 132.945 44.7368 138.522C53.746 144.099 62.8267 146.602 71.9789 146.03Z" fill="#87C3EB" fill-opacity="0.79"/>
</svg>
