<svg width="42" height="42" viewBox="0 0 42 42" fill="none" xmlns="http://www.w3.org/2000/svg">
<path d="M26.6628 38.5C27.335 37.7486 27.7766 36.8196 27.9349 35.8239C28.0932 34.8282 27.9615 33.808 27.5554 32.8852C27.1494 31.9624 26.4862 31.1761 25.6452 30.6201C24.8042 30.0641 23.8209 29.7621 22.8128 29.75M28 35C28 33.6076 28.5531 32.2723 29.5377 31.2877C30.5223 30.3031 31.8576 29.75 33.25 29.75H35C35.9283 29.75 36.8185 29.3813 37.4749 28.7249C38.1313 28.0685 38.5 27.1783 38.5 26.25V22.75C38.5 20.8935 37.7625 19.113 36.4497 17.8003C35.137 16.4875 33.3565 15.75 31.5 15.75V7M31.5 22.75H31.5175M31.5 10.5C29.6435 10.5 27.863 11.2375 26.5503 12.5503C25.2375 13.863 24.5 15.6435 24.5 17.5C21.2511 17.5 18.1353 18.7906 15.8379 21.0879C13.5406 23.3853 12.25 26.5011 12.25 29.75C12.25 21 19.25 21 19.25 11.375C19.25 10.3408 19.0463 9.31681 18.6506 8.36137C18.2548 7.40593 17.6747 6.5378 16.9435 5.80653C16.2122 5.07527 15.3441 4.4952 14.3886 4.09945C13.4332 3.70369 12.4092 3.5 11.375 3.5C10.3408 3.5 9.31681 3.70369 8.36137 4.09945C7.40593 4.4952 6.5378 5.07527 5.80653 5.80653C5.07527 6.5378 4.4952 7.40593 4.09945 8.36137C3.70369 9.31681 3.5 10.3408 3.5 11.375C3.5 12.5353 3.96094 13.6481 4.78141 14.4686C5.60188 15.2891 6.71468 15.75 7.875 15.75C9.03532 15.75 10.1481 15.2891 10.9686 14.4686C11.7891 13.6481 12.25 12.5353 12.25 11.375C12.25 17.5 5.25 19.25 5.25 29.75C5.25 34.65 9.1 38.5 14 38.5H31.5" stroke="#0F172B" stroke-width="3.5" stroke-linecap="round" stroke-linejoin="round"/>
</svg>
