<svg width="200" height="202" viewBox="0 0 200 202" fill="none" xmlns="http://www.w3.org/2000/svg">
<path d="M112.758 80.1641C114.044 80.1641 116.64 79.9931 117.678 79.6044C118.783 79.1904 119.75 78.6974 120.788 78.3515C121.854 77.9961 123.03 77.5728 124.156 77.315C125.936 76.9073 128.56 76.8835 132.179 76.7526C133.844 76.6924 135.039 76.3652 137.367 76.3199C138.771 76.2925 139.962 76.7073 141.215 76.8809C142.403 77.0456 143.331 77.7438 144.369 78.1325C145.474 78.5465 146.269 79.3816 146.961 80.4194C147.653 81.4572 148.343 82.4912 148.992 83.529C149.58 84.469 149.726 85.6008 149.814 86.4689C149.954 87.8431 149.213 84.0563 148.736 83.0185C148.235 81.9263 146.969 81.3769 146.061 80.3417C144.788 78.8911 142.061 78.8685 140.059 78.4383C138.191 78.0368 136.609 78.0911 134.708 77.876C130.667 77.4187 129.094 78.0911 127.792 78.3489C126.719 78.5614 125.549 79.0395 123.993 79.2131C122.681 79.3595 121.833 80.7653 120.838 81.7151C119.918 82.5935 119.413 83.7868 118.936 84.8247C118.443 85.8973 118.029 86.8964 117.64 87.6777C117.214 88.5339 116.733 85.8703 116.387 84.8324C116.045 83.8045 114.836 83.1908 113.585 82.7995C113.13 82.6574 112.427 82.7555 112.074 82.3279C111.722 81.9003 111.722 81.0452 111.85 80.6902C112.159 79.8353 114.474 80.9415 116.202 81.0698C116.747 81.1103 116.562 81.4546 116.132 81.5868C115.702 81.719 115.018 81.719 114.794 81.6762C113.643 81.4566 117.938 81.5453 118.37 81.8032C118.581 81.9291 118.63 82.232 118.546 82.4925C118.462 82.7529 118.205 83.0094 117.945 83.0561C117.684 83.1027 117.428 82.9317 117.21 82.7153C116.992 82.4989 116.821 82.2424 116.904 82.1102C116.987 81.9781 117.329 81.9781 118.2 81.719" stroke="black" stroke-width="2" stroke-linecap="round"/>
<path d="M163.03 86.1244C162.859 86.1244 162.515 85.9533 162.169 85.5659C161.497 84.8139 162.854 83.5382 163.288 82.5004C163.722 81.4635 164.238 80.4286 164.927 79.348C165.832 77.9297 167.171 77.49 168.424 76.368C169.382 75.5103 170.54 75.3288 171.578 74.7251C172.656 74.0978 173.65 73.5149 175.671 73.2117C181.62 72.3193 183.403 72.9085 184.922 72.6935C186.593 72.4568 187.643 73.0796 188.681 73.4255C189.747 73.7809 190.752 74.3752 191.79 74.7212C192.828 75.0671 193.862 75.4118 195.2 75.715C196.683 76.0508 197.492 76.1037 197.967 76.3615C198.211 76.4941 198.355 76.7904 198.444 77.0935C198.532 77.3967 198.532 77.7388 198.19 77.915C197.848 78.0912 197.163 78.0912 196.768 78.2195C195.705 78.5644 195.598 80.1591 195.121 81.1969C194.629 82.2695 194.214 83.4397 194.041 84.5242C193.891 85.4592 192.919 82.7608 192.573 81.723C192.227 80.6851 191.882 79.6512 191.236 78.6561C190.568 77.6292 189.467 76.8007 188.429 76.0207C187.468 75.2986 185.16 75.2407 183.506 74.9829C180.273 74.4792 174.696 74.8935 173.401 75.2394C172.023 75.6074 170.809 75.93 169.772 76.3187C168.626 76.7478 167.7 77.6559 166.618 78.5641C166.036 79.0524 168.032 76.4587 169.246 75.5452C170.132 74.8786 171.317 74.6395 172.355 74.2055C173.44 73.752 174.686 73.5149 175.939 73.169C179.957 72.0595 187.213 73.4216 188.162 74.4167C189.041 75.3371 190.234 75.8419 191.272 76.5338C192.295 77.2157 193.085 78.3452 193.607 79.383C193.73 79.6282 193.779 79.9 193.909 79.9039C194.301 79.9156 194.385 78.4462 194.514 77.0637C194.562 76.5415 195.676 76.9666 196.887 76.9692C197.747 76.971 195.168 76.1062 194.13 75.7603C193.613 75.588 193.092 75.4144 192.704 75.6268C192.743 77.5704 193.261 78.6043 193.392 80.7175C193.434 81.1982 193.52 81.4548 193.608 81.7191" stroke="black" stroke-width="2" stroke-linecap="round"/>
<path d="M193.09 86.1242C193.09 86.982 193.261 88.7104 193.564 89.791C193.905 91.005 194.038 92.0791 194.169 93.5471C194.224 94.1632 194.471 94.6731 194.601 97.1996C194.936 103.737 194.559 108.407 194.429 109.01C194.119 110.453 193.955 111.514 193.824 113.197C193.731 114.402 193.349 115.572 193.091 116.741C192.688 118.568 192.66 120.843 192.529 122.526C192.435 123.731 192.053 125.072 191.795 126.286C191.568 127.356 191.105 128.358 190.716 129.396C190.287 130.541 189.55 131.467 188.989 132.505C188.462 133.481 188.083 134.577 187.606 135.615C187.096 136.727 186.098 137.687 185.361 138.725C184.7 139.655 184.196 140.796 183.719 141.834C183.227 142.907 182.813 143.906 182.166 144.944C181.437 146.114 180.568 147.016 179.661 148.053C178.824 149.011 178.065 150.125 177.285 151.163C176.536 152.16 175.562 153.406 174.651 154.489C173.863 155.426 172.882 156.173 170.554 158.371C169.36 159.498 168.218 160.231 167.18 161.011C166.183 161.761 165.108 162.564 164.071 163.128C162.21 164.141 158.889 163.776 157.08 164.08C153.239 164.723 151.981 163.693 149.134 163.563C147.713 163.497 146.71 162.916 143.521 162.785C141.994 162.722 141.009 161.879 138.466 161.706C136.994 161.605 136.085 160.413 135.048 159.936C133.936 159.425 132.976 158.77 132.153 157.994C131.337 157.224 129.954 156.443 128.871 155.532C127.981 154.784 127.016 154.194 125.978 153.502C124.94 152.81 124.248 151.949 123.644 150.912C123.017 149.833 122.263 148.84 121.356 148.017C120.44 147.186 119.931 145.989 119.067 145.167C118.276 144.414 117.599 143.398 116.864 142.403C116.137 141.418 114.754 140.205 113.582 138.991C112.709 138.086 112.069 137.179 111.465 136.141C110.847 135.078 109.654 134.328 108.831 133.333C108.009 132.34 106.803 131.649 106.023 130.699C105.243 129.749 104.383 128.887 103.648 127.849C102.748 126.577 101.361 125.518 100.582 124.48C99.8593 123.519 99.4595 122.408 98.5952 121.37C97.8754 120.506 97.6455 119.299 96.9964 118.261C96.391 117.293 96.0026 116.189 95.4416 115.151C94.8987 114.147 94.4478 113.079 93.8868 112.042C93.3595 111.066 93.1521 109.97 92.8062 108.932C92.4602 107.894 92.2866 106.518 92.0715 105.261C91.8589 104.018 91.5973 102.973 91.4665 100.645C91.3639 98.8196 91.0791 96.7539 90.9482 93.9954C90.8798 92.5538 90.0425 91.5712 89.6538 90.5334C89.2247 89.3877 88.3167 88.4616 87.8399 87.4238C87.3291 86.3121 86.5028 85.352 85.5958 84.7443C84.6052 84.0807 83.7404 83.3619 82.5315 83.0587C80.6849 82.5955 79.5942 83.6158 78.6419 84.1354C77.7158 84.6406 76.6608 86.202 76.0052 87.4588C75.4221 88.5767 75.702 93.1675 75.9599 95.9674C76.0602 97.0568 76.6505 98.0392 76.9964 99.077C77.3424 100.115 77.687 101.149 78.033 102.187C78.3789 103.224 78.7235 104.258 79.2846 105.296C79.8274 106.3 80.4494 107.368 80.9689 108.534C81.7715 110.335 82.5225 111.514 82.9565 112.552C83.3902 113.589 83.9062 114.624 84.2522 115.662C84.6076 116.728 85.2019 117.733 85.6761 118.814C86.3414 120.33 87.446 121.102 88.1806 122.054C88.3506 122.275 88.6536 122.315 88.914 122.316C89.4378 122.319 89.9518 121.973 90.426 121.585C91.3458 120.834 91.4211 119.558 91.7243 117.707C91.7684 114.753 91.5118 112.558 91.0804 111.999C90.9054 111.696 90.8199 111.354 90.7318 111.001" stroke="black" stroke-width="2" stroke-linecap="round"/>
<path d="M88.6588 97.7852C88.6588 97.8707 88.6588 97.9562 88.5733 98.1286C88.4877 98.3009 88.3167 98.5574 88.2286 97.92C88.1405 97.2825 88.1405 95.7432 88.0977 95.0786C88.055 94.4139 87.9695 94.6704 87.8827 94.9309C87.3854 96.4228 87.7933 98.5574 87.4966 99.6821C86.9343 101.813 84.2587 99.169 83.3064 98.9941C82.8845 98.9166 82.9578 100.454 83.0433 101.878C83.1318 103.351 84.5074 104.258 85.5453 104.866C86.7107 105.548 87.3605 106.163 87.792 106.164C88.2208 106.166 88.226 105.303 88.4839 104.957C88.5999 104.801 88.9127 104.953 89.1304 105.125C90.2095 105.979 91.0739 107.368 91.5507 108.406C91.8513 108.923 92.113 109.444 92.1998 109.704C92.2011 109.708 92.1156 109.451 92.0275 108.41" stroke="black" stroke-width="2" stroke-linecap="round"/>
<path d="M88.1405 91.3069C87.9695 91.3095 87.2802 90.2755 86.5883 89.2377C85.8964 88.1999 85.0361 87.337 83.9982 86.6451C83.4813 86.3004 82.9604 86.0387 82.4434 85.9519C81.4134 85.7789 80.8018 87.4147 80.3678 88.4525C79.9457 89.4618 79.6772 90.6953 79.5463 92.4665C79.4275 94.0743 79.1589 95.9661 79.1563 99.1133C79.1559 99.6092 79.4129 99.3452 79.5437 99.0848C80.0415 98.0941 80.2784 97.013 80.6243 95.9752C80.7966 95.4582 80.8847 94.5953 80.9275 93.5601C80.9702 93.1234 81.0558 92.8669 81.1439 92.3434" stroke="black" stroke-width="2" stroke-linecap="round"/>
<path d="M141.263 108.41C140.488 108.84 139.625 109.7 138.891 110.695C138.163 111.681 137.293 112.551 136.644 113.589C136.056 114.529 135.909 115.66 135.348 116.698C134.805 117.702 134.183 118.77 133.664 119.765C133.108 120.83 131.851 121.361 130.944 122.184C130.037 123.007 129.089 123.953 128.352 124.99C128.221 125.251 128.135 125.507 128.048 125.768C127.962 126.028 127.876 126.285 127.529 127.067" stroke="black" stroke-linecap="round"/>
<path d="M168.731 106.596C169.247 106.767 170.281 107.456 171.276 108.191C172.271 108.925 173.043 110.39 173.954 111.515C174.934 112.727 175.899 113.846 176.503 114.884C177.13 115.962 177.713 116.956 178.059 117.994C178.414 119.06 179.008 120.066 179.354 121.103C179.7 122.141 179.874 123.346 180.132 124.472C180.392 125.852 180.563 127.58 180.523 128.877C180.395 129.055 180.138 128.969 179.874 128.881" stroke="black" stroke-linecap="round"/>
<path d="M167.695 114.111C168.21 114.196 169.586 115.225 170.5 116.439C171.186 117.351 171.665 118.511 172.141 119.549C172.704 120.586 173.048 121.364 173.35 121.881C173.481 122.141 173.567 122.398 174.173 123.18" stroke="black" stroke-linecap="round"/>
<path d="M154.997 115.666C154.912 115.666 154.826 115.666 154.739 115.794C153.836 117.128 154.308 119.806 154.478 120.844C154.823 121.882 155.168 122.66 155.556 123.091C155.772 123.266 156.028 123.351 156.293 123.44" stroke="black" stroke-linecap="round"/>
<path d="M161.475 114.888C161.475 114.974 161.475 115.059 161.475 116.429C161.475 117.798 161.475 120.449 161.347 121.9C161.219 123.351 160.962 123.522 160.439 123.958" stroke="black" stroke-linecap="round"/>
<path d="M141.522 88.4565C141.177 88.1999 140.833 87.166 140.186 86.1709C139.539 85.175 138.159 85.1758 137.121 84.6148C136.024 84.022 134.531 84.1393 132.252 83.8361C126.03 83.0085 124.943 84.4813 123.905 84.87C122.867 85.5179 122.004 86.3782 121.054 87.1582C120.794 87.3318 120.537 87.5028 120.273 87.4199" stroke="black" stroke-linecap="round"/>
<path d="M142.299 87.9382C142.299 88.1092 142.299 88.5394 142.214 89.1859C142.046 90.4577 140.491 91.1307 139.453 91.8226C138.453 92.4894 137.381 92.7736 136.215 93.0768C134.578 93.5026 130.587 93.38 128.051 93.1222C126.963 93.0115 125.979 92.4316 124.941 92.0429C123.796 91.6138 123.041 90.5347 122.306 89.5396C122.09 89.322 121.833 89.1509 121.53 88.8918C121.227 88.6327 120.885 88.2906 120.532 87.4199" stroke="black" stroke-linecap="round"/>
<path d="M141.263 88.7156C141.006 89.0602 139.972 89.4049 138.806 89.7081C137.169 90.1338 135.914 90.0112 133.762 90.2263C127.531 90.1849 126.498 89.8402 125.245 89.7094C124.94 89.6666 124.684 89.5811 124.419 89.493" stroke="black" stroke-linecap="round"/>
<path d="M130.12 84.3103C130.12 84.4813 129.949 84.826 129.647 85.343C129.431 85.8599 129.343 86.8084 129.471 87.9732C129.599 88.4539 129.856 88.7104 130.638 89.2338" stroke="black" stroke-linecap="round"/>
<path d="M134.986 84.2032C135.051 84.3991 135.313 84.7919 135.559 85.1862C135.783 85.5432 135.838 85.9732 135.856 88.2466C135.86 88.83 135.709 89.0258 135.561 89.2059C135.382 89.3536 135.184 89.4855 134.987 89.6002C134.889 89.6499 134.791 89.6824 134.494 89.9127" stroke="black" stroke-linecap="round"/>
<path d="M165.896 87.2549C165.896 87.3524 165.896 87.4498 165.88 87.4513C165.545 87.4818 165.863 86.6662 166.092 86.2233C166.405 85.6185 166.518 85.1897 166.699 84.7954C166.893 84.3731 167.207 84.0084 167.568 83.7121C167.934 83.4113 168.355 83.2524 168.668 82.9413C168.975 82.635 169.438 82.6617 169.914 82.612C170.338 82.5677 170.718 82.3664 171.112 82.3167C171.543 82.2623 171.997 82.1695 172.392 82.1198C172.791 82.0694 173.179 81.9726 175.55 81.9554C176.497 81.9485 177.018 82.1026 177.412 82.2502C177.832 82.4075 178.199 82.5948 178.593 82.8242C178.988 83.0538 179.38 83.1854 179.774 83.3985C180.156 83.6048 180.562 83.7761 180.972 83.9892C181.424 84.224 181.841 84.3667 182.235 84.5961C182.645 84.8343 183.022 85.0558 183.417 85.3668C183.811 85.6139 184.106 85.7124 184.303 85.7778C184.402 85.8108 184.499 85.8433 184.403 86.0736" stroke="black" stroke-linecap="round"/>
<path d="M166.29 87.2549C166.713 87.2549 167.567 87.3199 168.206 87.435C168.895 87.5594 169.439 87.4842 170.285 87.5335C172.427 87.6581 173.967 87.5177 174.618 87.4685C177.437 87.2554 178.685 87.2549 179.381 87.1569C179.823 87.0947 180.591 86.9596 181.267 86.8779C181.84 86.8085 182.235 86.7627 182.629 86.681C183.023 86.5993 183.416 86.4024 183.81 86.2872C183.909 86.2705 184.007 86.2705 184.106 86.238C184.205 86.2055 184.302 86.1405 184.304 86.0736" stroke="black" stroke-linecap="round"/>
<path d="M167.373 90.6019C167.568 90.6993 167.961 91.0271 168.404 91.29C169 91.6434 170.932 92.2045 172.358 92.4885C173.101 92.6367 173.966 92.6356 174.377 92.6853C175.016 92.7628 175.738 92.7026 176.312 92.6529C176.89 92.6027 177.411 92.5057 177.969 92.456C178.435 92.4145 178.888 92.3088 179.723 92.2591C180.375 92.2203 180.758 92.0785 181.153 91.8826C181.562 91.6794 181.94 91.4563 182.35 91.0793C182.83 90.6388 183.056 90.2101 183.237 89.8158C183.431 89.3935 183.81 89.0288 184.025 88.6346C184.247 88.2264 184.468 87.8475 184.697 87.4533C184.828 87.2569 184.927 87.059 185.025 86.8626C185.091 86.7637 185.188 86.6663 185.289 86.4674" stroke="black" stroke-linecap="round"/>
<path d="M115.692 70.7172C116.407 70.7172 118.44 70.8471 119.217 70.9303C119.435 70.9536 119.791 71.0125 120.12 70.9963C120.464 70.9793 119.271 70.7507 118.337 70.5213C117.269 70.2588 116.776 70.0941 116.693 69.9961C116.384 69.6305 118.826 69.6344 120.397 69.7486C121.488 69.8279 122.449 70.1266 123.382 70.29C123.66 70.3386 123.955 70.3234 124.057 70.3397C124.317 70.3811 122.949 70.3234 122.289 70.2417C121.765 70.1768 121.24 70.1266 120.73 70.0286C120.159 69.9187 119.435 69.8647 119.056 69.8475C118.654 69.8292 120.021 70.1915 120.415 70.3067C120.802 70.4196 121.202 70.5853 121.76 70.7167C121.893 70.748 121.99 70.7822 121.991 70.7827C122.315 70.8904 121.206 70.5538 120.714 70.4224C120.221 70.2907 119.828 70.16 119.515 69.8327C119.446 69.7601 119.562 69.6363 119.661 69.5699C120.066 69.2966 120.968 69.339 121.678 69.4208C122.222 69.4833 123.136 69.6344 123.762 69.7323C124.029 69.774 124.353 69.8312 124.599 69.8312C124.845 69.8312 123.963 69.7328 121.591 69.2101C120.565 68.9839 119.797 68.7169 119.172 68.552C119.04 68.5172 118.942 68.4866 118.973 68.4698C119.407 68.2356 119.923 68.65 120.562 68.8134C120.803 68.875 122.014 69.0742 123.785 69.4188C125.126 69.6798 126.09 69.7328 126.583 69.7166C126.719 69.7121 126.621 69.6678 126.522 69.6511C126.03 69.568 125.374 69.4375 123.609 69.0299C120.684 68.3545 120.319 67.9944 120.221 67.8472C120.175 67.779 120.317 67.6675 120.432 67.6011C121.135 67.1952 122.545 67.5986 123.949 68.0067C124.898 68.2827 126.327 68.7071 127.34 68.9733C128.352 69.2396 128.904 69.3371 129.14 69.371C129.376 69.405 129.278 69.3725 129.163 69.3395C128.919 69.2697 128.687 69.2406 127.971 69.1269C124.716 68.6101 123.898 68.0928 123.438 67.8634C123.306 67.7978 123.144 67.7325 123.109 67.699C122.8 67.4033 124.319 68.0908 124.943 68.272C125.675 68.4847 126.386 68.7799 127.303 69.1077C128.649 69.5889 129.143 69.8627 129.57 70.0439C129.672 70.087 129.767 70.1581 129.768 70.159C130.085 70.3702 128.593 69.4414 127.868 69.0122C127.208 68.6217 126.817 68.3566 126.276 67.9949C125.639 67.5696 129.072 68.648 129.963 68.9281C130.613 69.1323 131.177 69.3056 131.587 69.4203C131.769 69.4712 131.899 69.5025 130.991 69.1619C130.084 68.8213 128.135 68.1066 126.789 67.641C124.774 66.9435 123.897 66.7146 123.618 66.5675C123.492 66.501 123.437 66.3878 123.452 66.3539C123.586 66.0571 125.065 67.2324 126.335 67.9584C128.33 69.0994 129.109 69.1737 129.782 69.3548C130.476 69.5413 130.85 69.7978 131.146 69.8805C131.652 70.0214 129.741 68.9807 129.082 68.7327C128.566 68.5386 128.163 68.2897 127.884 68.1912C127.561 68.0778 128.619 68.3212 130.034 68.6795C131.312 69.0031 133.755 69.4926 135.092 69.7929C136.933 70.2064 137.348 70.4209 137.446 70.5686C137.61 70.813 136.76 70.3569 136.366 70.1438C136.178 70.0425 135.062 69.6058 133.422 68.9335C132.15 68.4116 131.283 68.1263 130.118 67.7C129.088 67.3233 128.034 66.945 127.326 66.6167C127.179 66.5482 127.048 66.5178 127.046 66.501C127.003 66.141 127.863 66.7462 129.477 67.3978C130.695 67.8899 133.003 68.7957 134.143 69.248C135.282 69.7003 135.185 69.6678 135.037 69.6186C134.357 69.3919 133.84 69.1756 133.184 68.8646C132.232 68.4132 130.176 67.703 129.032 67.1911C128.943 67.1513 129.078 67.0434 129.193 67.01C129.713 66.8589 130.324 67.2049 130.98 67.4022C131.416 67.5333 131.899 67.7305 133.348 68.1863C134.543 68.5619 136.65 69.2918 137.786 69.6762C138.923 70.0606 139.02 70.0931 139.021 70.1098C139.057 70.5078 137.91 69.7013 137.269 69.373C136.728 69.0959 135.909 68.7838 134.762 68.3566C133.622 67.9321 132.886 67.5681 132.951 67.4205C133.292 66.6394 134.59 67.7955 135.147 68.0091C136.046 68.3537 136.526 68.7799 136.953 69.059C137.392 69.3453 137.643 69.6009 137.742 69.6993C137.974 69.9306 136.762 69.276 136.007 68.8326C135.243 68.3841 133.847 67.6045 132.355 66.8667C131.8 66.5925 131.674 66.4863 131.591 66.3873C131.508 66.2884 131.476 66.191 131.508 66.1245C131.578 65.9777 131.9 65.9596 132.292 65.9754C132.844 65.9975 133.213 66.3524 133.718 66.6945C135.938 68.1984 136.953 68.6815 137.347 69.0098C137.516 69.1505 137.741 69.2396 137.84 69.371C138.026 69.6182 137.089 68.7523 136.432 67.7512C136.214 67.4183 136.135 67.1744 136.086 66.978C136.061 66.8806 136.069 66.7816 136.166 66.7314C136.264 66.6812 136.459 66.6812 136.64 66.7624C137.362 67.0851 137.608 67.827 138.345 68.7755C139.399 70.1331 140.236 70.8166 140.252 70.6202C140.295 70.116 139.388 69.0516 138.712 68.2095C138.391 67.8095 138.137 67.4372 138.038 67.2403C138.008 67.1805 138.134 67.1734 138.265 67.2059C139.246 67.4482 140.331 68.5496 140.956 69.091C141.371 69.4511 141.614 69.7318 141.598 69.782C141.336 70.617 140.729 68.2582 140.516 67.8477C140.397 67.6182 140.4 67.3388 140.449 67.1744C140.561 66.7952 141.251 68.0869 142.643 70.2826C142.92 70.7202 142.991 70.8137 143.025 70.669C143.257 69.6619 142.96 69.2426 142.96 68.996C142.96 68.7438 143.189 69.5349 143.189 69.6664C143.191 70.0487 142.468 69.2741 142.369 69.2081C142.368 69.2071 142.465 69.2721 142.564 69.3381C142.663 69.404 142.761 69.469 142.96 69.6344" stroke="black" stroke-linecap="round"/>
<path d="M165.404 72.0952C165.339 72.0952 165.143 72.0952 164.946 72.0952C164.683 72.0952 165.599 72.1936 166.647 72.455C166.881 72.5136 166.977 72.5539 166.978 72.5706C167.004 72.8673 165.512 71.7408 164.765 71.096C164.67 71.0139 164.715 70.8509 164.763 70.784C164.812 70.717 164.91 70.717 165.025 70.7658C165.608 71.0124 165.927 71.601 166.142 71.8816C166.38 72.1939 165.701 70.7879 165.584 70.1446C165.564 70.0297 165.536 69.9315 165.568 69.8813C165.6 69.8311 165.697 69.8311 165.796 69.8636C166.22 70.0029 166.55 70.6481 166.896 71.0931C166.967 71.1851 167.075 71.2407 167.125 71.1767C167.49 70.7127 166.979 69.8685 167.011 69.2769C167.034 68.8553 167.241 70.1894 167.29 70.8622C167.309 71.1129 167.373 71.4366 167.389 71.7162C167.409 72.0669 167.406 70.9159 167.389 69.9989C167.375 69.2704 167.666 68.2954 167.815 67.9105C168.453 66.2642 167.997 71.5026 167.963 71.6694C167.731 72.827 168.29 69.5062 168.487 68.8491C168.593 68.499 168.848 68.1271 169.028 67.88C169.646 67.0332 169.178 70.6147 169.128 71.191C169.109 71.4088 169.046 71.667 169.046 71.8319C169.046 72.2903 170.119 68.9018 170.703 67.3721C170.75 67.2478 170.72 67.1102 170.736 66.9945C170.797 66.5575 170.753 69.205 170.703 70.0412C170.686 70.325 170.589 70.5517 170.572 70.6673C170.502 71.1523 171.696 68.6636 172.375 67.5035C172.454 67.3688 172.523 67.2736 172.556 67.3371C172.862 67.9166 172.232 68.7758 171.559 69.7459C171.424 69.9397 171.312 70.026 171.262 70.0275C170.871 70.039 171.539 69.0455 172.258 67.9661C172.542 67.5397 173.072 67.0846 173.307 66.931C174.03 66.458 172.623 69.3684 172.181 70.4015C172.09 70.6146 172.098 70.7151 172.098 70.7165C172.098 71.1831 172.523 69.5377 172.802 68.9476C173.179 68.1498 174.031 67.439 174.589 66.9291C174.752 66.78 174.948 66.5865 175.049 66.5348C175.149 66.4831 175.149 66.5806 175.133 66.6795C175.013 67.4102 174.135 68.6124 173.74 69.2547C173.646 69.4062 173.511 69.5653 173.461 69.584C173.122 69.7088 173.901 68.7837 174.457 68.193C174.95 67.6702 175.736 67.2411 176.31 66.9616C176.483 66.8776 176.462 67.0393 176.413 67.1712C176.205 67.7286 175.547 68.3505 175.052 68.9107C174.883 69.1026 174.658 69.3044 174.527 69.5018C174.309 69.8287 175.212 68.4884 175.689 67.9302C176.27 67.2493 176.592 67.0758 176.658 66.9931C177.023 66.5358 175.58 68.4155 175.036 68.8782C174.425 69.3975 173.903 69.8301 173.837 69.8965C173.486 70.2502 174.75 68.7856 176.225 67.8987C177.401 67.1921 178.298 66.9438 178.43 66.9596C178.848 67.0097 177.746 68.2816 177.038 69.1233C176.903 69.2842 176.76 69.4019 176.774 69.3876C177.349 68.8125 179.563 68.0316 180.056 67.9597C180.331 67.9197 179.548 68.2551 178.733 68.7601C176.845 69.9317 175.576 70.5211 175.657 70.3247C175.895 69.7532 176.689 69.3074 177.344 68.9141C178.492 68.2259 179.41 67.9952 180.1 67.7816C180.438 67.6768 179.319 68.1891 177.503 68.8605C176.374 69.2778 175.482 69.2719 173.32 69.3551C172.886 69.3718 172.789 69.4038 172.755 69.3556C172.443 68.9135 173.736 68.4214 174.506 68.1586C175.58 67.7924 177.279 67.6654 177.787 67.7141C177.946 67.7293 177.874 67.8603 177.792 67.9592C177.458 68.3614 176.307 69.1026 175.626 69.4541C175.228 69.659 176.392 68.3919 177.099 67.8638C177.622 67.4739 178.003 67.3376 178.151 67.3371C178.511 67.3359 177.843 68.3505 177.431 68.8295C177.054 69.2672 179.242 67.6693 180.135 67.3868C180.262 67.3465 180.365 67.3701 180.382 67.4188C180.551 67.8829 179.451 68.4175 178.908 68.8944C178.726 69.0545 178.497 69.1085 178.415 69.1745C177.992 69.5116 179.544 68.5848 180.004 68.3555C180.292 68.212 180.562 68.1576 180.661 68.2226C181.186 68.5673 179.679 69.1735 179.22 69.5343C179.109 69.6209 179.055 69.7307 179.071 69.7646C179.204 70.0614 180.554 69.016 182.101 68.3889C182.697 68.147 183.154 68.1576 183.335 68.2063C183.403 68.2246 183.353 68.3525 183.272 68.4514C182.691 69.1545 181.321 69.4038 180.86 69.5353C180.76 69.5638 180.664 69.6007 180.679 69.6175C181.279 70.298 183.737 69.0121 184.337 68.9121C185.033 68.7962 183.093 69.2404 182.419 69.4363C182.338 69.4598 182.497 69.5673 182.612 69.6007C183.226 69.7784 184.3 69.4373 184.877 69.3556C184.992 69.3392 185.09 69.3389 185.075 69.3714C184.856 69.854 184.142 70.0919 183.944 70.338C183.351 71.0784 186.925 69.8311 187.549 69.8798C187.588 70.026 186.869 70.3213 186.372 70.5526C186.37 70.5536 186.468 70.4886 186.568 70.4217" stroke="black" stroke-linecap="round"/>
<path d="M150.909 86.2189C150.764 86.1465 150.619 86.074 150.545 85.8917C150.033 84.6431 152.297 83.1488 153.066 82.6339C153.918 82.0628 155.077 81.9015 157.233 81.863C158.446 82.1189 160.049 82.266 161.702 83.4684C161.962 83.8011 162.034 84.0185 162.329 84.6817" stroke="black" stroke-linecap="round"/>
<path d="M150.736 85.6799C150.671 85.6799 150.638 85.5499 150.67 85.3043C150.732 84.8377 151.227 84.5655 151.621 84.2865C152.048 83.9838 152.408 83.6796 152.802 83.433C153.159 83.2096 153.589 83.0889 153.983 82.9078C154.391 82.7206 154.835 82.6282 155.832 82.5465C159.092 82.2791 159.495 82.6282 159.89 82.7424C160.284 82.9885 160.677 83.2504 161.071 83.497C161.17 83.5467 161.267 83.5792 161.466 83.8095" stroke="black" stroke-width="2" stroke-linecap="round"/>
<path d="M150.343 87.5502C150.375 87.7461 150.506 88.1388 150.637 88.5331C150.786 88.9787 150.801 89.517 150.851 89.9929C150.904 90.5052 150.998 91.092 151.113 91.9573C151.48 94.711 150.967 95.128 150.835 95.5223C150.704 95.9165 150.508 96.3093 150.327 96.7036C150.14 97.111 149.917 97.4906 149.654 97.8848C149.392 98.2791 149.13 98.6719 148.851 99.0661C148.549 99.4929 148.21 99.7547 147.981 100.149C147.71 100.614 147.259 101.034 146.98 101.412C146.704 101.787 146.179 102.247 145.734 102.708C145.385 103.07 145.029 103.495 144.716 103.89C144.405 104.282 143.881 104.545 143.47 104.891C143.025 105.265 142.633 105.858 142.354 106.252C142.051 106.68 141.682 107.039 141.402 107.433C141.151 107.787 141.024 108.22 140.909 108.615C140.798 108.996 140.794 110.311 140.892 111.174C140.939 111.587 141.154 111.961 141.367 112.355C141.568 112.726 141.711 113.142 141.974 113.537C142.237 113.931 142.564 114.194 142.958 114.505C143.338 114.804 143.745 115.046 144.139 115.293C144.496 115.516 144.926 115.572 145.548 115.687C147.1 115.975 148.364 115.802 149.16 115.688C149.604 115.624 149.947 115.344 150.504 114.853C150.942 114.468 151.227 114.097 151.539 113.753C151.855 113.405 152.212 113.244 152.441 113.096C152.559 113.02 152.735 113.046 152.851 113.095C153.3 113.283 153.524 113.832 153.869 114.226C154.183 114.586 154.703 115.044 155.165 115.342C155.579 115.609 155.952 115.769 156.427 115.884C157.211 116.074 158.665 115.999 159.496 115.705C159.913 115.558 160.185 115.18 160.481 114.819C160.777 114.458 161.169 114.196 161.514 113.917C161.896 113.608 162.252 113.014 162.466 112.654C162.582 112.458 162.745 112.292 162.925 112.242C163.349 112.125 163.565 112.946 164.007 113.405C164.359 113.77 164.811 113.963 165.205 114.145C165.628 114.339 165.992 114.588 166.959 114.605C167.501 114.614 167.863 114.097 168.225 113.72C168.571 113.36 168.782 112.95 169.029 112.555C169.259 112.188 169.406 111.768 169.538 111.374C169.669 110.98 169.8 110.587 169.915 110.176C170.045 109.715 170.095 109.307 170.096 107.606C170.097 106.924 169.802 106.551 169.523 106.157C169.221 105.73 168.753 105.533 168.358 105.303C168.008 105.098 167.571 104.942 167.177 104.778C166.783 104.613 166.39 104.417 165.914 104.04C165.468 103.687 165.044 103.204 164.83 102.81C164.624 102.428 164.453 102.023 164.305 101.628C164.148 101.209 163.961 100.841 163.748 100.447C163.533 100.05 163.404 99.5618 163.239 99.1675C163.078 98.7841 162.976 98.3805 162.845 97.9862C162.713 97.592 162.583 97.1992 162.451 96.805C162.32 96.4107 162.254 96.0179 162.156 95.6237C162.058 95.2292 161.992 94.8367 161.86 94.3607C161.68 93.707 161.697 92.7694 161.647 92.3752C161.622 92.1744 161.565 90.7465 161.581 88.6798C161.589 87.6433 161.762 87.1269 161.859 86.6657C161.958 86.239 161.991 85.8777 162.056 85.6813C162.089 85.5824 162.122 85.4849 162.254 85.1876" stroke="black" stroke-linecap="round"/>
<path d="M118.02 88.702C117.93 88.9108 117.87 89.5137 117.855 92.5015C117.85 93.4075 118.08 93.762 118.201 94.124C118.321 94.486 118.442 94.9063 118.562 95.2991C118.674 95.6639 118.803 96.0218 118.924 96.3838C119.045 96.7458 119.165 97.1064 119.3 97.4684C119.445 97.854 119.617 98.1911 119.752 98.5531C119.897 98.9387 120.128 99.2758 120.28 99.6378C120.431 99.9995 120.671 100.36 120.897 100.722C121.108 101.06 121.244 101.445 121.454 101.807C121.682 102.198 122.027 102.53 122.808 103.327C123.222 103.749 123.623 104.066 123.985 104.339C124.413 104.661 124.888 105.032 125.25 105.242C125.626 105.461 125.973 105.665 126.35 105.875C126.786 106.119 127.148 106.297 127.525 106.508C127.949 106.745 128.323 106.899 128.685 107.051C129.037 107.198 129.408 107.292 129.934 107.397C130.75 107.561 131.185 107.563 131.891 107.668C133.816 107.957 134.198 107.534 134.56 107.413C134.932 107.289 135.402 107.082 135.931 106.961C136.459 106.841 136.82 106.72 137.197 106.585C137.663 106.417 138.145 106.359 138.538 106.148C138.921 105.943 139.26 105.666 139.697 105.425C140.076 105.216 140.495 105.093 140.888 104.898C141.244 104.72 141.61 104.491 142.047 104.25C142.44 104.033 142.786 103.709 143.148 103.436C143.495 103.175 143.811 102.895 144.142 102.548C144.461 102.214 144.805 101.901 145.361 101.314C145.73 100.924 145.949 100.545 146.251 100.153C146.634 99.6555 146.793 99.2794 147.05 98.9025C147.377 98.4213 147.697 98.014 147.879 97.637C148.109 97.1582 148.42 96.8389 148.662 96.462C148.931 96.0412 149.084 95.6638 149.205 95.3018C149.337 94.9036 149.536 94.4887 149.656 94.1267C149.777 93.7647 149.897 93.3444 150.003 92.8174C150.208 91.7955 150.109 90.6996 150.184 89.8346C150.229 88.7933 150.29 88.0747 150.365 87.3046C150.38 86.99 150.38 86.4531 150.38 85.8999" stroke="black" stroke-linecap="round"/>
<path d="M162.492 87.4365C162.372 87.526 162.252 87.8867 162.236 88.5488C162.225 89.014 162.462 89.483 162.507 90.1008C162.538 90.5211 162.673 90.9889 162.763 91.4123C162.842 91.7856 163.004 92.135 163.125 92.497C163.249 92.8689 163.456 93.2197 163.577 93.5817C163.709 93.9799 163.908 94.3947 164.103 94.7568C164.293 95.1071 164.569 95.4794 164.842 95.8414C165.103 96.1892 165.323 96.5641 165.565 96.9261C165.816 97.3025 166.137 97.6488 166.393 97.9959C166.647 98.3395 166.95 98.6431 167.267 99.0051C167.559 99.3392 167.764 99.7277 168.545 100.525C168.959 100.947 169.36 101.264 169.722 101.461C170.111 101.673 170.445 101.959 170.732 102.244C171.038 102.548 171.439 102.741 171.801 102.968C172.129 103.173 172.524 103.284 172.886 103.51C173.223 103.721 173.608 103.857 173.97 103.992C174.356 104.137 174.932 104.249 175.64 104.324C177.127 104.481 178.151 104.43 178.941 104.355C179.424 104.309 179.905 104.189 180.313 104.084C180.738 103.973 181.111 103.918 181.473 103.723C181.847 103.52 182.346 103.197 182.753 102.969C183.196 102.722 183.642 102.593 184.004 102.367C184.387 102.127 184.817 101.839 185.479 101.268C185.954 100.858 186.534 100.424 186.821 100.107C187.111 99.7879 187.469 99.5506 187.785 99.1886C188.089 98.8409 188.373 98.4659 188.629 98.089C188.943 97.6274 189.277 97.2908 189.443 96.9288C189.621 96.541 189.85 96.2062 190.135 95.6191C190.346 95.1855 190.573 94.8503 190.708 94.4883C190.858 94.0887 191.115 93.7656 191.236 93.3286C191.349 92.9192 191.477 92.5002 191.597 92.1382C191.718 91.7762 191.838 91.4155 191.959 90.9635C192.08 90.5108 192.2 90.15 192.245 89.563C192.278 89.1427 192.471 88.7942 192.517 88.3572C192.572 87.8281 192.652 87.1672 192.697 86.5051C192.727 86.0697 192.863 85.363 192.938 84.7271C192.954 84.2783 192.983 83.9122 193.029 83.5977C193.044 83.3726 193.044 83.0147 193.044 82.6459" stroke="black" stroke-linecap="round"/>
<path d="M134.006 132.002C134.076 131.885 134.405 131.743 134.9 131.52C135.29 131.344 135.607 131.178 135.914 131.083C136.277 130.972 136.738 130.753 137.233 130.718C137.619 130.69 137.986 130.588 138.318 130.518C138.648 130.448 139.071 130.4 139.965 130.364C140.399 130.347 140.768 130.234 141.168 130.176C141.939 130.063 142.276 130.046 142.571 129.893C142.915 129.715 143.266 129.622 143.561 129.457C143.902 129.267 144.185 129.127 144.539 128.974C144.919 128.809 145.363 128.774 145.846 128.562C146.166 128.422 146.447 128.279 146.742 128.173C147.095 128.046 147.367 127.879 147.826 127.643C148.148 127.477 148.684 127.384 149.064 127.254C149.368 127.149 149.629 126.96 149.924 126.841C150.274 126.701 150.619 126.653 150.972 126.558C151.326 126.464 151.608 126.37 151.962 126.276C152.316 126.181 152.598 126.087 152.881 125.993C153.165 125.899 153.447 125.804 153.73 125.698C154.051 125.578 154.366 125.451 154.649 125.357C154.96 125.253 155.331 125.144 155.826 125.027C156.197 124.939 156.487 124.885 156.84 124.85C157.225 124.811 157.687 124.72 158.042 124.65C158.441 124.571 158.961 124.532 159.303 124.496C159.63 124.462 161.304 124.366 162.284 124.437C162.621 124.461 162.991 124.555 163.333 124.59C163.678 124.626 164.051 124.696 164.487 124.743C165.033 124.803 165.535 124.979 165.96 125.061C166.31 125.129 166.596 125.191 166.938 125.297C167.256 125.395 167.516 125.544 167.799 125.697C168.065 125.841 168.504 125.944 168.859 126.063C169.142 126.157 169.424 126.251 169.719 126.346C170.134 126.479 170.556 126.676 170.839 126.77C171.13 126.867 171.404 127.076 171.746 127.311C172.015 127.497 172.323 127.688 172.606 127.889C172.86 128.069 173.171 128.207 173.384 128.466C173.724 128.88 173.573 129.785 173.574 131.219C173.574 131.806 173.292 132.071 173.114 132.413C172.97 132.692 172.867 133.037 172.608 133.414C172.36 133.777 172.067 134.284 171.772 134.687C171.558 134.979 171.125 135.393 170.758 135.701C170.407 135.996 170.205 136.36 169.922 136.714C169.692 137.002 169.357 137.232 169.109 137.539C168.768 137.96 168.437 138.105 168.154 138.293C167.871 138.482 167.589 138.763 167.318 139.012C167.071 139.238 166.858 139.495 166.529 139.836C166.196 140.181 165.682 140.554 165.326 140.838C165.071 141.044 164.761 141.098 164.384 141.333C163.936 141.613 163.63 141.664 163.347 141.758C163.064 141.852 162.735 141.946 162.428 142.099C162.137 142.244 161.745 142.3 161.203 142.336C160.84 142.359 160.473 142.512 159.827 142.595C158.681 142.742 157.809 142.583 157.271 142.548C155.15 142.409 154.817 142.465 154.498 142.395C154.151 142.318 153.734 142.253 153.261 142.194C152.674 142.122 152.389 142.065 152.094 141.982C151.741 141.883 151.353 141.9 151.034 141.829C150.687 141.753 149.896 141.688 149.337 141.617C148.962 141.57 148.642 141.429 148.23 141.334C147.861 141.25 147.581 141.146 147.111 140.934C146.742 140.769 146.264 140.604 145.755 140.427C145.395 140.302 145.06 140.227 144.753 140.074C144.474 139.935 144.188 139.803 143.905 139.65C143.639 139.506 143.293 139.356 142.986 139.131C142.682 138.909 142.374 138.602 141.996 138.354C141.596 138.091 141.289 137.777 140.947 137.541C140.616 137.312 140.182 136.952 139.875 136.739C139.595 136.546 139.263 136.316 138.944 136.091C138.572 135.829 138.249 135.585 138.025 135.337C137.798 135.088 137.472 134.902 137.177 134.677C136.841 134.422 136.459 134.102 136.128 133.841C135.87 133.638 135.563 133.535 135.28 133.346C135.007 133.164 134.714 133.04 134.501 132.91C134.279 132.774 135.041 132.569 135.524 132.356C135.864 132.207 136.126 132.026 136.409 131.932C136.692 131.837 138.234 131.79 139.178 131.719C139.641 131.685 140.155 131.602 140.543 131.519C141.342 131.349 141.64 131.319 141.923 131.225C142.222 131.125 142.559 131.107 142.842 130.954C143.108 130.81 143.454 130.753 143.761 130.659C144.047 130.571 144.42 130.471 145.103 130.435C145.467 130.416 145.787 130.258 146.153 130.164C146.453 130.087 146.73 129.976 147.084 129.893C147.43 129.812 147.72 129.764 148.12 129.681C148.699 129.561 148.993 129.552 149.369 129.469C149.832 129.367 150.124 129.339 150.454 129.257C150.981 129.124 151.372 129.127 151.773 129.045C152.237 128.949 152.621 128.915 153.48 128.88C153.903 128.862 154.411 128.75 154.872 128.691C155.564 128.603 155.897 128.562 156.333 128.526C156.44 128.517 156.533 128.491 157.62 128.479C158.706 128.467 160.782 128.467 161.922 128.479C163.062 128.49 163.202 128.514 163.892 128.526C164.582 128.538 165.819 128.538 166.502 128.549C167.28 128.563 168.005 128.608 168.995 128.62C169.918 128.631 170.909 128.726 171.38 128.808C171.754 128.874 172.087 128.938 172.629 128.974C172.969 128.996 173.172 129.127 173.29 129.197C173.698 129.441 173.597 130.49 173.468 130.87C173.371 131.156 173.128 131.435 172.832 131.601C172.548 131.76 172.326 132.025 172.043 132.155C171.739 132.294 171.477 132.519 171.194 132.638C170.919 132.753 170.676 132.92 170.405 133.074C170.07 133.264 169.781 133.392 169.498 133.557C169.203 133.728 168.932 133.887 168.649 133.981C168.358 134.078 168.084 134.287 167.801 134.405C167.525 134.52 167.236 134.594 166.952 134.688C166.662 134.785 166.387 134.947 166.045 135.042C165.747 135.124 165.468 135.23 165.185 135.324C164.902 135.419 164.62 135.513 164.337 135.607C164.032 135.709 163.701 135.796 163.406 135.878C163.075 135.971 162.642 135.961 162.251 136.02C161.772 136.092 161.508 136.126 160.317 136.161C159.197 136.194 157.027 136.173 155.862 136.161C154.064 136.143 153.025 136.056 152.566 136.02C151.572 135.943 149.915 135.914 149.514 135.879C149.065 135.839 148.501 135.773 148.147 135.737C147.351 135.657 146.121 135.632 145.638 135.596C144.991 135.548 144 135.49 143.399 135.454C143.024 135.432 142.657 135.325 142.256 135.266C141.787 135.197 141.268 135.183 140.853 135.125C140.512 135.076 139.996 135.042 139.581 134.972C139.208 134.909 138.652 134.83 138.226 134.712C137.836 134.605 137.542 134.571 137.259 134.477C136.961 134.377 136.623 134.359 136.34 134.265C136.057 134.17 135.775 134.076 135.48 133.993C135.146 133.9 134.926 133.817 134.796 133.746C134.737 133.699 134.69 133.629 134.736 133.558C134.782 133.487 134.922 133.417 135.208 133.345" stroke="black" stroke-linecap="round"/>
<path d="M157.054 129.174C157.054 129.781 157.1 131.011 157.113 132.468C157.116 132.851 157.054 133.271 157.077 133.836C157.095 134.282 157.5 134.475 157.818 134.805C158.061 135.058 158.396 135.089 158.679 135.183C159.042 135.304 159.573 135.207 159.892 135.113C160.293 134.994 160.729 134.949 161 134.748C161.271 134.548 161.342 134.195 161.437 133.853C161.519 133.555 161.625 133.276 161.661 132.641C161.696 132.428 161.72 131.376 161.685 129.903C161.65 129.409 161.58 129.433 161.508 129.457" stroke="black" stroke-width="0.5" stroke-linecap="round"/>
<path d="M156.983 129.174C156.983 129.221 156.983 130.038 156.995 131.275C157.004 132.282 157.1 133.273 157.113 133.908C157.12 134.273 156.936 134.546 156.713 134.829C156.5 135.098 156.207 135.23 155.83 135.313C155.092 135.475 154.746 135.254 154.439 135.184C154.148 135.117 153.874 134.995 153.59 134.842C153.324 134.698 153.025 134.642 152.742 134.547C152.459 134.453 152.177 134.312 151.729 133.877C151.454 133.61 151.422 133.276 151.339 132.538C151.171 131.041 151.327 130.209 151.315 130.527C151.296 131.06 151.21 131.718 151.174 132.06C151.14 132.387 150.998 132.801 150.88 133.12C150.769 133.422 150.268 133.321 149.985 133.416C149.512 133.573 148.783 133.393 148.5 133.216C148.244 133.056 147.935 132.922 147.652 132.78C147.519 132.713 147.369 132.686 147.239 132.615C146.951 132.459 146.897 132.074 146.744 131.791C146.6 131.525 146.544 131.226 146.461 130.931C146.438 130.85 146.449 130.755 146.414 130.73C146.379 130.705 146.309 130.752 146.261 130.823C146.065 131.113 146.095 131.482 145.966 131.789C145.846 132.076 145.602 132.354 145.319 132.497C144.77 132.772 143.764 132.521 143.469 132.427C143.387 132.4 143.293 132.38 143.221 132.333C143.15 132.286 143.103 132.216 143.114 132.156C143.125 132.097 143.195 132.05 143.313 131.991C143.431 131.932 143.594 131.862 143.762 131.79" stroke="black" stroke-width="0.5" stroke-linecap="round"/>
<path d="M151.115 129.598C151.302 129.692 151.398 129.926 151.386 130.244C151.374 130.375 151.351 130.445 151.327 130.516C151.304 130.587 151.28 130.657 151.468 130.729" stroke="black" stroke-width="0.5" stroke-linecap="round"/>
<path d="M164.972 129.457C164.972 129.761 164.925 130.514 164.889 130.94C164.83 131.644 164.877 132.637 165.053 132.897C165.225 133.15 165.513 133.273 165.818 133.463C166.36 133.799 166.738 133.299 167.021 133.204C167.312 133.107 167.586 132.898 167.869 132.78C168.145 132.665 168.435 132.498 168.706 132.274C168.956 132.067 168.978 131.721 169.06 131.321C169.237 130.465 169.002 130.072 168.943 129.729C168.931 129.646 168.931 129.553 168.919 129.47C168.908 129.387 168.884 129.317 168.86 129.103" stroke="black" stroke-width="0.5" stroke-linecap="round"/>
<path d="M161.508 133.628C161.578 133.627 161.743 133.839 161.837 133.945C162.09 134.232 163.289 134.052 163.981 133.97C164.241 133.77 164.569 133.395 164.771 133.064C164.806 132.992 164.853 132.922 165.043 132.709" stroke="black" stroke-width="0.5" stroke-linecap="round"/>
<path d="M91.5002 92.5998C91.5709 92.1736 91.8557 91.1778 92.1416 90.212C92.4618 89.1305 92.6395 87.9656 92.9629 86.9291C93.3815 85.5875 93.4276 84.5392 93.6053 83.5027C93.8417 82.1246 93.8559 77.5793 93.6428 74.8286C93.573 73.9272 93.0721 73.1164 92.7862 72.2588C92.5003 71.4011 92.3568 70.4053 92.1438 69.4748C92.0931 69.2537 92.0014 69.0476 92.1063 68.8324C92.6482 67.7208 93.8516 67.4029 94.7093 67.0464C95.7356 66.6197 96.2073 65.5484 97.0649 64.9766C98.0389 64.3272 98.8499 63.1242 99.7771 62.016C100.484 61.1706 101.133 60.2674 101.848 59.3744C102.062 59.1239 102.345 58.8412 102.596 58.5896C102.848 58.338 103.06 58.1259 103.493 57.6934" stroke="black" stroke-width="2" stroke-linecap="round"/>
<path d="M110.131 81.2497C109.919 80.9649 109.065 80.6801 108.207 80.3942C107.78 80.2518 107.279 80.179 106.744 80.1436C106.27 80.1123 102.388 79.9648 96.7137 79.9295C94.0604 79.913 92.6523 79.5365 91.3974 79.3588C89.9467 79.1533 88.9347 79.6779 87.5438 79.786C86.569 79.8618 85.9366 80.89 85.2213 81.7101C84.2919 82.7466 83.8636 83.6011 83.2222 84.4588C83.0777 84.674 83.007 84.886 82.9342 85.1044" stroke="black" stroke-width="2" stroke-linecap="round"/>
<path d="M83.5767 82.3205C83.3647 81.965 82.7929 81.254 82.507 80.361C82.3387 79.8353 82.2918 77.6991 82.2564 74.8092C82.2409 73.5403 82.0776 69.8634 82.1129 64.5107C82.1268 62.4062 82.2918 61.837 82.1858 61.2663C82.028 60.4169 80.5828 60.4087 79.7958 59.8015C79.0817 59.2506 78.724 58.34 78.4028 57.4823C78.0607 56.5688 77.6533 55.6288 77.3674 54.6983C77.0673 53.7215 77.0108 52.5579 76.7603 51.2752C76.3484 49.1666 76.5097 46.0135 76.7228 43.9909C76.8175 43.0918 77.2935 42.1374 77.5794 41.2069C77.8449 40.3427 78.2914 39.3534 78.6855 38.423C79.0659 37.5247 79.5763 36.7108 80.1128 35.8532C80.6298 35.0266 81.1482 34.141 81.6825 33.2834C81.8305 33.0459 82.0733 32.8561 82.1472 32.6409C82.434 31.8055 81.508 30.9288 81.4705 29.1824C81.4464 28.058 81.932 27.0741 82.326 26.2164C82.7481 25.2977 84.5618 23.5149 86.1068 22.3607C87.1472 21.5835 88.7077 20.4355 91.028 19.1152C92.077 18.5184 92.995 18.3625 94.0304 18.0766C95.0003 17.8088 95.9931 17.5059 96.8861 17.22C98.0639 17.0048 99.3467 16.8634 102.08 16.6129C103.957 16.5765 107.42 16.5765 110.988 16.7906" stroke="black" stroke-width="2" stroke-linecap="round"/>
<path d="M113.558 15.9341C113.344 15.5807 113.485 14.4393 114.019 13.5816C114.598 12.6527 115.267 11.7282 117.937 9.19798C119.486 7.73043 120.976 6.65709 122.118 5.8369C123.847 4.59589 124.903 4.51559 125.761 3.97915C126.616 3.44458 128.818 2.87521 130.614 2.44369C131.626 2.20042 132.754 2.01432 133.685 1.80125C134.566 1.59944 135.679 1.37188 138.096 1.19413C146.085 0.606565 146.961 1.51321 147.996 1.7991C148.901 2.04893 149.745 2.36981 150.602 2.6557C151.46 2.94159 152.456 3.22641 153.386 3.54764C154.368 3.88641 155.313 4.29716 156.348 4.58305C157.253 4.83288 158.238 5.01242 159.168 5.40324C160.013 5.75805 160.88 6.1517 161.738 6.75881C162.631 7.39116 163.45 7.72356 164.486 8.57801C165.336 9.27956 166.234 9.79224 167.092 10.5418C167.884 11.2336 168.804 11.7196 169.484 12.5398C170.328 13.5579 171.018 14.4307 171.625 15.2884C172.284 16.2187 173.087 17.0005 173.909 17.8582C174.637 18.6171 175.087 19.5703 175.837 20.6057C176.495 21.5151 177.229 22.3543 177.8 23.2119C178.372 24.0696 178.942 24.9241 179.478 25.7817C179.979 26.5816 180.582 27.3525 181.049 28.1374C181.586 29.04 182.227 29.8495 182.726 30.7072C183.244 31.5982 183.867 32.4193 184.474 33.3123C185.194 34.3706 185.795 35.2033 186.331 36.0609C186.831 36.8608 187.294 37.7731 187.652 38.6307C188.001 39.4648 188.223 40.3428 188.687 41.2005C189.154 42.065 189.294 43.1268 189.58 44.0198C189.945 45.1601 189.936 46.339 190.044 47.3745C190.094 47.8475 190.223 51.3073 190.188 56.3388C190.17 58.8389 189.726 59.8305 189.616 65.4872C189.58 67.3443 190.15 68.1823 190.436 69.04C190.722 69.8977 191.007 70.7521 191.258 71.8582C191.407 72.5181 191.435 73.1099 191.65 73.2191C192.697 73.7533 191.508 71.0476 191.295 69.9041C191.082 68.7601 190.939 67.7626 190.653 66.6918C190.366 65.6191 190.082 64.7645 189.441 63.9068C188.828 63.0877 188.583 61.9805 188.332 61.0875C188.188 60.5729 188.225 60.0511 188.118 59.8712C187.445 58.7395 188.793 64.0321 189.329 65.4701C189.769 66.6481 190.078 67.5399 190.507 68.3269C190.604 68.505 190.861 68.5421 190.971 68.4372C191.614 67.8194 190.724 66.6918 190.439 65.8342C190.153 64.9765 189.726 63.9807 189.19 62.3039C188.817 61.1369 188.654 60.4794 188.582 60.2641C188.369 59.6249 189.08 61.8992 189.366 63.1851C189.606 64.268 189.936 65.3984 190.222 66.4691C190.374 67.0364 190.437 67.6127 190.402 67.8643C190.255 68.9149 189.868 65.6939 189.582 64.7634C189.277 63.7701 189.011 62.4817 188.761 60.8059C188.681 60.2742 188.724 59.6335 188.724 59.6592C188.724 61.549 189.294 62.9699 189.58 64.1488C189.899 65.4636 190.15 66.6105 190.259 68.1095C190.343 69.279 190.652 70.039 190.546 70.4684C190.44 70.5444 190.228 70.3324 190.083 70.1172C189.938 69.9019 189.868 69.6899 189.581 69.0432" stroke="black" stroke-width="2" stroke-linecap="round"/>
<path d="M141.611 31.5669C141.185 31.3549 140.331 30.7831 139.473 30.3195C138.667 29.8838 137.761 29.5711 136.903 29.0346C136.07 28.5135 134.553 28.4275 133.441 27.9639C132.314 27.4937 130.981 27.3568 129.271 27.1062C126.227 26.6602 125.34 27.4253 124.447 27.9949C123.316 28.7167 123.267 29.8495 123.017 30.9202C122.771 31.9701 122.766 35.533 122.979 37.7741C123.065 38.6741 123.55 39.4862 123.871 40.5569C124.416 42.3717 125.691 44.4116 126.688 46.6913C127.228 47.9258 128.116 49.1915 129.258 50.5502C129.76 51.4807 130.471 52.7592 131.364 53.8706C131.615 54.1212 131.897 54.4039 132.403 55.1234" stroke="black" stroke-width="2" stroke-linecap="round"/>
<path d="M140.755 30.7105C140.329 30.5692 139.474 29.8582 138.19 29.0005C136.903 28.1409 136.048 27.5711 135.19 26.8944C134.395 26.2674 133.478 25.9307 132.62 25.3589C131.742 24.7737 127.584 23.4423 124.912 22.7516C124.351 22.6067 123.627 22.5728 122.879 22.6435C121.795 22.7458 120.916 23.9948 120.021 24.7475C119.194 25.4423 118.843 26.6374 117.951 28.4191C117.347 29.6248 117.13 31.1303 116.806 34.0095C116.21 39.3161 116.841 43.1997 116.983 43.8047C117.395 45.5548 117.982 47.5513 118.268 48.6595C118.502 49.5684 118.839 50.5494 119.16 51.4798C119.478 52.4019 119.909 53.192 120.195 54.0496C120.481 54.9073 120.625 55.9031 120.838 57.0113C120.98 57.475 121.124 57.9054 121.337 58.156C121.479 58.1945 121.691 58.0532 121.909 57.6934" stroke="black" stroke-width="2" stroke-linecap="round"/>
<path d="M141.397 31.7811C141.042 31.5691 140.331 30.856 139.58 30.0005C138.495 28.7641 137.761 28.072 136.512 27.0741C135.07 25.9208 133.692 24.7185 132.799 24.2163C131.702 23.5993 130.908 22.9325 128.665 21.8274C126.755 20.8866 125.34 20.9323 124.092 20.8242C121.923 20.6363 118.774 20.7867 117.809 21.2503C116.83 21.72 115.776 21.8574 114.846 22.3917C113.681 23.0604 113.275 25.2753 112.561 27.3482C112.096 28.6965 111.703 30.1322 111.595 31.704C111.496 33.1402 111.275 34.5608 111.167 38.1553C111.131 39.3448 110.988 42.5314 111.023 46.9558C111.043 49.4868 111.343 50.622 111.629 51.6928C111.933 52.8316 112.2 53.8343 112.486 54.6919C112.814 55.6777 113.057 56.8324 113.165 57.8678C113.261 58.791 113.699 59.7576 113.985 60.6881C114.117 61.1186 114.271 61.6165 114.378 61.8681C114.414 61.837 114.414 61.4837 114.485 61.1957C114.556 60.9076 114.697 60.6956 115.057 60.263" stroke="black" stroke-width="2" stroke-linecap="round"/>
<path d="M140.112 31.1386C139.9 30.7832 137.915 29.3655 135.942 28.1791C134.641 27.3969 133.05 26.7143 132.086 26.2153C130.608 25.45 128.278 24.5771 126.732 23.8597C125.365 23.2255 121.374 21.8702 118.418 21.0393C116.574 20.5212 114.851 20.4312 113.775 20.822C112.8 21.1762 111.707 21.9987 110.066 23.5299C108.996 24.5278 108.495 25.9905 107.778 27.2443C107.508 27.7166 106.429 29.8345 104.86 33.3968C102.902 37.8442 103.351 39.3406 103.03 41.2315C102.668 43.361 102.281 44.9085 102.172 46.0895C102.075 47.1501 101.779 48.973 101.602 50.4774C101.333 52.7523 101.351 54.7508 101.173 56.5454C100.997 58.328 100.923 59.0466 100.887 59.3336C100.709 58.2693 100.779 57.0529 101.063 56.4137C101.276 55.9864 101.63 55.3504 102.208 54.481" stroke="black" stroke-width="2" stroke-linecap="round"/>
<path d="M135.187 28.1406C134.761 27.8558 133.482 26.8643 132.228 25.8588C131.183 25.0204 129.623 24.3587 128.304 23.682C127.522 23.2809 126.06 22.8618 122.794 21.9731C120.537 21.359 116.984 20.731 114.74 20.367C110.055 19.6071 107.711 20.928 106.142 21.5694C102.984 22.8597 102.567 24.2816 101.143 25.8845C99.4604 27.7788 98.7856 29.2028 97.8219 30.704C96.4074 32.9075 95.5734 34.2011 94.4319 35.8425C92.8607 38.1022 92.7166 39.2721 92.1448 40.4489C91.3193 42.1479 91.2176 44.4031 90.5034 46.8701C90.2288 47.8186 90.2153 48.6947 90.18 49.4432C90.1542 49.9894 90.0012 53.8728 89.9305 59.3347C89.9074 61.1231 89.7185 60.9098 89.6457 60.5886C89.6436 59.0531 89.999 57.9824 90.3556 57.341C90.5002 57.053 90.5708 56.841 90.6436 56.6225" stroke="black" stroke-width="2" stroke-linecap="round"/>
<path d="M106.705 24.0718C105.996 24.8513 104.709 26.4231 104.031 27.4222C102.973 28.9815 102.143 30.4149 100.714 32.7716C99.3467 35.0259 98.0018 36.985 97.2844 38.166C96.7523 39.042 95.5091 42.4587 94.2156 46.7952C93.5642 48.9791 93.4275 52.7507 93.2498 54.5828C93.0872 56.2583 92.9992 57.7554 92.9286 58.9707C92.8579 59.2673 92.7166 58.9139 92.6791 58.6259C92.6416 58.3379 92.7123 58.1259 93.2134 57.4791" stroke="black" stroke-width="2" stroke-linecap="round"/>
<path d="M101.565 21.2876C100.998 21.7823 99.715 23.2107 98.3252 24.7054C96.5691 26.5941 94.4362 28.4188 92.5495 29.9842C90.4779 31.7032 88.7248 33.9824 87.2279 36.1549C85.1359 39.1911 84.9344 40.6981 84.1152 42.9435C83.5404 44.5193 82.6558 48.0991 82.2564 50.4077C81.9395 52.2393 81.9363 54.6907 81.8635 57.9672C81.8635 58.1985 82.1461 57.4832 82.6451 56.6994C82.8614 56.3396 83.0027 56.057 83.1484 55.7657" stroke="black" stroke-width="2" stroke-linecap="round"/>
<path d="M96.2115 24.7142C95.5733 24.6435 93.8644 24.5 92.5752 24.7484C91.0795 25.0367 90.1468 26.8514 88.153 29.6996C87.212 31.0439 86.6519 32.6977 86.1122 33.9547C85.5247 35.3233 85.0072 37.1991 84.6132 38.5932C84.2503 39.8771 83.7223 41.268 83.3283 43.0882C82.564 46.6188 81.6493 51.7613 81.4716 52.9777C81.2953 54.1838 81.221 56.252 81.327 58.2158C81.361 58.8449 81.645 58.6955 81.9309 58.552C82.2168 58.4085 82.5702 58.2672 82.8582 58.1237C83.1462 57.9802 83.3582 57.8389 83.7908 57.6932" stroke="black" stroke-width="2" stroke-linecap="round"/>
<path d="M141.397 27.0697C141.114 26.787 140.969 25.7227 141.039 24.2247C141.107 22.784 143.102 21.9344 144.356 21.1474C145.196 20.6201 146.104 20.1484 146.997 19.7897C148.497 19.1872 150.601 19.7158 151.459 20.037C152.442 20.4053 153.171 21.6388 154.171 22.7471C154.902 23.5568 155.882 24.5641 156.92 25.7452C157.648 26.5745 158.169 27.9905 158.563 29.4553C158.998 31.0719 159.313 32.205 159.777 33.2757C160.742 35.5045 159.887 39.2719 159.779 40.8759C159.693 42.1504 158.679 44.964 157.924 47.1237C157.745 47.6238 157.602 48.0542 157.459 48.4814C157.388 48.6967 157.317 48.9087 157.244 48.6988" stroke="black" stroke-width="2" stroke-linecap="round"/>
<path d="M139.684 23.8575C140.037 23.29 142.168 21.5833 143.713 20.6828C144.557 20.191 147.016 19.1548 148.923 18.6826C150.219 18.3619 151.244 18.3624 153.914 18.325C155.466 18.3032 156.739 18.6451 158.025 18.7533C159.03 18.8378 160.092 20.7052 160.705 22.1047C161.147 23.1155 161.951 24.2087 162.738 25.6724C163.419 26.9393 164.59 31.1086 164.989 33.7031C165.197 35.0576 165.309 36.2011 165.915 40.5794C166.197 42.6162 166.238 45.1826 165.883 47.3369C165.695 48.4762 165.596 49.4784 165.418 50.835C165.382 51.1937 165.382 51.5471 165.311 51.6231C165.241 51.6991 165.099 51.4871 164.954 51.0546" stroke="black" stroke-width="2" stroke-linecap="round"/>
<path d="M142.254 23.2151C142.892 22.9324 144.177 21.9345 145.07 21.3252C146.95 20.0421 150.738 18.8636 152.562 18.4695C154.468 18.0576 156.165 17.8614 157.81 17.6836C158.449 17.6145 158.955 17.5765 159.524 17.4695C161.402 17.1157 162.666 19.3561 164.66 21.458C165.76 22.6178 166.877 23.6391 168.801 26.5216C169.724 27.9053 169.665 29.1363 169.877 30.7671C170.331 34.2637 170.95 36.8457 171.02 37.7698C171.23 40.5097 171.592 43.7521 171.379 45.5895C171.209 47.0601 171.023 48.0522 170.914 50.1894C170.665 51.4807 170.521 52.4765 170.273 53.1597C170.166 53.1275 170.025 52.8449 169.879 52.5536" stroke="black" stroke-width="2" stroke-linecap="round"/>
<path d="M141.183 25.7848C141.609 25.5728 142.464 24.577 143.993 23.1871C146.239 21.1449 148.318 20.0755 148.888 19.7554C149.49 19.4169 151.304 18.5101 154.119 17.4404C156.243 16.6332 159.294 16.5763 162.505 16.6117C164.396 16.6325 166.367 17.8527 167.77 18.5733C169.368 19.3942 170.59 21.4247 172.228 23.9902C173.077 25.3189 173.447 26.2088 173.946 27.2078C174.764 28.8456 175.16 30.4875 175.624 31.6696C176.309 33.4164 176.518 35.6271 176.731 37.0223C176.997 38.7659 177.087 39.9144 177.195 42.0163C177.22 42.487 177.301 42.6983 177.338 44.8216C177.374 50.9731 177.162 54.8406 176.806 54.2356C176.661 53.9133 176.591 53.56 176.304 52.7676" stroke="black" stroke-width="2" stroke-linecap="round"/>
<path d="M145.68 23.6432C145.963 23.1464 147.526 22.1485 148.675 21.5392C149.084 21.3222 152.571 20.6516 158.557 19.6879C163.361 18.9144 166.02 19.5722 166.804 19.9641C167.995 20.5597 169.087 21.6388 170.09 22.6046C172.425 24.8521 175.871 28.7057 177.013 30.027C177.81 30.9481 178.085 32.5561 178.835 34.416C179.26 35.4717 180.364 37.8285 181.19 40.3715C182.704 45.029 182.797 46.977 183.155 48.4086C183.438 49.5363 183.512 50.836 183.62 51.9067C183.869 53.1209 184.154 54.4037 184.262 55.8674C184.298 56.1919 184.368 56.4039 184.655 56.8364" stroke="black" stroke-width="2" stroke-linecap="round"/>
<path d="M157.458 22.1445C157.814 22.3565 158.384 23.211 158.778 24.4595C158.975 25.0841 159.949 28.3249 161.162 33.0694C161.921 36.0364 161.956 37.0579 162.133 39.0838C162.17 42.7971 162.24 45.4847 162.347 46.866C162.384 48.0352 162.384 50.1553 162.384 51.6972" stroke="black" stroke-width="2" stroke-linecap="round"/>
<path d="M165.168 22.7869C165.168 23.637 165.309 25.3524 165.417 27.632C165.479 28.9331 165.737 30.205 165.846 31.8465C165.935 33.2119 166.166 35.0576 166.274 39.4734C166.322 41.4213 166.594 42.8398 166.702 46.9697C166.748 48.7034 167.022 49.9796 167.13 51.726C167.169 52.3432 167.309 52.8364 167.345 53.3707C167.38 53.6223 167.451 53.8343 167.487 53.0248C167.523 52.2153 167.523 50.3779 167.523 48.4848" stroke="black" stroke-width="2" stroke-linecap="round"/>
<path d="M170.521 24.2859C170.946 24.7099 171.447 25.635 172.158 28.0132C173.418 32.2287 173.734 35.3467 173.946 36.9068C174.72 42.6057 175.16 43.6964 175.268 45.3379C175.441 47.9669 175.306 52.1211 175.197 53.8675C175.162 54.2647 175.091 54.4767 175.02 54.4799C174.948 54.4831 174.877 54.2711 174.804 54.0527" stroke="black" stroke-width="2" stroke-linecap="round"/>
<path d="M172.021 28.5688C172.588 28.7809 173.729 29.7767 174.409 30.8838C174.95 31.7649 175.16 32.6356 175.833 34.2642C177.471 38.2235 178.372 41.2722 178.622 41.8772C179.148 43.1525 180.15 47.0243 180.8 49.9421C181.124 51.3998 181.3 52.3373 181.371 52.3759C181.302 51.6371 181.229 50.7012 181.194 50.0245C181.158 49.7011 181.088 49.4185 181.015 49.1272" stroke="black" stroke-width="2" stroke-linecap="round"/>
<path d="M173.305 22.7869C174.374 23.7827 175.228 24.9241 176.796 27.0592C178.022 28.7285 178.586 30.2072 179.013 31.0959C179.631 32.3854 181.077 35.3275 182.575 38.9305C184.138 42.6906 185.439 46.8359 185.938 48.4067C186.61 50.5221 186.938 51.8341 187.046 52.9424C187.196 54.4756 187.366 56.6182 187.617 57.9021C187.686 58.2559 187.653 58.6141 187.512 58.3015C187.371 57.9888 187.088 56.9994 186.872 56.3484C186.656 55.6974 186.514 55.4147 186.369 55.1235" stroke="black" stroke-width="2" stroke-linecap="round"/>
<path d="M176.732 28.5688C177.8 29.6353 178.655 30.9202 179.299 31.9556C179.991 33.0663 181.006 35.8328 181.869 37.9143C182.433 39.2752 183.152 40.981 183.832 42.9094C184.508 44.8268 185.225 46.052 187.111 50.9636C187.866 52.9311 188.009 53.9756 188.153 54.8354C188.084 54.9799 187.872 55.0506 187.586 54.981C187.3 54.9114 186.947 54.6994 186.583 54.481" stroke="black" stroke-width="2" stroke-linecap="round"/>
<path d="M133.688 21.716C134.609 21.2213 136.467 20.0756 137.36 19.5766C138.365 19.0151 140.099 18.3667 146.046 17.1867C149.439 16.5135 151.813 17.0754 152.882 17.2531C155.059 17.6153 158.581 18.7821 160.345 19.6077C161.756 20.2677 162.38 21.2834 163.948 22.8874C164.521 23.5662 164.881 24.0695 165.166 24.4967C165.309 24.7119 165.45 24.9239 165.382 25.3565" stroke="black" stroke-width="2" stroke-linecap="round"/>
<path d="M139.256 23.2153C139.253 22.9347 139.967 21.5063 140.963 20.5073C142.731 18.736 144.387 18.1528 147.38 16.6537C149.013 15.8363 150.316 15.6494 152.053 15.5423C153.434 15.4571 155.839 15.5059 158.208 15.6825C162.855 16.0292 166.44 16.93 168.473 17.536C170.032 18.0007 170.519 19.0736 170.876 19.3938C171.02 19.5726 171.091 19.7846 170.951 19.9291C170.811 20.0737 170.457 20.1444 170.093 20.2172" stroke="black" stroke-width="2" stroke-linecap="round"/>
<path d="M135.615 23.0011C135.686 22.4336 135.971 21.2922 137.072 19.2278C137.972 17.5416 139.887 16.0134 141.917 14.6942C144.758 12.8488 147.096 12.7241 150.506 12.4028C155.872 11.8974 159.596 12.3643 160.803 12.6127C164.144 13.2998 165.091 14.358 166.198 15.2874C166.59 15.6429 167.155 16.2083 167.588 16.6055C168.02 17.0028 168.303 17.2148 168.594 17.8615" stroke="black" stroke-width="2" stroke-linecap="round"/>
<path d="M136.043 20.6453C136.043 19.9364 136.185 18.508 137.287 17.1536C138.974 15.0787 141.526 14.088 143.532 13.1168C145.677 12.0786 150.576 11.227 153.774 10.9732C156.586 10.7501 160.444 11.0771 162.307 11.4711C163.452 11.9358 164.59 12.5033 165.628 13.0055C165.879 13.1479 166.161 13.3599 166.667 14.0066" stroke="black" stroke-width="2" stroke-linecap="round"/>
<path d="M131.76 20.6452C131.478 20.6452 131.049 20.5745 130.586 20.3614C130.191 20.1799 130.261 19.1526 130.297 18.0829C130.345 16.6244 132.253 15.0131 137.841 11.5567C139.497 10.5322 140.607 10.3681 142.028 9.83491C144.264 8.99581 146.528 8.51146 149.58 8.33265C151.78 8.20373 155.317 8.36584 157.985 8.50825C165.268 8.89693 167.735 10.0084 168.021 10.2215C168.095 10.3639 168.024 10.5759 167.776 10.7911C167.528 11.0063 167.104 11.2183 166.667 11.4368" stroke="black" stroke-width="2" stroke-linecap="round"/>
<path d="M127.049 21.0738C126.058 20.6497 124.267 19.5769 123.946 18.9023C123.009 16.9337 124.051 15.583 124.833 13.4083C125.446 11.7012 128.604 9.66386 133.199 7.73223C135.062 6.94934 138.125 6.66576 141.032 6.37452C143.939 6.08327 146.695 6.08327 148.645 6.18928C153.365 6.44589 156.439 7.93353 158.488 8.6156C158.812 8.72374 159.094 8.79441 159.346 8.86615C159.598 8.93789 159.81 9.00856 160.028 9.08137" stroke="black" stroke-width="2" stroke-linecap="round"/>
<path d="M127.906 21.0736C127.906 20.5061 128.047 19.3647 128.368 18.0809C128.867 16.0868 130.827 14.2251 133.105 11.8052C134.87 9.93109 137.883 8.65934 141.9 7.41298C147.273 5.74606 151.1 5.58415 152.062 5.47707C153.592 5.30662 155.304 6.22017 156.634 6.93757C157.676 7.49958 159.09 8.78568 159.778 10.0406C159.814 10.3618 159.814 10.7858 159.673 11.1103C159.531 11.4347 159.249 11.6467 158.957 11.8652" stroke="black" stroke-width="2" stroke-linecap="round"/>
<path d="M119.768 16.5765C119.556 16.5058 119.344 16.4352 119.305 16.1514C119.04 14.1977 121.404 12.8674 122.582 11.9766C123.688 11.1401 124.833 10.5118 126.075 9.6948C128.288 8.23876 130.61 7.22886 132.318 6.55215C134.253 5.78566 136.814 5.44285 140.122 5.12163C147.072 4.44668 148.67 5.58205 150.527 6.11635C152.202 6.59808 153.527 7.71927 154.279 8.68508C155.078 9.70986 155.103 10.7902 154.997 11.468C154.891 11.7217 154.679 11.7924 154.357 11.8995C154.036 12.0065 153.612 12.1479 152.961 12.5077" stroke="black" stroke-width="2" stroke-linecap="round"/>
<path d="M119.126 16.5764C119.625 15.223 120.051 14.2251 120.763 12.801C122.425 9.47582 125.177 8.16464 127.575 6.87225C129.263 5.96205 131.96 5.58628 136.646 5.08731C139.838 4.74749 144.725 4.72968 147.59 4.76288C151.171 4.80435 152.102 5.36785 152.53 5.72334C153.551 6.5733 153.886 7.79202 154.245 8.72036C154.317 9.00625 154.387 9.3596 154.389 9.64763C154.39 9.93566 154.319 10.1477 154.246 10.3661" stroke="black" stroke-width="2" stroke-linecap="round"/>
<path d="M125.764 21.0737C124.267 21.7868 122.989 22.4957 121.877 23.106C120.681 23.7627 120.059 25.9135 119.165 27.9522C118.787 28.8155 118.35 30.3935 117.883 32.5725C116.833 37.4761 116.556 40.8419 116.52 41.7681C116.425 44.2643 116.483 47.6925 116.626 49.2633C116.838 50.3994 117.055 51.4787 117.162 51.8385C117.198 51.7742 117.198 51.2089 117.198 50.6264" stroke="black" stroke-width="2" stroke-linecap="round"/>
<path d="M123.623 23.001C122.062 24.2773 119.914 26.4231 119.342 27.8493C119.08 28.5016 118.629 29.9137 118.2 32.6516C117.951 34.246 118.055 36.3082 118.337 38.8481C118.954 44.3867 119.909 47.6261 120.194 48.1946C121.074 49.9503 121.408 51.4786 121.694 52.3363C121.766 52.5515 121.837 52.7635 121.908 52.6961C121.98 52.6286 122.051 52.2753 122.124 51.9112" stroke="black" stroke-width="2" stroke-linecap="round"/>
<path d="M125.122 19.3604C122.134 22.4869 119.699 25.9219 119.305 26.8877C118.836 28.0377 118.77 29.631 118.909 35.6764C119.023 40.6181 120.124 43.8398 120.444 45.296C121.342 49.3802 121.764 50.8318 122.158 52.4765C122.453 53.7063 123.122 54.618 123.656 55.5838C123.805 55.8531 124.047 56.117 124.227 56.1566C124.548 55.9842 124.693 55.2005 124.729 54.2379C124.764 53.8406 124.835 53.6286 124.908 53.4102" stroke="black" stroke-width="2" stroke-linecap="round"/>
<path d="M117.626 21.502C116.072 22.9153 114.564 24.7742 113.317 26.9114C112.279 28.6895 111.776 31.4064 111.348 34.3306C111.107 35.9717 111.131 36.9165 111.024 38.4069C110.826 41.1626 110.917 43.4116 110.81 45.7159C110.582 50.6297 110.844 54.2626 110.951 55.0817C111.199 56.9718 111.63 59.2566 112.021 59.9772C112.273 58.6976 112.343 57.3399 112.45 56.5925C112.487 56.1985 112.487 55.7745 112.487 55.3376" stroke="black" stroke-width="2" stroke-linecap="round"/>
<path d="M115.699 23.2151C114.986 26.4959 114.701 28.2005 114.558 30.4148C114.507 31.2001 114.346 32.3293 114.273 34.8905C114.2 37.4518 114.2 41.4093 114.271 43.766C114.387 47.648 115.125 49.3285 115.519 51.2623C115.847 52.8704 116.269 53.6222 116.589 53.8021C116.768 53.77 116.98 53.4873 117.301 52.7057C117.622 51.924 118.046 50.652 118.697 49.1272" stroke="black" stroke-width="2" stroke-linecap="round"/>
<path d="M114.843 21.7161C114.56 21.8574 113.001 23.5556 110.082 27.5377C108.429 29.7932 107.022 32.9332 106.115 34.7813C104.943 37.1695 104.495 38.3427 103.713 40.5066C103.144 42.0817 102.508 44.72 102.037 46.9504C101.567 49.1808 101.355 50.9475 101.246 53.589C100.994 59.6891 101.278 62.9784 101.634 62.3381C102.563 60.7663 103.062 59.7662 103.772 58.5252C104.27 57.5669 105.047 55.9415 106.062 54.0527" stroke="black" stroke-width="2" stroke-linecap="round"/>
<path d="M112.059 24.7141C110.787 27.1169 109.495 29.8387 108.461 32.37C107.194 35.4706 106.564 38.4111 105.567 42.117C105.205 43.4603 104.428 46.885 103.18 51.7698C102.427 54.7142 102.422 57.3206 102.422 59.3935C102.422 59.3464 102.493 58.4812 102.635 57.8056C102.707 57.4126 102.777 56.918 102.85 56.1941" stroke="black" stroke-width="2" stroke-linecap="round"/>
<path d="M110.56 25.1426C110.489 25.3546 110.418 25.5666 109.958 28.6439C109.497 31.7213 108.649 37.6575 108.212 41.0336C107.538 46.2474 107.561 49.1102 107.739 51.014C107.916 52.9087 108.559 55.8988 108.987 56.6954C109.2 56.417 109.553 55.569 109.876 54.5668C110.2 53.5645 110.482 52.4338 110.774 51.2689" stroke="black" stroke-width="2" stroke-linecap="round"/>
<path d="M109.489 24.9282C109.206 25.3522 107.506 27.4787 104.655 31.2885C102.03 34.7971 101.068 37.6273 100.499 38.9454C100.005 40.0875 98.7192 43.8119 97.2919 48.9847C96.6309 51.3804 96.6398 52.4764 96.6045 53.6511C96.5669 54.9003 96.4257 57.389 96.4257 59.961C96.6377 58.9866 97.2094 56.9115 97.4589 56.1994C97.5671 55.8407 97.6377 55.4874 97.9247 54.695" stroke="black" stroke-width="2" stroke-linecap="round"/>
<path d="M104.349 23.8574C104.208 23.8574 103.287 25.3415 101.79 28.1201C100.563 30.398 99.927 32.1322 98.5083 35.3209C97.3573 37.9078 95.6761 42.6084 94.6953 45.2938C93.5155 48.5241 93.3569 49.6925 93.1791 50.7964C92.5823 54.5031 92.8558 59.19 93.0689 59.6172C93.184 59.8482 93.4233 60.0445 93.6385 59.977C95.1298 59.5096 94.9951 56.7722 95.4598 55.3439C95.6376 54.8449 95.9203 54.1382 96.2072 53.2441C96.4942 52.35 96.7769 51.29 97.0681 50.1978" stroke="black" stroke-width="2" stroke-linecap="round"/>
<path d="M96.4256 27.0698C94.3056 30.462 92.7894 32.8454 92.0409 34.0918C91.3756 35.1997 90.65 37.2634 89.4037 40.3236C88.7412 41.9501 88.228 43.8078 87.6894 46.1324C87.1508 48.457 86.6561 51.2131 86.4013 53.3749C86.1465 55.5368 86.1465 57.0208 86.1818 57.644C86.2171 58.2672 86.2878 57.9845 86.3949 57.6975C87.0009 56.554 87.6434 55.556 88.2826 54.3836C88.7098 53.6351 89.3459 52.5751 90.0012 51.4829" stroke="black" stroke-width="2" stroke-linecap="round"/>
<path d="M90.6436 26.6416C90.2196 27.0656 88.1638 29.2628 85.2031 32.6142C83.5147 34.5256 82.9385 36.6231 82.19 39.3268C81.3062 42.5194 81.4352 44.84 81.3998 45.6945C81.2558 49.1782 81.2917 53.8365 81.4694 54.2637C81.5618 54.4857 81.7178 54.6909 81.8967 54.7295C82.2875 54.6267 83.3539 53.0677 84.7802 50.5728C85.3584 49.4914 85.6411 48.7847 85.9323 48.0566" stroke="black" stroke-width="2" stroke-linecap="round"/>
<path d="M90.2153 26.2134C90.074 26.2134 88.3051 28.5455 85.6293 32.2909C83.82 34.8236 83.3668 36.6982 82.3314 39.8354C81.9441 41.0091 81.084 44.3155 80.2274 49.5182C79.8499 51.811 79.9361 53.4489 80.1128 54.2156C80.2895 54.9823 80.6428 54.8409 80.9662 54.6268C82.1462 53.4854 83.2854 52.3439 84.3541 51.4895C84.8573 51.059 85.2813 50.635 85.7182 50.1982" stroke="black" stroke-width="2" stroke-linecap="round"/>
<path d="M104.992 18.9321C103.638 19.0028 101.792 19.429 100.462 19.7523C99.169 20.0668 97.5735 20.217 96.4653 20.4301C94.7726 20.7556 92.2926 22.3542 90.9349 23.2472C89.1567 24.4168 87.3714 25.2795 86.0083 26.1736C84.5061 27.7101 83.9364 28.5646 83.4 29.4223C83.2919 29.6375 83.2212 29.8495 83.1484 30.2821" stroke="black" stroke-width="2" stroke-linecap="round"/>
<path d="M131.214 89.0479C131.153 89.0479 131.031 89.0175 130.847 88.9409C130.474 88.7857 130.415 88.312 130.308 87.8513C130.118 87.0406 130.2 86.4694 130.383 86.006C130.553 85.577 131.028 85.3296 131.397 85.1599C131.779 84.9845 132.134 84.8371 133.04 84.821C133.538 84.8121 133.887 85.1433 134.241 85.2968C134.617 85.4598 134.656 86.0028 134.734 86.4487C134.802 86.8424 134.903 88.0538 134.704 88.8316C134.609 89.2056 133.983 89.1088 133.507 89.2167C133.015 89.3281 132.598 89.2019 132.414 89.1102C131.986 88.8965 131.83 88.4042 131.752 87.6521C131.725 87.3873 131.675 87.1435 131.721 86.8673C131.801 86.383 132.411 86.3126 132.78 86.1895C132.964 86.1282 133.15 86.1273 133.334 86.219C133.743 86.4233 133.765 86.925 133.873 87.3095C133.902 87.4145 133.888 87.5392 133.858 87.6475C133.828 87.7559 133.767 87.8472 133.659 87.8942C133.418 88 133.152 87.8804 132.968 87.7577C132.623 87.5279 132.476 87.1131 132.214 86.7286C131.914 86.2871 131.799 85.9142 131.584 85.5449C131.361 85.1612 131.123 84.9293 131.045 84.8675C131.059 84.8666 131.181 84.9275 131.335 84.9893C131.489 85.0511 131.671 85.1119 131.86 85.1746" stroke="black" stroke-width="2" stroke-linecap="round"/>
<path d="M168.287 86.4657C168.256 86.4657 168.226 86.4657 168.165 86.4353C168.103 86.4049 168.012 86.344 167.965 86.1453C167.842 85.6241 167.948 85.1756 168.01 84.9916C168.132 84.6258 168.562 84.4074 168.931 84.1612C169.315 83.9052 169.668 83.6383 170.038 83.4386C170.428 83.2276 170.959 83.2694 171.435 83.1615C171.926 83.0501 172.343 83.1154 172.512 83.1149C172.905 83.1138 172.774 83.8817 172.775 84.7869C172.776 85.3119 172.315 85.6339 171.977 85.8963C171.665 86.1382 171.24 86.1577 170.87 86.2656C170.513 86.37 170.072 86.3735 169.671 86.4348C169.58 86.4489 169.487 86.4049 169.44 86.1457C169.307 85.4102 169.454 84.8067 169.577 84.6227C169.807 84.2779 170.343 84.2524 170.775 84.1911C170.867 84.1781 170.959 84.2211 171.022 84.2824C171.286 84.5432 171.36 84.9884 171.499 85.3729C171.577 85.5893 171.575 85.8193 171.683 85.912C171.729 85.9133 171.76 85.822 171.791 85.7294C171.822 85.6367 171.852 85.5454 171.883 85.4513" stroke="black" stroke-width="2" stroke-linecap="round"/>
<path d="M137.927 45.1948C137.927 46.2015 138.027 48.2377 138.104 48.8476C138.37 50.9524 138.432 54.3326 138.837 54.3577C139.042 54.3828 139.243 54.4331 139.899 54.459C140.555 54.4849 141.661 54.4849 142.648 54.3326" stroke="black" stroke-width="2" stroke-linecap="round"/>
<path d="M139.297 49.4592C139.348 49.4592 139.398 49.4592 139.876 49.4592C140.354 49.4592 141.259 49.4592 142.496 49.3069" stroke="black" stroke-width="2" stroke-linecap="round"/>
<path d="M143.562 44.5857C143.562 44.6862 143.562 45.4919 143.587 46.7095C143.714 49.5399 143.764 53.8742 143.84 54.2283C143.866 54.4316 143.866 54.6829 143.866 54.6372" stroke="black" stroke-width="2" stroke-linecap="round"/>
<path d="M144.628 49.3068C144.628 49.2566 144.628 49.2063 145.13 49.1804C145.633 49.1545 146.638 49.1545 147.674 49.1545" stroke="black" stroke-width="2" stroke-linecap="round"/>
<path d="M148.283 44.8901C148.333 45.1932 148.536 45.8009 148.613 46.5623C148.696 47.3905 148.892 48.0853 149.044 48.7204C149.232 49.5114 149.449 50.3179 149.653 51.1312C149.878 52.03 149.906 52.9588 149.983 53.8466C150.008 54.0766 150.059 54.2776 150.085 54.7581C150.11 55.2386 150.11 55.9925 150.11 56.7692" stroke="black" stroke-width="2" stroke-linecap="round"/>
<path d="M144.171 56.7693C144.171 56.8698 144.171 58.2283 144.196 60.3086C144.271 61.2833 144.323 61.792 144.323 62.1735C144.323 62.2534 144.323 62.1027 144.323 61.9473" stroke="black" stroke-width="2" stroke-linecap="round"/>
<path d="M144.628 57.0738C145.132 57.0738 146.349 56.9733 147.618 56.6687C148.564 56.4416 149.596 56.4646 150.687 56.54C151.081 56.5672 151.125 56.7661 151.176 56.9192C151.484 57.8431 151.429 59.2029 151.23 60.4959C151.007 61.9398 149.2 61.134 148.337 61.2109C147.675 61.3883 147.218 61.5406 146.764 61.6168C146.46 61.6427 146.008 61.6427 145.542 61.6427" stroke="black" stroke-width="2" stroke-linecap="round"/>
<path d="M84.4594 60.6309C84.4594 61.2154 84.3864 62.4696 84.3306 62.9679C84.2502 63.6865 84.1654 64.4962 84.1096 64.9387C84.0549 65.1592 84.0174 65.3813 83.9991 65.6017C83.9809 65.7128 83.9444 65.8222 83.9069 66.0454" stroke="black" stroke-width="2" stroke-linecap="round"/>
<path d="M87.1113 60.2993C87.1113 61.801 87.0384 63.9414 86.9826 64.6066C86.8903 65.3426 86.8539 66.0442 86.7986 66.447C86.7798 66.7404 86.7798 67.2144 86.7798 67.7029" stroke="black" stroke-width="2" stroke-linecap="round"/>
<path d="M89.8738 60.0781C89.9103 60.5522 89.9468 61.0262 89.9656 62.3461C89.9843 65.8175 89.9843 67.8883 90.0208 67.5032C90.0573 67.264 90.1302 66.9358 90.2053 66.5977" stroke="black" stroke-width="2" stroke-linecap="round"/>
<path d="M93.2994 59.8572C93.4463 61.034 93.5204 62.4981 93.6121 63.7755C93.6309 64.1247 93.6309 64.6352 93.6673 64.8435C93.7038 65.0518 93.7767 64.9424 93.8519 64.8297" stroke="black" stroke-width="2" stroke-linecap="round"/>
<path d="M96.8354 59.0837C96.9459 60.8131 97.0188 61.475 97.0381 64.248C97.0422 64.8289 96.9834 64.9381 96.91 65.0309C96.7271 65.1966 96.4321 65.3082 96.0829 65.3635C95.916 65.3823 95.7702 65.3823 95.6199 65.3823" stroke="black" stroke-width="2" stroke-linecap="round"/>
<path d="M86.6694 65.8242C86.6694 66.0065 86.6694 66.1889 86.6694 67.6685C86.6694 69.1481 86.6694 71.9194 86.6876 73.4018C86.7058 74.8842 86.7423 74.9936 86.7611 75.1411C86.7799 75.2886 86.7799 75.4709 86.7799 75.6588" stroke="black" stroke-width="2" stroke-linecap="round"/>
<path d="M84.9013 69.5813C84.6085 70.9681 84.2383 73.924 84.1466 74.6428C84.018 75.6511 84.0173 76.0986 83.9256 76.5412C83.9068 76.6522 83.9068 76.7616 83.8886 76.7086C83.8704 76.6555 83.8339 76.4368 83.7963 75.9903" stroke="black" stroke-width="2" stroke-linecap="round"/>
<path d="M83.5753 71.7913C83.6847 72.7758 83.7941 73.7604 83.9781 75.0516C84.3862 77.9154 84.6803 79.6722 84.6986 79.9661C84.7171 80.2645 84.7908 80.5926 84.8091 80.9236C84.8273 81.0722 84.8638 81.1816 84.9372 80.9827C85.0107 80.7838 85.1201 80.2733 85.3433 79.7473" stroke="black" stroke-width="2" stroke-linecap="round"/>
<path d="M87.7744 76.1008C87.8108 76.3207 87.8849 76.8346 88.0865 77.7915C88.165 78.1637 88.2893 78.4567 88.418 78.6048C88.4738 78.607 88.5103 78.4611 88.5291 78.3131C88.5479 78.165 88.5479 78.0191 88.5479 77.8688" stroke="black" stroke-width="2" stroke-linecap="round"/>
<path d="M90.5369 71.0176C90.9048 72.895 91.1247 73.9193 91.4015 74.7906C91.6035 75.4263 91.6419 75.9503 91.7336 76.5216C91.7888 77.4255 91.8629 78.2311 91.9546 78.9896C91.9734 79.1559 91.9734 79.3383 91.9734 79.5261" stroke="black" stroke-width="2" stroke-linecap="round"/>
<path d="M88.3268 82.1783C88.3268 83.4602 88.3998 85.2326 88.4556 85.8044C88.5103 86.0437 88.5478 86.2658 88.5843 86.6503C88.6208 86.9254 88.6937 87.363 88.7688 88.0349" stroke="black" stroke-width="2" stroke-linecap="round"/>
<path d="M89.5424 81.4048C89.7987 82.0976 90.0949 83.796 90.4617 86.1104C90.591 86.9261 90.6474 87.4425 90.7573 87.9227C90.7943 88.0337 90.8308 88.1431 90.8496 87.9442C90.8684 87.7453 90.8684 87.2348 90.8684 86.7088" stroke="black" stroke-width="2" stroke-linecap="round"/>
<path d="M91.9734 80.5208C92.3414 82.4711 92.4154 83.133 92.5071 84.1617C92.5463 84.6013 92.5259 85.259 92.4894 85.3966C92.453 85.5342 92.38 85.133 92.2878 84.7623C92.1955 84.3916 92.0861 84.0634 91.9734 83.7253" stroke="black" stroke-width="2" stroke-linecap="round"/>
<path d="M90.0948 73.2278C90.0948 74.2201 90.2407 75.8312 90.3341 78.0091C90.3611 78.6397 90.4264 79.4103 90.4264 80.1114C90.4264 80.2656 90.4264 80.0103 90.4081 79.8059C90.3899 79.6015 90.3534 79.4556 90.3158 79.3053" stroke="black" stroke-width="2" stroke-linecap="round"/>
<path d="M89.9844 69.3604C90.0949 70.6466 90.1678 71.8223 90.1689 75.1318C90.1324 75.6611 90.0595 75.4423 89.9855 75.129C89.9114 74.8158 89.8385 74.4146 89.7634 73.7804" stroke="black" stroke-width="2" stroke-linecap="round"/>
<path d="M90.3159 65.1611C90.3523 66.9258 90.4264 69.1966 90.3346 70.7563C90.2933 71.4595 90.2054 71.7901 90.1324 71.974C90.0595 72.0486 89.9136 72.0851 89.7656 72.0309C89.6175 71.9768 89.4716 71.8309 89.3214 71.5702" stroke="black" stroke-width="2" stroke-linecap="round"/>
<path d="M87.5533 66.8188C87.5533 67.5482 87.5533 68.2775 87.5533 69.6924C87.5533 73.1859 87.5533 75.1086 87.5351 74.6677C87.4804 74.2268 87.4428 73.7826 87.4246 73.3417C87.4064 73.1196 87.3699 72.9008 87.3323 72.5649" stroke="black" stroke-width="2" stroke-linecap="round"/>
<path d="M87.8849 65.2717C88.2893 68.1392 88.5833 69.8332 88.6766 70.4636C88.7099 70.6883 88.8054 70.9061 88.8606 70.9807C88.8429 70.3934 88.7689 69.8409 88.7507 69.51C88.7324 69.3614 88.696 69.252 88.6584 69.1392" stroke="black" stroke-width="2" stroke-linecap="round"/>
<path d="M89.1004 65.2717C89.1004 66.074 89.1004 67.4353 89.0821 68.7989C89.0639 69.2144 89.0274 69.0685 89.0087 68.9022C88.9899 68.7359 88.9899 68.5536 88.9899 68.3657" stroke="black" stroke-width="2" stroke-linecap="round"/>
<path d="M87.9953 59.1943C87.8848 60.4441 87.8119 61.3999 87.7561 62.7801C87.7089 63.9463 87.518 65.336 87.3881 66.0448C87.3334 66.0465 87.224 65.9371 87.1677 65.826C87.1113 65.715 87.1113 65.6056 87.1113 65.4929" stroke="black" stroke-width="2" stroke-linecap="round"/>
<path d="M87.4428 58.4207C87.5533 60.6616 87.4804 62.2108 87.4064 62.7285C87.3715 62.9721 87.1124 63.1346 86.892 63.2086C86.7809 63.2097 86.6715 63.1368 86.5605 63.0263C86.4494 62.9158 86.34 62.77 86.1168 62.5092" stroke="black" stroke-width="2" stroke-linecap="round"/>
<path d="M84.0173 60.1887C84.0173 60.3346 83.908 62.4153 83.724 65.5635C83.6494 66.706 83.6129 66.9248 83.5941 67.6939C83.5753 68.463 83.5753 69.7757 83.4648 71.1283" stroke="black" stroke-width="2" stroke-linecap="round"/>
<path d="M82.6914 70.9072C82.6914 71.4188 82.6184 72.525 82.6538 73.3355C82.661 73.5019 82.8726 73.5217 83.13 73.4675C83.3875 73.4134 83.7522 73.2675 84.0129 73.1194C84.2737 72.9714 84.4196 72.8255 84.5699 72.6752" stroke="black" stroke-width="2" stroke-linecap="round"/>
<path d="M91.6418 62.7302C91.7523 63.2429 91.9711 64.7833 92.1021 65.7115C92.1203 65.8596 92.1568 66.0055 92.1938 66.1353C92.2308 66.2651 92.2673 66.3745 92.4153 66.3767" stroke="black" stroke-width="2" stroke-linecap="round"/>
<path d="M94.1834 61.9565C94.5878 63.8306 94.8453 64.9014 95.0658 65.1594C95.1531 65.2616 95.2862 65.1986 95.3973 65.0704C95.8033 64.2428 96.0243 63.6152 96.1348 63.3947C96.1724 63.2837 96.1724 63.1743 96.1724 63.0615" stroke="black" stroke-width="2" stroke-linecap="round"/>
<path d="M98.6034 58.7522C98.8233 60.1102 99.1183 61.3644 99.1194 61.8269C99.083 61.8473 99.01 61.7379 98.9725 61.6269C98.9349 61.5158 98.9349 61.4064 98.9349 61.2937" stroke="black" stroke-width="2" stroke-linecap="round"/>
<path d="M100.15 57.7578C100.15 57.9401 100.15 58.1225 100.15 58.5263C100.15 58.9302 100.15 59.5501 100.04 60.1888" stroke="black" stroke-width="2" stroke-linecap="round"/>
<path d="M79.3823 152.031C79.6034 151.808 80.8266 151.475 82.0038 151.222C82.7203 151.068 83.6216 150.805 84.4619 150.636C85.4336 150.44 86.4131 150.245 87.3942 150.161C88.3221 150.08 90.0962 149.91 91.5263 149.825C91.9534 149.8 94.4393 149.685 98.0411 149.713C99.8285 149.727 100.492 149.964 101.302 150.187C102.01 150.383 102.67 150.634 103.341 150.885C104.082 151.163 104.681 151.86 105.296 152.42C105.912 152.979 106.021 154.203 106.386 155.073C106.731 155.892 106.973 156.552 107.058 157.223C107.294 159.101 106.976 162.249 106.668 162.92C106.349 163.614 105.971 164.371 105.635 165.071C105.313 165.742 104.242 166.046 103.486 166.468C102.514 167.012 101.336 167.112 100.248 167.39C99.3922 167.609 98.377 167.893 97.5099 168.116C96.7987 168.3 96.1418 168.452 95.0836 168.591C92.3652 168.949 91.2289 168.898 89.999 168.983C89.0837 169.046 88.4339 169.401 86.5112 169.485C85.5643 169.527 84.9151 169.903 84.2164 170.155C83.2948 170.463 82.4017 170.684 81.7306 170.965C81.5622 171.021 81.3964 171.076 81.5606 171.133" stroke="black" stroke-width="2" stroke-linecap="round"/>
<path d="M105.019 166.609C105.13 166.943 105.575 167.611 105.995 168.282C106.387 168.908 106.748 169.622 107.168 170.293C107.56 170.919 107.811 171.633 108.062 172.304C108.321 172.995 108.481 173.643 108.677 174.757C109.182 177.623 108.427 178.335 108.009 178.979C107.578 179.643 106.866 180.068 106.195 180.627C105.636 181.092 104.855 181.241 104.156 181.688C103.398 182.174 102.677 182.303 102.006 182.527C101.334 182.75 100.666 182.973 99.9948 183.197C98.9784 183.536 97.3717 183.587 96.5045 183.867C95.614 184.155 94.4661 184.146 93.5169 184.231C92.7661 184.298 92.1203 184.649 91.4216 185.012C90.6208 185.427 89.2215 185.376 88.1265 185.682C87.3905 185.887 86.7583 186.214 86.0872 186.492C85.7529 186.549 85.4161 186.66 85.0819 186.91C84.9135 187.05 84.7476 187.216 84.5767 187.052" stroke="black" stroke-width="2" stroke-linecap="round"/>
<path d="M104.343 181.042C104.398 181.933 104.51 182.714 104.649 183.385C104.798 184.101 104.956 185.003 105.041 186.148C105.162 187.791 105.07 190.254 104.874 190.953C104.654 191.738 104.457 192.433 104.148 193.104C103.83 193.797 103.341 194.333 102.642 194.78C101.862 195.28 101.162 195.673 100.491 195.954C99.8386 196.227 99.1516 196.4 98.4528 196.624C97.586 196.902 96.8057 197.238 95.6897 197.74C94.8166 198.133 94.0141 198.411 93.2861 198.635C92.6099 198.843 91.9464 199.081 91.1362 199.305C89.9708 199.627 88.2601 199.584 87.5613 199.669C86.6797 199.776 85.8036 199.976 84.8812 200.115C83.8547 200.27 81.7386 200.311 79.9415 200.45C76.9842 200.679 75.6427 200.144 74.6867 199.977C74.0051 199.858 73.3471 199.698 72.676 199.586C71.9362 199.462 71.3363 199.028 70.6652 198.804C69.9942 198.58 69.215 198.468 68.4869 198.301C67.7974 198.144 67.1473 197.634 66.4201 196.796C65.8587 196.149 66.028 195.288 65.9987 192.392C65.9855 191.091 66.2492 190.093 66.3338 189.422C66.4468 188.526 66.3631 187.412 66.1118 186.741C65.8343 186.001 65.2471 185.402 64.0767 184.174C63.3371 183.399 62.7337 182.888 62.2587 182.217C61.7639 181.518 61.3932 180.878 61.2516 180.206C61.0877 179.429 61.0011 178.532 60.9718 177.026C60.9402 175.404 60.78 173.17 60.2479 172.499C59.7159 171.828 59.2719 171.159 58.7952 170.488C58.3677 169.886 58.042 169.148 57.6223 168.477C57.2308 167.851 56.8691 167.138 56.7275 166.327C56.6024 165.612 56.42 163.964 56.5591 162.448C56.7738 160.108 56.3094 159.43 55.919 158.759C55.5134 158.061 54.9153 157.53 54.4109 156.915C53.8296 156.208 53.2933 155.408 53.0973 154.737C52.9076 154.088 52.9012 152.402 53.2347 151.218C53.4454 150.47 53.739 149.879 53.9057 149.208C54.0763 148.521 54.3523 147.868 54.576 147.197C54.8058 146.507 55.1901 145.857 55.5529 145.186C55.8938 144.555 56.0279 143.846 56.3907 143.175C56.7316 142.545 56.9763 141.836 57.396 141.137C57.8334 140.409 57.9817 139.657 58.2623 138.986C58.5353 138.334 58.8195 137.647 59.1001 136.976C59.3671 136.337 59.3791 135.636 59.5752 134.384C60.1423 130.764 59.3255 129.939 59.1018 129.268C58.872 128.578 58.3771 127.818 57.7907 127.229C57.2265 126.662 56.8691 125.917 56.4217 125.246C55.9136 124.484 55.1935 123.628 54.4679 122.761C53.9145 122.1 53.5178 121.393 53.0704 120.722C52.6231 120.051 52.1773 119.382 51.869 118.711C51.5504 118.018 51.3932 117.372 51.2264 116.701C51.0466 115.977 50.9474 115.193 51.0287 112.52C51.0746 111.009 52.5627 110.947 53.2338 110.667C53.8721 110.4 54.5735 110.388 55.2999 110.192C56.2215 109.943 58.0252 109.996 59.2937 110.162C60.1278 110.272 60.7733 110.609 61.4443 110.972C62.1154 111.334 62.784 111.782 63.4551 112.145C64.1044 112.496 64.7947 112.787 65.4658 113.205C66.1927 113.658 66.8055 113.96 67.3375 114.49C67.9042 115.054 68.6486 115.411 69.3197 116.025C69.9916 116.64 70.5488 117.197 71.6916 118.425C72.3607 119.143 72.7271 119.878 73.0354 120.55C73.3657 121.268 73.9 121.889 74.2083 122.56C74.527 123.254 74.9054 123.9 75.3251 124.571C75.7053 125.179 75.8002 125.911 76.1629 126.582C76.5039 127.212 76.638 127.921 76.8617 128.592C77.0854 129.264 77.3082 129.932 77.5319 130.603C77.7556 131.274 77.8679 132.164 78.007 133.06C78.1962 134.279 78.203 135.512 78.2859 136.852C78.3146 137.315 78.5348 137.308 78.7032 137.281C79.41 137.164 80.0428 136.695 80.7139 136.332C81.3633 135.981 82.0536 135.69 83.1419 135.605C83.5685 135.572 83.9537 135.465 84.3718 135.437C84.7431 135.413 87.6149 135.297 91.8031 135.325C93.7941 135.338 94.8955 135.633 95.7945 135.772C96.4628 135.875 97.1341 136.078 97.8052 136.163C98.4986 136.25 99.1449 136.581 99.8159 136.832C100.557 137.11 101.156 137.586 101.827 138.116C102.465 138.62 102.888 139.316 103.308 139.987C103.688 140.594 103.783 141.326 103.868 142.136C104.027 143.664 103.897 146.018 103.506 146.689C103.107 147.376 102.446 147.861 101.832 148.087C101.161 148.423 100.658 148.645 100.324 148.841C100.155 148.925 99.9894 148.981 99.6509 149.038" stroke="black" stroke-width="2" stroke-linecap="round"/>
<path d="M4.72107 71.8813C4.931 72.2065 5.40488 72.9735 5.98729 73.767C6.88197 74.9858 7.36348 75.7488 7.88949 76.7061C8.11024 77.1079 8.70202 78.1606 9.43607 79.5165C9.69202 79.9893 9.97507 79.8487 10.1559 79.7334C10.8164 79.3126 11.4673 78.7636 12.041 78.1243C12.5836 77.5661 13.0001 77.1704 13.3443 76.912C13.5511 76.7842 13.8231 76.663 14.5112 76.567" stroke="black" stroke-linecap="round"/>
<path d="M7.91565 75.5071C8.21793 75.3031 8.98938 74.6799 9.6574 74.1017C9.93432 73.8385 10.2133 73.5734 10.5174 73.2981C10.6841 73.1534 10.876 72.9986 11.2385 72.7657" stroke="black" stroke-linecap="round"/>
<path d="M9.13684 67.6016C9.73082 68.9357 11.0417 71.587 11.6974 72.8358C12.227 73.6549 12.7 74.4244 13.2833 75.2154C13.4672 75.5531 13.6994 76.0745 13.9385 76.6116" stroke="black" stroke-linecap="round"/>
<path d="M6.33066 85.2574C6.68452 85.1692 8.48273 84.5095 10.1178 83.5723C11.441 82.8138 12.9281 81.7605 13.8187 81.0832C14.7051 80.4091 15.3686 79.8326 15.9245 79.3042C16.2015 79.0411 16.8871 78.6643 17.7801 78.232C18.129 78.0419 18.2665 77.9113 18.6596 77.4544" stroke="black" stroke-linecap="round"/>
<path d="M13.8445 81.281C13.8961 81.3969 13.9476 81.5127 14.0903 81.8331C14.2329 82.1534 14.465 82.6748 14.6505 83.0182C14.836 83.3615 14.9677 83.5111 15.2598 84.0163" stroke="black" stroke-linecap="round"/>
<path d="M11.1995 86.8757C11.5533 86.7876 12.3723 86.5639 13.0652 86.0461C13.9571 85.3796 14.9932 84.766 16.112 84.0933C17.1751 83.454 17.673 83.0828 18.0567 82.9109C18.4068 82.754 19.1425 84.3068 19.8023 86.0817C20.0233 86.6762 19.7029 86.737 19.4701 86.7355C18.5586 86.7295 17.6857 86.7938 15.7802 87.6053C14.7424 88.0473 13.9399 88.878 13.3545 89.4909C13.2213 89.6304 13.0776 89.7541 13.0183 89.9204C12.7544 90.6601 13.5818 91.49 14.1278 92.124C14.4491 92.4972 14.6975 92.9577 15.0986 93.1998C16.894 94.2833 18.1929 91.0565 18.8734 90.3665C19.5297 89.6179 19.9204 89.1642 20.1582 88.8133C20.2844 88.6509 20.4218 88.5203 20.7368 87.8878" stroke="black" stroke-linecap="round"/>
<path d="M16.0449 69.3638C16.5108 68.946 17.8386 68.0772 18.3679 67.4892C19.0238 66.7607 19.6785 65.9939 19.9798 65.8587C20.8828 66.9195 21.9826 69.0969 23.8592 73.0876C24.2572 73.9085 24.389 74.058 24.6029 74.3877" stroke="black" stroke-linecap="round"/>
<path d="M21.4963 74.5088L23.841 79.775" stroke="black" stroke-linecap="round"/>
<path d="M19.9369 82.9856C20.4826 82.7427 21.5878 81.9729 22.5117 81.3838C23.3002 80.7877 25.1075 79.8422 26.3697 79.1056C26.6317 78.9532 26.9581 78.8079 27.2163 78.4826" stroke="black" stroke-linecap="round"/>
<path d="M23.1779 68.0811C23.4801 67.8771 24.6296 67.2244 25.5024 66.8001C25.652 66.8365 25.8096 67.044 26.3034 68.0778C26.7972 69.1115 27.6226 70.9652 28.4729 72.8751" stroke="black" stroke-linecap="round"/>
<path d="M26.3773 59.2947C26.8009 59.8023 27.4826 61.0406 28.2874 62.3292C29.2583 63.8837 30.6459 66.22 32.8442 69.6846C34.1443 71.7334 35.6336 74.024 36.2587 74.9088C36.3781 75.1017 36.4813 75.3335 36.6003 75.5276C36.7194 75.7218 36.8512 75.8713 37.2299 76.1276" stroke="black" stroke-linecap="round"/>
<path d="M35.5153 59.8535C36.2383 61.4773 37.8625 64.8326 39.4439 67.9408C39.7598 68.5616 40.0748 68.4792 40.3634 68.3865C41.4521 67.8681 41.9487 67.5061 42.3472 67.294C42.528 67.1788 42.6654 67.0482 43.0585 66.5913" stroke="black" stroke-linecap="round"/>
<path d="M38.7539 65.3528C38.8627 65.3043 39.1363 65.1825 39.5606 65.0283C39.7672 64.9711 39.9562 64.9563 40.1895 64.8882C40.4229 64.82 40.6949 64.6989 41.1486 64.0763" stroke="black" stroke-linecap="round"/>
<path d="M39.2985 58.5898C39.6862 59.4605 40.7844 61.6344 41.8837 63.8794C42.5708 65.0521 42.9902 65.8477 43.2805 66.2779C43.4133 66.5007 43.5164 66.7324 43.7876 66.8977" stroke="black" stroke-linecap="round"/>
<path d="M42.5713 62.3911C42.6257 62.3669 42.6801 62.3427 42.8442 62.2696C43.0082 62.1966 43.2802 62.0755 43.6472 61.7018" stroke="black" stroke-linecap="round"/>
<path d="M41.4759 55.9377C42.2246 57.6194 43.9012 61.0923 44.7061 62.3809C45.4065 63.5024 46.3317 64.7765 47.0406 66.1446C47.1995 66.4283 47.3312 66.5778 47.465 66.7297C47.5988 66.8815 47.7306 67.0311 47.9445 67.3607" stroke="black" stroke-linecap="round"/>
<path d="M46.1507 57.5364C46.2386 57.1481 48.0036 54.2048 48.5329 53.6168C48.6621 53.4733 48.8098 53.3536 48.9493 53.221C49.0888 53.0884 49.2263 52.9579 49.9676 54.3967C50.709 55.8356 52.0501 58.8479 53.3538 61.7759" stroke="black" stroke-linecap="round"/>
<path d="M52.2157 57.4448C52.2701 57.4206 52.3245 57.3964 52.4083 57.2897C52.4922 57.1829 52.6038 56.9944 52.73 56.832C52.8562 56.6696 52.9936 56.539 53.3001 56.331" stroke="black" stroke-linecap="round"/>
<path d="M50.495 49.5872C51.3727 51.5585 53.3627 55.7353 54.0335 56.9447C54.9936 58.6757 55.7862 59.8474 56.5068 61.2419C56.8107 61.705 57.1012 62.2066 57.4145 62.837C57.573 63.1198 57.7306 63.3273 58.3789 63.7454" stroke="black" stroke-linecap="round"/>
<path d="M32.8179 92.3949C33.1202 92.191 33.8916 91.5677 34.6412 90.9532C35.5725 90.1897 36.3816 89.6178 37.3491 88.9756C37.5516 88.8412 37.7594 88.8613 37.8811 88.9817C38.0963 89.9018 38.2742 91.7745 38.1712 93.6861C38.0391 94.2013 37.8102 94.8586 37.4877 95.7846" stroke="black" stroke-linecap="round"/>
<path d="M38.2155 92.0951C38.6237 91.9827 39.4959 91.8742 40.3951 91.824C40.7216 91.8186 41.1798 91.8228 41.5103 91.8176C41.8408 91.8124 42.0298 91.7977 42.3894 91.7091" stroke="black" stroke-linecap="round"/>
<path d="M40.7678 95.1655C40.8193 95.2814 41.0007 95.6886 41.3139 96.319C41.63 96.8093 41.9757 97.2885 42.318 97.8355C42.4769 98.117 42.6059 98.4067 42.7387 98.7051" stroke="black" stroke-linecap="round"/>
<path d="M39.5637 102.222C39.8659 102.018 40.477 101.327 41.1168 100.69C41.9093 99.901 42.8271 99.5071 43.533 99.0182C44.4295 98.5139 44.9547 98.0697 45.4638 97.7379C45.7266 97.5851 45.9986 97.464 46.3656 97.0903" stroke="black" stroke-linecap="round"/>
<path d="M48.124 86.8421C47.6634 86.8368 46.792 86.9472 45.975 86.8892C45.5022 86.8556 45.0827 86.5156 44.7219 86.2219C44.3357 85.9076 44.0725 85.2847 43.8538 84.647C43.5372 83.724 44.1721 82.8552 44.7014 82.2672C45.2931 81.61 46.1409 81.0657 46.9243 80.6801C47.1164 80.5856 47.3199 80.6081 47.5104 80.6632C48.3491 80.9058 48.8199 81.9006 49.468 82.8373C49.7049 83.1797 49.8974 83.7262 49.9611 84.0891C50.1257 85.0255 49.1586 85.6074 48.6292 86.1954C48.4897 86.328 48.3523 86.4586 48.2128 86.5912C48.0733 86.7237 47.9359 86.8543 47.6209 87.4868" stroke="black" stroke-linecap="round"/>
<path d="M45.9736 92.2167C46.1131 91.9443 46.8297 91.4864 47.5535 90.674C48.5847 89.5167 49.8195 88.8932 51.7303 87.9363C52.3263 87.5668 52.7702 87.2282 53.212 86.8917C53.4075 86.7341 53.5449 86.6035 53.8514 86.3956" stroke="black" stroke-linecap="round"/>
<path d="M49.9644 88.7572C50.2231 89.3382 50.8532 90.4607 51.3143 91.2723C51.8327 91.9197 52.232 92.3729 52.4832 92.7154C52.6027 92.9083 52.7059 93.14 52.8121 93.3787" stroke="black" stroke-linecap="round"/>
<path d="M55.6794 76.7474C55.3485 77.0336 54.7253 78.287 54.5103 79.3682C54.3535 80.1571 54.6678 80.9797 55.3684 82.5577C55.6158 83.115 56.1739 83.1866 56.5938 83.2447C57.4279 83.36 58.8995 82.6756 59.7653 82.0114C60.0862 81.7653 59.9471 81.1596 59.9832 80.7239C60.0171 80.316 59.5028 79.1236 58.7182 77.5809C58.3158 76.7898 57.643 76.7166 57.184 76.5708C56.9656 76.5261 56.7766 76.5408 56.4888 76.6332C56.201 76.7255 55.8202 76.8951 55.4278 77.0698" stroke="black" stroke-linecap="round"/>
<path d="M57.5001 71.5198C57.8676 72.0524 58.6614 73.2407 59.3206 74.2797C60.0277 75.3944 60.9662 76.3498 61.6302 77.2489C62.2566 78.0971 62.897 79.2047 63.4796 80.0717C64.169 81.0278 64.6179 81.7387 64.8792 82.2524C65.0115 82.4764 65.1433 82.6259 65.279 82.78" stroke="black" stroke-linecap="round"/>
<path d="M61.8756 77.354C61.9844 77.3056 62.2581 77.1837 62.6837 76.9595C62.8917 76.8322 63.0835 76.6774 63.3055 76.5081C63.5274 76.3388 63.7736 76.1598 64.357 75.8285" stroke="black" stroke-linecap="round"/>
<path d="M66.2743 73.9235C66.0644 73.5983 65.281 72.1361 65.11 70.8692C65.0487 70.415 65.2372 69.9702 65.3535 69.5682C65.6471 68.5536 67.4659 68.6225 68.2828 68.6805C69.1961 68.7453 69.9913 68.9705 70.7824 68.9705C71.1657 68.9706 71.5756 68.8288 71.9769 68.4766C72.9747 67.6008 72.4442 66.3429 72.4073 65.5169C72.384 65.3159 72.3611 65.1179 72.3377 64.9169C72.3144 64.7159 72.2914 64.5178 72.2763 63.8894" stroke="black" stroke-linecap="round"/>
</svg>
