<svg width="210" height="202" viewBox="0 0 210 202" fill="none" xmlns="http://www.w3.org/2000/svg">
<path d="M122.758 80.1641C124.044 80.1641 126.64 79.9931 127.678 79.6044C128.783 79.1904 129.75 78.6974 130.788 78.3515C131.854 77.9961 133.03 77.5728 134.156 77.315C135.936 76.9073 138.56 76.8835 142.179 76.7526C143.844 76.6924 145.039 76.3652 147.367 76.3199C148.771 76.2925 149.962 76.7073 151.215 76.8809C152.403 77.0456 153.331 77.7438 154.369 78.1325C155.474 78.5465 156.269 79.3816 156.961 80.4194C157.653 81.4572 158.343 82.4912 158.992 83.529C159.58 84.469 159.726 85.6008 159.814 86.4689C159.954 87.8431 159.213 84.0563 158.736 83.0185C158.235 81.9263 156.969 81.3769 156.061 80.3417C154.788 78.8911 152.061 78.8685 150.059 78.4383C148.191 78.0368 146.609 78.0911 144.708 77.876C140.667 77.4187 139.094 78.0911 137.792 78.3489C136.719 78.5614 135.549 79.0395 133.993 79.2131C132.681 79.3595 131.833 80.7653 130.838 81.7151C129.918 82.5935 129.413 83.7868 128.936 84.8247C128.443 85.8973 128.029 86.8964 127.64 87.6777C127.214 88.5339 126.733 85.8703 126.387 84.8324C126.045 83.8045 124.836 83.1908 123.585 82.7995C123.13 82.6574 122.427 82.7555 122.074 82.3279C121.722 81.9003 121.722 81.0452 121.85 80.6902C122.159 79.8353 124.474 80.9415 126.202 81.0698C126.747 81.1103 126.562 81.4546 126.132 81.5868C125.702 81.719 125.018 81.719 124.794 81.6762C123.643 81.4566 127.938 81.5453 128.37 81.8032C128.581 81.9291 128.63 82.232 128.546 82.4925C128.462 82.7529 128.205 83.0094 127.945 83.0561C127.684 83.1027 127.428 82.9317 127.21 82.7153C126.992 82.4989 126.821 82.2424 126.904 82.1102C126.987 81.9781 127.329 81.9781 128.2 81.719" stroke="black" stroke-width="2" stroke-linecap="round"/>
<path d="M173.03 86.1244C172.859 86.1244 172.515 85.9533 172.169 85.5659C171.497 84.8139 172.854 83.5382 173.288 82.5004C173.722 81.4635 174.238 80.4286 174.927 79.348C175.832 77.9297 177.171 77.49 178.424 76.368C179.382 75.5103 180.54 75.3288 181.578 74.7251C182.656 74.0978 183.65 73.5149 185.671 73.2117C191.62 72.3193 193.403 72.9085 194.922 72.6935C196.593 72.4568 197.643 73.0796 198.681 73.4255C199.747 73.7809 200.752 74.3752 201.79 74.7212C202.828 75.0671 203.862 75.4118 205.2 75.715C206.683 76.0508 207.492 76.1037 207.967 76.3615C208.211 76.4941 208.355 76.7904 208.444 77.0935C208.532 77.3967 208.532 77.7388 208.19 77.915C207.848 78.0912 207.163 78.0912 206.768 78.2195C205.705 78.5644 205.598 80.1591 205.121 81.1969C204.629 82.2695 204.214 83.4397 204.041 84.5242C203.891 85.4592 202.919 82.7608 202.573 81.723C202.227 80.6851 201.882 79.6512 201.236 78.6561C200.568 77.6292 199.467 76.8007 198.429 76.0207C197.468 75.2986 195.16 75.2407 193.506 74.9829C190.273 74.4792 184.696 74.8935 183.401 75.2394C182.023 75.6074 180.809 75.93 179.772 76.3187C178.626 76.7478 177.7 77.6559 176.618 78.5641C176.036 79.0524 178.032 76.4587 179.246 75.5452C180.132 74.8786 181.317 74.6395 182.355 74.2055C183.44 73.752 184.686 73.5149 185.939 73.169C189.957 72.0595 197.213 73.4216 198.162 74.4167C199.041 75.3371 200.234 75.8419 201.272 76.5338C202.295 77.2157 203.085 78.3452 203.607 79.383C203.73 79.6282 203.779 79.9 203.909 79.9039C204.301 79.9156 204.385 78.4462 204.514 77.0637C204.562 76.5415 205.676 76.9666 206.887 76.9692C207.747 76.971 205.168 76.1062 204.13 75.7603C203.613 75.588 203.092 75.4144 202.704 75.6268C202.743 77.5704 203.261 78.6043 203.392 80.7175C203.434 81.1982 203.52 81.4548 203.608 81.7191" stroke="black" stroke-width="2" stroke-linecap="round"/>
<path d="M203.09 86.1242C203.09 86.982 203.261 88.7104 203.564 89.791C203.905 91.005 204.038 92.0791 204.169 93.5471C204.224 94.1632 204.471 94.6731 204.601 97.1996C204.936 103.737 204.559 108.407 204.429 109.01C204.119 110.453 203.955 111.514 203.824 113.197C203.731 114.402 203.349 115.572 203.091 116.741C202.688 118.568 202.66 120.843 202.529 122.526C202.435 123.731 202.053 125.072 201.795 126.286C201.568 127.356 201.105 128.358 200.716 129.396C200.287 130.541 199.55 131.467 198.989 132.505C198.462 133.481 198.083 134.577 197.606 135.615C197.096 136.727 196.098 137.687 195.361 138.725C194.7 139.655 194.196 140.796 193.719 141.834C193.227 142.907 192.813 143.906 192.166 144.944C191.437 146.114 190.568 147.016 189.661 148.053C188.824 149.011 188.065 150.125 187.285 151.163C186.536 152.16 185.562 153.406 184.651 154.489C183.863 155.426 182.882 156.173 180.554 158.371C179.36 159.498 178.218 160.231 177.18 161.011C176.183 161.761 175.108 162.564 174.071 163.128C172.21 164.141 168.889 163.776 167.08 164.08C163.239 164.723 161.981 163.693 159.134 163.563C157.713 163.497 156.71 162.916 153.521 162.785C151.994 162.722 151.009 161.879 148.466 161.706C146.994 161.605 146.085 160.413 145.048 159.936C143.936 159.425 142.976 158.77 142.153 157.994C141.337 157.224 139.954 156.443 138.871 155.532C137.981 154.784 137.016 154.194 135.978 153.502C134.94 152.81 134.248 151.949 133.644 150.912C133.017 149.833 132.263 148.84 131.356 148.017C130.44 147.186 129.931 145.989 129.067 145.167C128.276 144.414 127.599 143.398 126.864 142.403C126.137 141.418 124.754 140.205 123.582 138.991C122.709 138.086 122.069 137.179 121.465 136.141C120.847 135.078 119.654 134.328 118.831 133.333C118.009 132.34 116.803 131.649 116.023 130.699C115.243 129.749 114.383 128.887 113.648 127.849C112.748 126.577 111.361 125.518 110.582 124.48C109.859 123.519 109.459 122.408 108.595 121.37C107.875 120.506 107.646 119.299 106.996 118.261C106.391 117.293 106.003 116.189 105.442 115.151C104.899 114.147 104.448 113.079 103.887 112.042C103.36 111.066 103.152 109.97 102.806 108.932C102.46 107.894 102.287 106.518 102.072 105.261C101.859 104.018 101.597 102.973 101.466 100.645C101.364 98.8196 101.079 96.7539 100.948 93.9954C100.88 92.5538 100.043 91.5712 99.6538 90.5334C99.2247 89.3877 98.3167 88.4616 97.8399 87.4238C97.3291 86.3121 96.5028 85.352 95.5958 84.7443C94.6052 84.0807 93.7404 83.3619 92.5315 83.0587C90.6849 82.5955 89.5942 83.6158 88.6419 84.1354C87.7158 84.6406 86.6608 86.202 86.0052 87.4588C85.4221 88.5767 85.702 93.1675 85.9599 95.9674C86.0602 97.0568 86.6505 98.0392 86.9964 99.077C87.3424 100.115 87.687 101.149 88.033 102.187C88.3789 103.224 88.7235 104.258 89.2846 105.296C89.8274 106.3 90.4494 107.368 90.9689 108.534C91.7715 110.335 92.5225 111.514 92.9565 112.552C93.3902 113.589 93.9062 114.624 94.2522 115.662C94.6076 116.728 95.2019 117.733 95.6761 118.814C96.3414 120.33 97.446 121.102 98.1806 122.054C98.3506 122.275 98.6536 122.315 98.914 122.316C99.4378 122.319 99.9518 121.973 100.426 121.585C101.346 120.834 101.421 119.558 101.724 117.707C101.768 114.753 101.512 112.558 101.08 111.999C100.905 111.696 100.82 111.354 100.732 111.001" stroke="black" stroke-width="2" stroke-linecap="round"/>
<path d="M98.6588 97.7852C98.6588 97.8707 98.6588 97.9562 98.5733 98.1286C98.4877 98.3009 98.3167 98.5574 98.2286 97.92C98.1405 97.2825 98.1405 95.7432 98.0977 95.0786C98.055 94.4139 97.9695 94.6704 97.8827 94.9309C97.3854 96.4228 97.7933 98.5574 97.4966 99.6821C96.9343 101.813 94.2587 99.169 93.3064 98.9941C92.8845 98.9166 92.9578 100.454 93.0433 101.878C93.1318 103.351 94.5074 104.258 95.5453 104.866C96.7107 105.548 97.3605 106.163 97.792 106.164C98.2208 106.166 98.226 105.303 98.4839 104.957C98.5999 104.801 98.9127 104.953 99.1304 105.125C100.21 105.979 101.074 107.368 101.551 108.406C101.851 108.923 102.113 109.444 102.2 109.704C102.201 109.708 102.116 109.451 102.028 108.41" stroke="black" stroke-width="2" stroke-linecap="round"/>
<path d="M98.1405 91.3069C97.9695 91.3095 97.2802 90.2755 96.5883 89.2377C95.8964 88.1999 95.0361 87.337 93.9982 86.6451C93.4813 86.3004 92.9604 86.0387 92.4434 85.9519C91.4134 85.7789 90.8018 87.4147 90.3678 88.4525C89.9457 89.4618 89.6772 90.6953 89.5463 92.4665C89.4275 94.0743 89.1589 95.9661 89.1563 99.1133C89.1559 99.6092 89.4129 99.3452 89.5437 99.0848C90.0415 98.0941 90.2784 97.013 90.6243 95.9752C90.7966 95.4582 90.8847 94.5953 90.9275 93.5601C90.9702 93.1234 91.0558 92.8669 91.1439 92.3434" stroke="black" stroke-width="2" stroke-linecap="round"/>
<path d="M151.263 108.41C150.488 108.84 149.625 109.7 148.891 110.695C148.163 111.681 147.293 112.551 146.644 113.589C146.056 114.529 145.909 115.66 145.348 116.698C144.805 117.702 144.183 118.77 143.664 119.765C143.108 120.83 141.851 121.361 140.944 122.184C140.037 123.007 139.089 123.953 138.352 124.99C138.221 125.251 138.135 125.507 138.048 125.768C137.962 126.028 137.876 126.285 137.529 127.067" stroke="black" stroke-linecap="round"/>
<path d="M178.731 106.596C179.247 106.767 180.281 107.456 181.276 108.191C182.271 108.925 183.043 110.39 183.954 111.515C184.934 112.727 185.899 113.846 186.503 114.884C187.13 115.962 187.713 116.956 188.059 117.994C188.414 119.06 189.008 120.066 189.354 121.103C189.7 122.141 189.874 123.346 190.132 124.472C190.392 125.852 190.563 127.58 190.523 128.877C190.395 129.055 190.138 128.969 189.874 128.881" stroke="black" stroke-linecap="round"/>
<path d="M177.695 114.111C178.21 114.196 179.586 115.225 180.5 116.439C181.186 117.351 181.665 118.511 182.141 119.549C182.704 120.586 183.048 121.364 183.35 121.881C183.481 122.141 183.567 122.398 184.173 123.18" stroke="black" stroke-linecap="round"/>
<path d="M164.997 115.666C164.912 115.666 164.826 115.666 164.739 115.794C163.836 117.128 164.308 119.806 164.478 120.844C164.823 121.882 165.168 122.66 165.556 123.091C165.772 123.266 166.028 123.351 166.293 123.44" stroke="black" stroke-linecap="round"/>
<path d="M171.475 114.888C171.475 114.974 171.475 115.059 171.475 116.429C171.475 117.798 171.475 120.449 171.347 121.9C171.219 123.351 170.962 123.522 170.439 123.958" stroke="black" stroke-linecap="round"/>
<path d="M151.522 88.4565C151.177 88.1999 150.833 87.166 150.186 86.1709C149.539 85.175 148.159 85.1758 147.121 84.6148C146.024 84.022 144.531 84.1393 142.252 83.8361C136.03 83.0085 134.943 84.4813 133.905 84.87C132.867 85.5179 132.004 86.3782 131.054 87.1582C130.794 87.3318 130.537 87.5028 130.273 87.4199" stroke="black" stroke-linecap="round"/>
<path d="M152.299 87.9382C152.299 88.1092 152.299 88.5394 152.214 89.1859C152.046 90.4577 150.491 91.1307 149.453 91.8226C148.453 92.4894 147.381 92.7736 146.215 93.0768C144.578 93.5026 140.587 93.38 138.051 93.1222C136.963 93.0115 135.979 92.4316 134.941 92.0429C133.796 91.6138 133.041 90.5347 132.306 89.5396C132.09 89.322 131.833 89.1509 131.53 88.8918C131.227 88.6327 130.885 88.2906 130.532 87.4199" stroke="black" stroke-linecap="round"/>
<path d="M151.263 88.7156C151.006 89.0602 149.972 89.4049 148.806 89.7081C147.169 90.1338 145.914 90.0112 143.762 90.2263C137.531 90.1849 136.498 89.8402 135.245 89.7094C134.94 89.6666 134.684 89.5811 134.419 89.493" stroke="black" stroke-linecap="round"/>
<path d="M140.12 84.3103C140.12 84.4813 139.949 84.826 139.647 85.343C139.431 85.8599 139.343 86.8084 139.471 87.9732C139.599 88.4539 139.856 88.7104 140.638 89.2338" stroke="black" stroke-linecap="round"/>
<path d="M144.986 84.2032C145.051 84.3991 145.313 84.7919 145.559 85.1862C145.783 85.5432 145.838 85.9732 145.856 88.2466C145.86 88.83 145.709 89.0258 145.561 89.2059C145.382 89.3536 145.184 89.4855 144.987 89.6002C144.889 89.6499 144.791 89.6824 144.494 89.9127" stroke="black" stroke-linecap="round"/>
<path d="M175.896 87.2549C175.896 87.3524 175.896 87.4498 175.88 87.4513C175.545 87.4818 175.863 86.6662 176.092 86.2233C176.405 85.6185 176.518 85.1897 176.699 84.7954C176.893 84.3731 177.207 84.0084 177.568 83.7121C177.934 83.4113 178.355 83.2524 178.668 82.9413C178.975 82.635 179.438 82.6617 179.914 82.612C180.338 82.5677 180.718 82.3664 181.112 82.3167C181.543 82.2623 181.997 82.1695 182.392 82.1198C182.791 82.0694 183.179 81.9726 185.55 81.9554C186.497 81.9485 187.018 82.1026 187.412 82.2502C187.832 82.4075 188.199 82.5948 188.593 82.8242C188.988 83.0538 189.38 83.1854 189.774 83.3985C190.156 83.6048 190.562 83.7761 190.972 83.9892C191.424 84.224 191.841 84.3667 192.235 84.5961C192.645 84.8343 193.022 85.0558 193.417 85.3668C193.811 85.6139 194.106 85.7124 194.303 85.7778C194.402 85.8108 194.499 85.8433 194.403 86.0736" stroke="black" stroke-linecap="round"/>
<path d="M176.29 87.2549C176.713 87.2549 177.567 87.3199 178.206 87.435C178.895 87.5594 179.439 87.4842 180.285 87.5335C182.427 87.6581 183.967 87.5177 184.618 87.4685C187.437 87.2554 188.685 87.2549 189.381 87.1569C189.823 87.0947 190.591 86.9596 191.267 86.8779C191.84 86.8085 192.235 86.7627 192.629 86.681C193.023 86.5993 193.416 86.4024 193.81 86.2872C193.909 86.2705 194.007 86.2705 194.106 86.238C194.205 86.2055 194.302 86.1405 194.304 86.0736" stroke="black" stroke-linecap="round"/>
<path d="M177.373 90.6019C177.568 90.6993 177.961 91.0271 178.404 91.29C179 91.6434 180.932 92.2045 182.358 92.4885C183.101 92.6367 183.966 92.6356 184.377 92.6853C185.016 92.7628 185.738 92.7026 186.312 92.6529C186.89 92.6027 187.411 92.5057 187.969 92.456C188.435 92.4145 188.888 92.3088 189.723 92.2591C190.375 92.2203 190.758 92.0785 191.153 91.8826C191.562 91.6794 191.94 91.4563 192.35 91.0793C192.83 90.6388 193.056 90.2101 193.237 89.8158C193.431 89.3935 193.81 89.0288 194.025 88.6346C194.247 88.2264 194.468 87.8475 194.697 87.4533C194.828 87.2569 194.927 87.059 195.025 86.8626C195.091 86.7637 195.188 86.6663 195.289 86.4674" stroke="black" stroke-linecap="round"/>
<path d="M125.692 70.7172C126.407 70.7172 128.44 70.8471 129.217 70.9303C129.435 70.9536 129.791 71.0125 130.12 70.9963C130.464 70.9793 129.271 70.7507 128.337 70.5213C127.269 70.2588 126.776 70.0941 126.693 69.9961C126.384 69.6305 128.826 69.6344 130.397 69.7486C131.488 69.8279 132.449 70.1266 133.382 70.29C133.66 70.3386 133.955 70.3234 134.057 70.3397C134.317 70.3811 132.949 70.3234 132.289 70.2417C131.765 70.1768 131.24 70.1266 130.73 70.0286C130.159 69.9187 129.435 69.8647 129.056 69.8475C128.654 69.8292 130.021 70.1915 130.415 70.3067C130.802 70.4196 131.202 70.5853 131.76 70.7167C131.893 70.748 131.99 70.7822 131.991 70.7827C132.315 70.8904 131.206 70.5538 130.714 70.4224C130.221 70.2907 129.828 70.16 129.515 69.8327C129.446 69.7601 129.562 69.6363 129.661 69.5699C130.066 69.2966 130.968 69.339 131.678 69.4208C132.222 69.4833 133.136 69.6344 133.762 69.7323C134.029 69.774 134.353 69.8312 134.599 69.8312C134.845 69.8312 133.963 69.7328 131.591 69.2101C130.565 68.9839 129.797 68.7169 129.172 68.552C129.04 68.5172 128.942 68.4866 128.973 68.4698C129.407 68.2356 129.923 68.65 130.562 68.8134C130.803 68.875 132.014 69.0742 133.785 69.4188C135.126 69.6798 136.09 69.7328 136.583 69.7166C136.719 69.7121 136.621 69.6678 136.522 69.6511C136.03 69.568 135.374 69.4375 133.609 69.0299C130.684 68.3545 130.319 67.9944 130.221 67.8472C130.175 67.779 130.317 67.6675 130.432 67.6011C131.135 67.1952 132.545 67.5986 133.949 68.0067C134.898 68.2827 136.327 68.7071 137.34 68.9733C138.352 69.2396 138.904 69.3371 139.14 69.371C139.376 69.405 139.278 69.3725 139.163 69.3395C138.919 69.2697 138.687 69.2406 137.971 69.1269C134.716 68.6101 133.898 68.0928 133.438 67.8634C133.306 67.7978 133.144 67.7325 133.109 67.699C132.8 67.4033 134.319 68.0908 134.943 68.272C135.675 68.4847 136.386 68.7799 137.303 69.1077C138.649 69.5889 139.143 69.8627 139.57 70.0439C139.672 70.087 139.767 70.1581 139.768 70.159C140.085 70.3702 138.593 69.4414 137.868 69.0122C137.208 68.6217 136.817 68.3566 136.276 67.9949C135.639 67.5696 139.072 68.648 139.963 68.9281C140.613 69.1323 141.177 69.3056 141.587 69.4203C141.769 69.4712 141.899 69.5025 140.991 69.1619C140.084 68.8213 138.135 68.1066 136.789 67.641C134.774 66.9435 133.897 66.7146 133.618 66.5675C133.492 66.501 133.437 66.3878 133.452 66.3539C133.586 66.0571 135.065 67.2324 136.335 67.9584C138.33 69.0994 139.109 69.1737 139.782 69.3548C140.476 69.5413 140.85 69.7978 141.146 69.8805C141.652 70.0214 139.741 68.9807 139.082 68.7327C138.566 68.5386 138.163 68.2897 137.884 68.1912C137.561 68.0778 138.619 68.3212 140.034 68.6795C141.312 69.0031 143.755 69.4926 145.092 69.7929C146.933 70.2064 147.348 70.4209 147.446 70.5686C147.61 70.813 146.76 70.3569 146.366 70.1438C146.178 70.0425 145.062 69.6058 143.422 68.9335C142.15 68.4116 141.283 68.1263 140.118 67.7C139.088 67.3233 138.034 66.945 137.326 66.6167C137.179 66.5482 137.048 66.5178 137.046 66.501C137.003 66.141 137.863 66.7462 139.477 67.3978C140.695 67.8899 143.003 68.7957 144.143 69.248C145.282 69.7003 145.185 69.6678 145.037 69.6186C144.357 69.3919 143.84 69.1756 143.184 68.8646C142.232 68.4132 140.176 67.703 139.032 67.1911C138.943 67.1513 139.078 67.0434 139.193 67.01C139.713 66.8589 140.324 67.2049 140.98 67.4022C141.416 67.5333 141.899 67.7305 143.348 68.1863C144.543 68.5619 146.65 69.2918 147.786 69.6762C148.923 70.0606 149.02 70.0931 149.021 70.1098C149.057 70.5078 147.91 69.7013 147.269 69.373C146.728 69.0959 145.909 68.7838 144.762 68.3566C143.622 67.9321 142.886 67.5681 142.951 67.4205C143.292 66.6394 144.59 67.7955 145.147 68.0091C146.046 68.3537 146.526 68.7799 146.953 69.059C147.392 69.3453 147.643 69.6009 147.742 69.6993C147.974 69.9306 146.762 69.276 146.007 68.8326C145.243 68.3841 143.847 67.6045 142.355 66.8667C141.8 66.5925 141.674 66.4863 141.591 66.3873C141.508 66.2884 141.476 66.191 141.508 66.1245C141.578 65.9777 141.9 65.9596 142.292 65.9754C142.844 65.9975 143.213 66.3524 143.718 66.6945C145.938 68.1984 146.953 68.6815 147.347 69.0098C147.516 69.1505 147.741 69.2396 147.84 69.371C148.026 69.6182 147.089 68.7523 146.432 67.7512C146.214 67.4183 146.135 67.1744 146.086 66.978C146.061 66.8806 146.069 66.7816 146.166 66.7314C146.264 66.6812 146.459 66.6812 146.64 66.7624C147.362 67.0851 147.608 67.827 148.345 68.7755C149.399 70.1331 150.236 70.8166 150.252 70.6202C150.295 70.116 149.388 69.0516 148.712 68.2095C148.391 67.8095 148.137 67.4372 148.038 67.2403C148.008 67.1805 148.134 67.1734 148.265 67.2059C149.246 67.4482 150.331 68.5496 150.956 69.091C151.371 69.4511 151.614 69.7318 151.598 69.782C151.336 70.617 150.729 68.2582 150.516 67.8477C150.397 67.6182 150.4 67.3388 150.449 67.1744C150.561 66.7952 151.251 68.0869 152.643 70.2826C152.92 70.7202 152.991 70.8137 153.025 70.669C153.257 69.6619 152.96 69.2426 152.96 68.996C152.96 68.7438 153.189 69.5349 153.189 69.6664C153.191 70.0487 152.468 69.2741 152.369 69.2081C152.368 69.2071 152.465 69.2721 152.564 69.3381C152.663 69.404 152.761 69.469 152.96 69.6344" stroke="black" stroke-linecap="round"/>
<path d="M175.404 72.0952C175.339 72.0952 175.143 72.0952 174.946 72.0952C174.683 72.0952 175.599 72.1936 176.647 72.455C176.881 72.5136 176.977 72.5539 176.978 72.5706C177.004 72.8673 175.512 71.7408 174.765 71.096C174.67 71.0139 174.715 70.8509 174.763 70.784C174.812 70.717 174.91 70.717 175.025 70.7658C175.608 71.0124 175.927 71.601 176.142 71.8816C176.38 72.1939 175.701 70.7879 175.584 70.1446C175.564 70.0297 175.536 69.9315 175.568 69.8813C175.6 69.8311 175.697 69.8311 175.796 69.8636C176.22 70.0029 176.55 70.6481 176.896 71.0931C176.967 71.1851 177.075 71.2407 177.125 71.1767C177.49 70.7127 176.979 69.8685 177.011 69.2769C177.034 68.8553 177.241 70.1894 177.29 70.8622C177.309 71.1129 177.373 71.4366 177.389 71.7162C177.409 72.0669 177.406 70.9159 177.389 69.9989C177.375 69.2704 177.666 68.2954 177.815 67.9105C178.453 66.2642 177.997 71.5026 177.963 71.6694C177.731 72.827 178.29 69.5062 178.487 68.8491C178.593 68.499 178.848 68.1271 179.028 67.88C179.646 67.0332 179.178 70.6147 179.128 71.191C179.109 71.4088 179.046 71.667 179.046 71.8319C179.046 72.2903 180.119 68.9018 180.703 67.3721C180.75 67.2478 180.72 67.1102 180.736 66.9945C180.797 66.5575 180.753 69.205 180.703 70.0412C180.686 70.325 180.589 70.5517 180.572 70.6673C180.502 71.1523 181.696 68.6636 182.375 67.5035C182.454 67.3688 182.523 67.2736 182.556 67.3371C182.862 67.9166 182.232 68.7758 181.559 69.7459C181.424 69.9397 181.312 70.026 181.262 70.0275C180.871 70.039 181.539 69.0455 182.258 67.9661C182.542 67.5397 183.072 67.0846 183.307 66.931C184.03 66.458 182.623 69.3684 182.181 70.4015C182.09 70.6146 182.098 70.7151 182.098 70.7165C182.098 71.1831 182.523 69.5377 182.802 68.9476C183.179 68.1498 184.031 67.439 184.589 66.9291C184.752 66.78 184.948 66.5865 185.049 66.5348C185.149 66.4831 185.149 66.5806 185.133 66.6795C185.013 67.4102 184.135 68.6124 183.74 69.2547C183.646 69.4062 183.511 69.5653 183.461 69.584C183.122 69.7088 183.901 68.7837 184.457 68.193C184.95 67.6702 185.736 67.2411 186.31 66.9616C186.483 66.8776 186.462 67.0393 186.413 67.1712C186.205 67.7286 185.547 68.3505 185.052 68.9107C184.883 69.1026 184.658 69.3044 184.527 69.5018C184.309 69.8287 185.212 68.4884 185.689 67.9302C186.27 67.2493 186.592 67.0758 186.658 66.9931C187.023 66.5358 185.58 68.4155 185.036 68.8782C184.425 69.3975 183.903 69.8301 183.837 69.8965C183.486 70.2502 184.75 68.7856 186.225 67.8987C187.401 67.1921 188.298 66.9438 188.43 66.9596C188.848 67.0097 187.746 68.2816 187.038 69.1233C186.903 69.2842 186.76 69.4019 186.774 69.3876C187.349 68.8125 189.563 68.0316 190.056 67.9597C190.331 67.9197 189.548 68.2551 188.733 68.7601C186.845 69.9317 185.576 70.5211 185.657 70.3247C185.895 69.7532 186.689 69.3074 187.344 68.9141C188.492 68.2259 189.41 67.9952 190.1 67.7816C190.438 67.6768 189.319 68.1891 187.503 68.8605C186.374 69.2778 185.482 69.2719 183.32 69.3551C182.886 69.3718 182.789 69.4038 182.755 69.3556C182.443 68.9135 183.736 68.4214 184.506 68.1586C185.58 67.7924 187.279 67.6654 187.787 67.7141C187.946 67.7293 187.874 67.8603 187.792 67.9592C187.458 68.3614 186.307 69.1026 185.626 69.4541C185.228 69.659 186.392 68.3919 187.099 67.8638C187.622 67.4739 188.003 67.3376 188.151 67.3371C188.511 67.3359 187.843 68.3505 187.431 68.8295C187.054 69.2672 189.242 67.6693 190.135 67.3868C190.262 67.3465 190.365 67.3701 190.382 67.4188C190.551 67.8829 189.451 68.4175 188.908 68.8944C188.726 69.0545 188.497 69.1085 188.415 69.1745C187.992 69.5116 189.544 68.5848 190.004 68.3555C190.292 68.212 190.562 68.1576 190.661 68.2226C191.186 68.5673 189.679 69.1735 189.22 69.5343C189.109 69.6209 189.055 69.7307 189.071 69.7646C189.204 70.0614 190.554 69.016 192.101 68.3889C192.697 68.147 193.154 68.1576 193.335 68.2063C193.403 68.2246 193.353 68.3525 193.272 68.4514C192.691 69.1545 191.321 69.4038 190.86 69.5353C190.76 69.5638 190.664 69.6007 190.679 69.6175C191.279 70.298 193.737 69.0121 194.337 68.9121C195.033 68.7962 193.093 69.2404 192.419 69.4363C192.338 69.4598 192.497 69.5673 192.612 69.6007C193.226 69.7784 194.3 69.4373 194.877 69.3556C194.992 69.3392 195.09 69.3389 195.075 69.3714C194.856 69.854 194.142 70.0919 193.944 70.338C193.351 71.0784 196.925 69.8311 197.549 69.8798C197.588 70.026 196.869 70.3213 196.372 70.5526C196.37 70.5536 196.468 70.4886 196.568 70.4217" stroke="black" stroke-linecap="round"/>
<path d="M160.909 86.2189C160.764 86.1465 160.619 86.074 160.545 85.8917C160.033 84.6431 162.297 83.1488 163.066 82.6339C163.918 82.0628 165.077 81.9015 167.233 81.863C168.446 82.1189 170.049 82.266 171.702 83.4684C171.962 83.8011 172.034 84.0185 172.329 84.6817" stroke="black" stroke-linecap="round"/>
<path d="M160.736 85.6799C160.671 85.6799 160.638 85.5499 160.67 85.3043C160.732 84.8377 161.227 84.5655 161.621 84.2865C162.048 83.9838 162.408 83.6796 162.802 83.433C163.159 83.2096 163.589 83.0889 163.983 82.9078C164.391 82.7206 164.835 82.6282 165.832 82.5465C169.092 82.2791 169.495 82.6282 169.89 82.7424C170.284 82.9885 170.677 83.2504 171.071 83.497C171.17 83.5467 171.267 83.5792 171.466 83.8095" stroke="black" stroke-width="2" stroke-linecap="round"/>
<path d="M160.343 87.5502C160.375 87.7461 160.506 88.1388 160.637 88.5331C160.786 88.9787 160.801 89.517 160.851 89.9929C160.904 90.5052 160.998 91.092 161.113 91.9573C161.48 94.711 160.967 95.128 160.835 95.5223C160.704 95.9165 160.508 96.3093 160.327 96.7036C160.14 97.111 159.917 97.4906 159.654 97.8848C159.392 98.2791 159.13 98.6719 158.851 99.0661C158.549 99.4929 158.21 99.7547 157.981 100.149C157.71 100.614 157.259 101.034 156.98 101.412C156.704 101.787 156.179 102.247 155.734 102.708C155.385 103.07 155.029 103.495 154.716 103.89C154.405 104.282 153.881 104.545 153.47 104.891C153.025 105.265 152.633 105.858 152.354 106.252C152.051 106.68 151.682 107.039 151.402 107.433C151.151 107.787 151.024 108.22 150.909 108.615C150.798 108.996 150.794 110.311 150.892 111.174C150.939 111.587 151.154 111.961 151.367 112.355C151.568 112.726 151.711 113.142 151.974 113.537C152.237 113.931 152.564 114.194 152.958 114.505C153.338 114.804 153.745 115.046 154.139 115.293C154.496 115.516 154.926 115.572 155.548 115.687C157.1 115.975 158.364 115.802 159.16 115.688C159.604 115.624 159.947 115.344 160.504 114.853C160.942 114.468 161.227 114.097 161.539 113.753C161.855 113.405 162.212 113.244 162.441 113.096C162.559 113.02 162.735 113.046 162.851 113.095C163.3 113.283 163.524 113.832 163.869 114.226C164.183 114.586 164.703 115.044 165.165 115.342C165.579 115.609 165.952 115.769 166.427 115.884C167.211 116.074 168.665 115.999 169.496 115.705C169.913 115.558 170.185 115.18 170.481 114.819C170.777 114.458 171.169 114.196 171.514 113.917C171.896 113.608 172.252 113.014 172.466 112.654C172.582 112.458 172.745 112.292 172.925 112.242C173.349 112.125 173.565 112.946 174.007 113.405C174.359 113.77 174.811 113.963 175.205 114.145C175.628 114.339 175.992 114.588 176.959 114.605C177.501 114.614 177.863 114.097 178.225 113.72C178.571 113.36 178.782 112.95 179.029 112.555C179.259 112.188 179.406 111.768 179.538 111.374C179.669 110.98 179.8 110.587 179.915 110.176C180.045 109.715 180.095 109.307 180.096 107.606C180.097 106.924 179.802 106.551 179.523 106.157C179.221 105.73 178.753 105.533 178.358 105.303C178.008 105.098 177.571 104.942 177.177 104.778C176.783 104.613 176.39 104.417 175.914 104.04C175.468 103.687 175.044 103.204 174.83 102.81C174.624 102.428 174.453 102.023 174.305 101.628C174.148 101.209 173.961 100.841 173.748 100.447C173.533 100.05 173.404 99.5618 173.239 99.1675C173.078 98.7841 172.976 98.3805 172.845 97.9862C172.713 97.592 172.583 97.1992 172.451 96.805C172.32 96.4107 172.254 96.0179 172.156 95.6237C172.058 95.2292 171.992 94.8367 171.86 94.3607C171.68 93.707 171.697 92.7694 171.647 92.3752C171.622 92.1744 171.565 90.7465 171.581 88.6798C171.589 87.6433 171.762 87.1269 171.859 86.6657C171.958 86.239 171.991 85.8777 172.056 85.6813C172.089 85.5824 172.122 85.4849 172.254 85.1876" stroke="black" stroke-linecap="round"/>
<path d="M128.02 88.702C127.93 88.9108 127.87 89.5137 127.855 92.5015C127.85 93.4075 128.08 93.762 128.201 94.124C128.321 94.486 128.442 94.9063 128.562 95.2991C128.674 95.6639 128.803 96.0218 128.924 96.3838C129.045 96.7458 129.165 97.1064 129.3 97.4684C129.445 97.854 129.617 98.1911 129.752 98.5531C129.897 98.9387 130.128 99.2758 130.28 99.6378C130.431 99.9995 130.671 100.36 130.897 100.722C131.108 101.06 131.244 101.445 131.454 101.807C131.682 102.198 132.027 102.53 132.808 103.327C133.222 103.749 133.623 104.066 133.985 104.339C134.413 104.661 134.888 105.032 135.25 105.242C135.626 105.461 135.973 105.665 136.35 105.875C136.786 106.119 137.148 106.297 137.525 106.508C137.949 106.745 138.323 106.899 138.685 107.051C139.037 107.198 139.408 107.292 139.934 107.397C140.75 107.561 141.185 107.563 141.891 107.668C143.816 107.957 144.198 107.534 144.56 107.413C144.932 107.289 145.402 107.082 145.931 106.961C146.459 106.841 146.82 106.72 147.197 106.585C147.663 106.417 148.145 106.359 148.538 106.148C148.921 105.943 149.26 105.666 149.697 105.425C150.076 105.216 150.495 105.093 150.888 104.898C151.244 104.72 151.61 104.491 152.047 104.25C152.44 104.033 152.786 103.709 153.148 103.436C153.495 103.175 153.811 102.895 154.142 102.548C154.461 102.214 154.805 101.901 155.361 101.314C155.73 100.924 155.949 100.545 156.251 100.153C156.634 99.6555 156.793 99.2794 157.05 98.9025C157.377 98.4213 157.697 98.014 157.879 97.637C158.109 97.1582 158.42 96.8389 158.662 96.462C158.931 96.0412 159.084 95.6638 159.205 95.3018C159.337 94.9036 159.536 94.4887 159.656 94.1267C159.777 93.7647 159.897 93.3444 160.003 92.8174C160.208 91.7955 160.109 90.6996 160.184 89.8346C160.229 88.7933 160.29 88.0747 160.365 87.3046C160.38 86.99 160.38 86.4531 160.38 85.8999" stroke="black" stroke-linecap="round"/>
<path d="M172.492 87.4365C172.372 87.526 172.252 87.8867 172.236 88.5488C172.225 89.014 172.462 89.483 172.507 90.1008C172.538 90.5211 172.673 90.9889 172.763 91.4123C172.842 91.7856 173.004 92.135 173.125 92.497C173.249 92.8689 173.456 93.2197 173.577 93.5817C173.709 93.9799 173.908 94.3947 174.103 94.7568C174.293 95.1071 174.569 95.4794 174.842 95.8414C175.103 96.1892 175.323 96.5641 175.565 96.9261C175.816 97.3025 176.137 97.6488 176.393 97.9959C176.647 98.3395 176.95 98.6431 177.267 99.0051C177.559 99.3392 177.764 99.7277 178.545 100.525C178.959 100.947 179.36 101.264 179.722 101.461C180.111 101.673 180.445 101.959 180.732 102.244C181.038 102.548 181.439 102.741 181.801 102.968C182.129 103.173 182.524 103.284 182.886 103.51C183.223 103.721 183.608 103.857 183.97 103.992C184.356 104.137 184.932 104.249 185.64 104.324C187.127 104.481 188.151 104.43 188.941 104.355C189.424 104.309 189.905 104.189 190.313 104.084C190.738 103.973 191.111 103.918 191.473 103.723C191.847 103.52 192.346 103.197 192.753 102.969C193.196 102.722 193.642 102.593 194.004 102.367C194.387 102.127 194.817 101.839 195.479 101.268C195.954 100.858 196.534 100.424 196.821 100.107C197.111 99.7879 197.469 99.5506 197.785 99.1886C198.089 98.8409 198.373 98.4659 198.629 98.089C198.943 97.6274 199.277 97.2908 199.443 96.9288C199.621 96.541 199.85 96.2062 200.135 95.6191C200.346 95.1855 200.573 94.8503 200.708 94.4883C200.858 94.0887 201.115 93.7656 201.236 93.3286C201.349 92.9192 201.477 92.5002 201.597 92.1382C201.718 91.7762 201.838 91.4155 201.959 90.9635C202.08 90.5108 202.2 90.15 202.245 89.563C202.278 89.1427 202.471 88.7942 202.517 88.3572C202.572 87.8281 202.652 87.1672 202.697 86.5051C202.727 86.0697 202.863 85.363 202.938 84.7271C202.954 84.2783 202.983 83.9122 203.029 83.5977C203.044 83.3726 203.044 83.0147 203.044 82.6459" stroke="black" stroke-linecap="round"/>
<path d="M144.006 132.002C144.076 131.885 144.405 131.743 144.9 131.52C145.29 131.344 145.607 131.178 145.914 131.083C146.277 130.972 146.738 130.753 147.233 130.718C147.619 130.69 147.986 130.588 148.318 130.518C148.648 130.448 149.071 130.4 149.965 130.364C150.399 130.347 150.768 130.234 151.168 130.176C151.939 130.063 152.276 130.046 152.571 129.893C152.915 129.715 153.266 129.622 153.561 129.457C153.902 129.267 154.185 129.127 154.539 128.974C154.919 128.809 155.363 128.774 155.846 128.562C156.166 128.422 156.447 128.279 156.742 128.173C157.095 128.046 157.367 127.879 157.826 127.643C158.148 127.477 158.684 127.384 159.064 127.254C159.368 127.149 159.629 126.96 159.924 126.841C160.274 126.701 160.619 126.653 160.972 126.558C161.326 126.464 161.608 126.37 161.962 126.276C162.316 126.181 162.598 126.087 162.881 125.993C163.165 125.899 163.447 125.804 163.73 125.698C164.051 125.578 164.366 125.451 164.649 125.357C164.96 125.253 165.331 125.144 165.826 125.027C166.197 124.939 166.487 124.885 166.84 124.85C167.225 124.811 167.687 124.72 168.042 124.65C168.441 124.571 168.961 124.532 169.303 124.496C169.63 124.462 171.304 124.366 172.284 124.437C172.621 124.461 172.991 124.555 173.333 124.59C173.678 124.626 174.051 124.696 174.487 124.743C175.033 124.803 175.535 124.979 175.96 125.061C176.31 125.129 176.596 125.191 176.938 125.297C177.256 125.395 177.516 125.544 177.799 125.697C178.065 125.841 178.504 125.944 178.859 126.063C179.142 126.157 179.424 126.251 179.719 126.346C180.134 126.479 180.556 126.676 180.839 126.77C181.13 126.867 181.404 127.076 181.746 127.311C182.015 127.497 182.323 127.688 182.606 127.889C182.86 128.069 183.171 128.207 183.384 128.466C183.724 128.88 183.573 129.785 183.574 131.219C183.574 131.806 183.292 132.071 183.114 132.413C182.97 132.692 182.867 133.037 182.608 133.414C182.36 133.777 182.067 134.284 181.772 134.687C181.558 134.979 181.125 135.393 180.758 135.701C180.407 135.996 180.205 136.36 179.922 136.714C179.692 137.002 179.357 137.232 179.109 137.539C178.768 137.96 178.437 138.105 178.154 138.293C177.871 138.482 177.589 138.763 177.318 139.012C177.071 139.238 176.858 139.495 176.529 139.836C176.196 140.181 175.682 140.554 175.326 140.838C175.071 141.044 174.761 141.098 174.384 141.333C173.936 141.613 173.63 141.664 173.347 141.758C173.064 141.852 172.735 141.946 172.428 142.099C172.137 142.244 171.745 142.3 171.203 142.336C170.84 142.359 170.473 142.512 169.827 142.595C168.681 142.742 167.809 142.583 167.271 142.548C165.15 142.409 164.817 142.465 164.498 142.395C164.151 142.318 163.734 142.253 163.261 142.194C162.674 142.122 162.389 142.065 162.094 141.982C161.741 141.883 161.353 141.9 161.034 141.829C160.687 141.753 159.896 141.688 159.337 141.617C158.962 141.57 158.642 141.429 158.23 141.334C157.861 141.25 157.581 141.146 157.111 140.934C156.742 140.769 156.264 140.604 155.755 140.427C155.395 140.302 155.06 140.227 154.753 140.074C154.474 139.935 154.188 139.803 153.905 139.65C153.639 139.506 153.293 139.356 152.986 139.131C152.682 138.909 152.374 138.602 151.996 138.354C151.596 138.091 151.289 137.777 150.947 137.541C150.616 137.312 150.182 136.952 149.875 136.739C149.595 136.546 149.263 136.316 148.944 136.091C148.572 135.829 148.249 135.585 148.025 135.337C147.798 135.088 147.472 134.902 147.177 134.677C146.841 134.422 146.459 134.102 146.128 133.841C145.87 133.638 145.563 133.535 145.28 133.346C145.007 133.164 144.714 133.04 144.501 132.91C144.279 132.774 145.041 132.569 145.524 132.356C145.864 132.207 146.126 132.026 146.409 131.932C146.692 131.837 148.234 131.79 149.178 131.719C149.641 131.685 150.155 131.602 150.543 131.519C151.342 131.349 151.64 131.319 151.923 131.225C152.222 131.125 152.559 131.107 152.842 130.954C153.108 130.81 153.454 130.753 153.761 130.659C154.047 130.571 154.42 130.471 155.103 130.435C155.467 130.416 155.787 130.258 156.153 130.164C156.453 130.087 156.73 129.976 157.084 129.893C157.43 129.812 157.72 129.764 158.12 129.681C158.699 129.561 158.993 129.552 159.369 129.469C159.832 129.367 160.124 129.339 160.454 129.257C160.981 129.124 161.372 129.127 161.773 129.045C162.237 128.949 162.621 128.915 163.48 128.88C163.903 128.862 164.411 128.75 164.872 128.691C165.564 128.603 165.897 128.562 166.333 128.526C166.44 128.517 166.533 128.491 167.62 128.479C168.706 128.467 170.782 128.467 171.922 128.479C173.062 128.49 173.202 128.514 173.892 128.526C174.582 128.538 175.819 128.538 176.502 128.549C177.28 128.563 178.005 128.608 178.995 128.62C179.918 128.631 180.909 128.726 181.38 128.808C181.754 128.874 182.087 128.938 182.629 128.974C182.969 128.996 183.172 129.127 183.29 129.197C183.698 129.441 183.597 130.49 183.468 130.87C183.371 131.156 183.128 131.435 182.832 131.601C182.548 131.76 182.326 132.025 182.043 132.155C181.739 132.294 181.477 132.519 181.194 132.638C180.919 132.753 180.676 132.92 180.405 133.074C180.07 133.264 179.781 133.392 179.498 133.557C179.203 133.728 178.932 133.887 178.649 133.981C178.358 134.078 178.084 134.287 177.801 134.405C177.525 134.52 177.236 134.594 176.952 134.688C176.662 134.785 176.387 134.947 176.045 135.042C175.747 135.124 175.468 135.23 175.185 135.324C174.902 135.419 174.62 135.513 174.337 135.607C174.032 135.709 173.701 135.796 173.406 135.878C173.075 135.971 172.642 135.961 172.251 136.02C171.772 136.092 171.508 136.126 170.317 136.161C169.197 136.194 167.027 136.173 165.862 136.161C164.064 136.143 163.025 136.056 162.566 136.02C161.572 135.943 159.915 135.914 159.514 135.879C159.065 135.839 158.501 135.773 158.147 135.737C157.351 135.657 156.121 135.632 155.638 135.596C154.991 135.548 154 135.49 153.399 135.454C153.024 135.432 152.657 135.325 152.256 135.266C151.787 135.197 151.268 135.183 150.853 135.125C150.512 135.076 149.996 135.042 149.581 134.972C149.208 134.909 148.652 134.83 148.226 134.712C147.836 134.605 147.542 134.571 147.259 134.477C146.961 134.377 146.623 134.359 146.34 134.265C146.057 134.17 145.775 134.076 145.48 133.993C145.146 133.9 144.926 133.817 144.796 133.746C144.737 133.699 144.69 133.629 144.736 133.558C144.782 133.487 144.922 133.417 145.208 133.345" stroke="black" stroke-linecap="round"/>
<path d="M167.054 129.174C167.054 129.781 167.1 131.011 167.113 132.468C167.116 132.851 167.054 133.271 167.077 133.836C167.095 134.282 167.5 134.475 167.818 134.805C168.061 135.058 168.396 135.089 168.679 135.183C169.042 135.304 169.573 135.207 169.892 135.113C170.293 134.994 170.729 134.949 171 134.748C171.271 134.548 171.342 134.195 171.437 133.853C171.519 133.555 171.625 133.276 171.661 132.641C171.696 132.428 171.72 131.376 171.685 129.903C171.65 129.409 171.58 129.433 171.508 129.457" stroke="black" stroke-width="0.5" stroke-linecap="round"/>
<path d="M166.983 129.174C166.983 129.221 166.983 130.038 166.995 131.275C167.004 132.282 167.1 133.273 167.113 133.908C167.12 134.273 166.936 134.546 166.713 134.829C166.5 135.098 166.207 135.23 165.83 135.313C165.092 135.475 164.746 135.254 164.439 135.184C164.148 135.117 163.874 134.995 163.59 134.842C163.324 134.698 163.025 134.642 162.742 134.547C162.459 134.453 162.177 134.312 161.729 133.877C161.454 133.61 161.422 133.276 161.339 132.538C161.171 131.041 161.327 130.209 161.315 130.527C161.296 131.06 161.21 131.718 161.174 132.06C161.14 132.387 160.998 132.801 160.88 133.12C160.769 133.422 160.268 133.321 159.985 133.416C159.512 133.573 158.783 133.393 158.5 133.216C158.244 133.056 157.935 132.922 157.652 132.78C157.519 132.713 157.369 132.686 157.239 132.615C156.951 132.459 156.897 132.074 156.744 131.791C156.6 131.525 156.544 131.226 156.461 130.931C156.438 130.85 156.449 130.755 156.414 130.73C156.379 130.705 156.309 130.752 156.261 130.823C156.065 131.113 156.095 131.482 155.966 131.789C155.846 132.076 155.602 132.354 155.319 132.497C154.77 132.772 153.764 132.521 153.469 132.427C153.387 132.4 153.293 132.38 153.221 132.333C153.15 132.286 153.103 132.216 153.114 132.156C153.125 132.097 153.195 132.05 153.313 131.991C153.431 131.932 153.594 131.862 153.762 131.79" stroke="black" stroke-width="0.5" stroke-linecap="round"/>
<path d="M161.115 129.598C161.302 129.692 161.398 129.926 161.386 130.244C161.374 130.375 161.351 130.445 161.327 130.516C161.304 130.587 161.28 130.657 161.468 130.729" stroke="black" stroke-width="0.5" stroke-linecap="round"/>
<path d="M174.972 129.457C174.972 129.761 174.925 130.514 174.889 130.94C174.83 131.644 174.877 132.637 175.053 132.897C175.225 133.15 175.513 133.273 175.818 133.463C176.36 133.799 176.738 133.299 177.021 133.204C177.312 133.107 177.586 132.898 177.869 132.78C178.145 132.665 178.435 132.498 178.706 132.274C178.956 132.067 178.978 131.721 179.06 131.321C179.237 130.465 179.002 130.072 178.943 129.729C178.931 129.646 178.931 129.553 178.919 129.47C178.908 129.387 178.884 129.317 178.86 129.103" stroke="black" stroke-width="0.5" stroke-linecap="round"/>
<path d="M171.508 133.628C171.578 133.627 171.743 133.839 171.837 133.945C172.09 134.232 173.289 134.052 173.981 133.97C174.241 133.77 174.569 133.395 174.771 133.064C174.806 132.992 174.853 132.922 175.043 132.709" stroke="black" stroke-width="0.5" stroke-linecap="round"/>
<path d="M101.5 92.5998C101.571 92.1736 101.856 91.1778 102.142 90.212C102.462 89.1305 102.64 87.9656 102.963 86.9291C103.381 85.5875 103.428 84.5392 103.605 83.5027C103.842 82.1246 103.856 77.5793 103.643 74.8286C103.573 73.9272 103.072 73.1164 102.786 72.2588C102.5 71.4011 102.357 70.4053 102.144 69.4748C102.093 69.2537 102.001 69.0476 102.106 68.8324C102.648 67.7208 103.852 67.4029 104.709 67.0464C105.736 66.6197 106.207 65.5484 107.065 64.9766C108.039 64.3272 108.85 63.1242 109.777 62.016C110.484 61.1706 111.133 60.2674 111.848 59.3744C112.062 59.1239 112.345 58.8412 112.596 58.5896C112.848 58.338 113.06 58.1259 113.493 57.6934" stroke="black" stroke-width="2" stroke-linecap="round"/>
<path d="M120.131 81.2497C119.919 80.9649 119.065 80.6801 118.207 80.3942C117.78 80.2518 117.279 80.179 116.744 80.1436C116.27 80.1123 112.388 79.9648 106.714 79.9295C104.06 79.913 102.652 79.5365 101.397 79.3588C99.9467 79.1533 98.9347 79.6779 97.5438 79.786C96.569 79.8618 95.9366 80.89 95.2213 81.7101C94.2919 82.7466 93.8636 83.6011 93.2222 84.4588C93.0777 84.674 93.007 84.886 92.9342 85.1044" stroke="black" stroke-width="2" stroke-linecap="round"/>
<path d="M93.5767 82.3205C93.3647 81.965 92.7929 81.254 92.507 80.361C92.3387 79.8353 92.2918 77.6991 92.2564 74.8092C92.2409 73.5403 92.0776 69.8634 92.1129 64.5107C92.1268 62.4062 92.2918 61.837 92.1858 61.2663C92.028 60.4169 90.5828 60.4087 89.7958 59.8015C89.0817 59.2506 88.724 58.34 88.4028 57.4823C88.0607 56.5688 87.6533 55.6288 87.3674 54.6983C87.0673 53.7215 87.0108 52.5579 86.7603 51.2752C86.3484 49.1666 86.5097 46.0135 86.7228 43.9909C86.8175 43.0918 87.2935 42.1374 87.5794 41.2069C87.8449 40.3427 88.2914 39.3534 88.6855 38.423C89.0659 37.5247 89.5763 36.7108 90.1128 35.8532C90.6298 35.0266 91.1482 34.141 91.6825 33.2834C91.8305 33.0459 92.0733 32.8561 92.1472 32.6409C92.434 31.8055 91.508 30.9288 91.4705 29.1824C91.4464 28.058 91.932 27.0741 92.326 26.2164C92.7481 25.2977 94.5618 23.5149 96.1068 22.3607C97.1472 21.5835 98.7077 20.4355 101.028 19.1152C102.077 18.5184 102.995 18.3625 104.03 18.0766C105 17.8088 105.993 17.5059 106.886 17.22C108.064 17.0048 109.347 16.8634 112.08 16.6129C113.957 16.5765 117.42 16.5765 120.988 16.7906" stroke="black" stroke-width="2" stroke-linecap="round"/>
<path d="M123.558 15.9341C123.344 15.5807 123.485 14.4393 124.019 13.5816C124.598 12.6527 125.267 11.7282 127.937 9.19798C129.486 7.73043 130.976 6.65709 132.118 5.8369C133.847 4.59589 134.903 4.51559 135.761 3.97915C136.616 3.44458 138.818 2.87521 140.614 2.44369C141.626 2.20042 142.754 2.01432 143.685 1.80125C144.566 1.59944 145.679 1.37188 148.096 1.19413C156.085 0.606565 156.961 1.51321 157.996 1.7991C158.901 2.04893 159.745 2.36981 160.602 2.6557C161.46 2.94159 162.456 3.22641 163.386 3.54764C164.368 3.88641 165.313 4.29716 166.348 4.58305C167.253 4.83288 168.238 5.01242 169.168 5.40324C170.013 5.75805 170.88 6.1517 171.738 6.75881C172.631 7.39116 173.45 7.72356 174.486 8.57801C175.336 9.27956 176.234 9.79224 177.092 10.5418C177.884 11.2336 178.804 11.7196 179.484 12.5398C180.328 13.5579 181.018 14.4307 181.625 15.2884C182.284 16.2187 183.087 17.0005 183.909 17.8582C184.637 18.6171 185.087 19.5703 185.837 20.6057C186.495 21.5151 187.229 22.3543 187.8 23.2119C188.372 24.0696 188.942 24.9241 189.478 25.7817C189.979 26.5816 190.582 27.3525 191.049 28.1374C191.586 29.04 192.227 29.8495 192.726 30.7072C193.244 31.5982 193.867 32.4193 194.474 33.3123C195.194 34.3706 195.795 35.2033 196.331 36.0609C196.831 36.8608 197.294 37.7731 197.652 38.6307C198.001 39.4648 198.223 40.3428 198.687 41.2005C199.154 42.065 199.294 43.1268 199.58 44.0198C199.945 45.1601 199.936 46.339 200.044 47.3745C200.094 47.8475 200.223 51.3073 200.188 56.3388C200.17 58.8389 199.726 59.8305 199.616 65.4872C199.58 67.3443 200.15 68.1823 200.436 69.04C200.722 69.8977 201.007 70.7521 201.258 71.8582C201.407 72.5181 201.435 73.1099 201.65 73.2191C202.697 73.7533 201.508 71.0476 201.295 69.9041C201.082 68.7601 200.939 67.7626 200.653 66.6918C200.366 65.6191 200.082 64.7645 199.441 63.9068C198.828 63.0877 198.583 61.9805 198.332 61.0875C198.188 60.5729 198.225 60.0511 198.118 59.8712C197.445 58.7395 198.793 64.0321 199.329 65.4701C199.769 66.6481 200.078 67.5399 200.507 68.3269C200.604 68.505 200.861 68.5421 200.971 68.4372C201.614 67.8194 200.724 66.6918 200.439 65.8342C200.153 64.9765 199.726 63.9807 199.19 62.3039C198.817 61.1369 198.654 60.4794 198.582 60.2641C198.369 59.6249 199.08 61.8992 199.366 63.1851C199.606 64.268 199.936 65.3984 200.222 66.4691C200.374 67.0364 200.437 67.6127 200.402 67.8643C200.255 68.9149 199.868 65.6939 199.582 64.7634C199.277 63.7701 199.011 62.4817 198.761 60.8059C198.681 60.2742 198.724 59.6335 198.724 59.6592C198.724 61.549 199.294 62.9699 199.58 64.1488C199.899 65.4636 200.15 66.6105 200.259 68.1095C200.343 69.279 200.652 70.039 200.546 70.4684C200.44 70.5444 200.228 70.3324 200.083 70.1172C199.938 69.9019 199.868 69.6899 199.581 69.0432" stroke="black" stroke-width="2" stroke-linecap="round"/>
<path d="M151.611 31.5669C151.185 31.3549 150.331 30.7831 149.473 30.3195C148.667 29.8838 147.761 29.5711 146.903 29.0346C146.07 28.5135 144.553 28.4275 143.441 27.9639C142.314 27.4937 140.981 27.3568 139.271 27.1062C136.227 26.6602 135.34 27.4253 134.447 27.9949C133.316 28.7167 133.267 29.8495 133.017 30.9202C132.771 31.9701 132.766 35.533 132.979 37.7741C133.065 38.6741 133.55 39.4862 133.871 40.5569C134.416 42.3717 135.691 44.4116 136.688 46.6913C137.228 47.9258 138.116 49.1915 139.258 50.5502C139.76 51.4807 140.471 52.7592 141.364 53.8706C141.615 54.1212 141.897 54.4039 142.403 55.1234" stroke="black" stroke-width="2" stroke-linecap="round"/>
<path d="M150.755 30.7105C150.329 30.5692 149.474 29.8582 148.19 29.0005C146.903 28.1409 146.048 27.5711 145.19 26.8944C144.395 26.2674 143.478 25.9307 142.62 25.3589C141.742 24.7737 137.584 23.4423 134.912 22.7516C134.351 22.6067 133.627 22.5728 132.879 22.6435C131.795 22.7458 130.916 23.9948 130.021 24.7475C129.194 25.4423 128.843 26.6374 127.951 28.4191C127.347 29.6248 127.13 31.1303 126.806 34.0095C126.21 39.3161 126.841 43.1997 126.983 43.8047C127.395 45.5548 127.982 47.5513 128.268 48.6595C128.502 49.5684 128.839 50.5494 129.16 51.4798C129.478 52.4019 129.909 53.192 130.195 54.0496C130.481 54.9073 130.625 55.9031 130.838 57.0113C130.98 57.475 131.124 57.9054 131.337 58.156C131.479 58.1945 131.691 58.0532 131.909 57.6934" stroke="black" stroke-width="2" stroke-linecap="round"/>
<path d="M151.397 31.7811C151.042 31.5691 150.331 30.856 149.58 30.0005C148.495 28.7641 147.761 28.072 146.512 27.0741C145.07 25.9208 143.692 24.7185 142.799 24.2163C141.702 23.5993 140.908 22.9325 138.665 21.8274C136.755 20.8866 135.34 20.9323 134.092 20.8242C131.923 20.6363 128.774 20.7867 127.809 21.2503C126.83 21.72 125.776 21.8574 124.846 22.3917C123.681 23.0604 123.275 25.2753 122.561 27.3482C122.096 28.6965 121.703 30.1322 121.595 31.704C121.496 33.1402 121.275 34.5608 121.167 38.1553C121.131 39.3448 120.988 42.5314 121.023 46.9558C121.043 49.4868 121.343 50.622 121.629 51.6928C121.933 52.8316 122.2 53.8343 122.486 54.6919C122.814 55.6777 123.057 56.8324 123.165 57.8678C123.261 58.791 123.699 59.7576 123.985 60.6881C124.117 61.1186 124.271 61.6165 124.378 61.8681C124.414 61.837 124.414 61.4837 124.485 61.1957C124.556 60.9076 124.697 60.6956 125.057 60.263" stroke="black" stroke-width="2" stroke-linecap="round"/>
<path d="M150.112 31.1386C149.9 30.7832 147.915 29.3655 145.942 28.1791C144.641 27.3969 143.05 26.7143 142.086 26.2153C140.608 25.45 138.278 24.5771 136.732 23.8597C135.365 23.2255 131.374 21.8702 128.418 21.0393C126.574 20.5212 124.851 20.4312 123.775 20.822C122.8 21.1762 121.707 21.9987 120.066 23.5299C118.996 24.5278 118.495 25.9905 117.778 27.2443C117.508 27.7166 116.429 29.8345 114.86 33.3968C112.902 37.8442 113.351 39.3406 113.03 41.2315C112.668 43.361 112.281 44.9085 112.172 46.0895C112.075 47.1501 111.779 48.973 111.602 50.4774C111.333 52.7523 111.351 54.7508 111.173 56.5454C110.997 58.328 110.923 59.0466 110.887 59.3336C110.709 58.2693 110.779 57.0529 111.063 56.4137C111.276 55.9864 111.63 55.3504 112.208 54.481" stroke="black" stroke-width="2" stroke-linecap="round"/>
<path d="M145.187 28.1406C144.761 27.8558 143.482 26.8643 142.228 25.8588C141.183 25.0204 139.623 24.3587 138.304 23.682C137.522 23.2809 136.06 22.8618 132.794 21.9731C130.537 21.359 126.984 20.731 124.74 20.367C120.055 19.6071 117.711 20.928 116.142 21.5694C112.984 22.8597 112.567 24.2816 111.143 25.8845C109.46 27.7788 108.786 29.2028 107.822 30.704C106.407 32.9075 105.573 34.2011 104.432 35.8425C102.861 38.1022 102.717 39.2721 102.145 40.4489C101.319 42.1479 101.218 44.4031 100.503 46.8701C100.229 47.8186 100.215 48.6947 100.18 49.4432C100.154 49.9894 100.001 53.8728 99.9305 59.3347C99.9074 61.1231 99.7185 60.9098 99.6457 60.5886C99.6436 59.0531 99.999 57.9824 100.356 57.341C100.5 57.053 100.571 56.841 100.644 56.6225" stroke="black" stroke-width="2" stroke-linecap="round"/>
<path d="M116.705 24.0718C115.996 24.8513 114.709 26.4231 114.031 27.4222C112.973 28.9815 112.143 30.4149 110.714 32.7716C109.347 35.0259 108.002 36.985 107.284 38.166C106.752 39.042 105.509 42.4587 104.216 46.7952C103.564 48.9791 103.428 52.7507 103.25 54.5828C103.087 56.2583 102.999 57.7554 102.929 58.9707C102.858 59.2673 102.717 58.9139 102.679 58.6259C102.642 58.3379 102.712 58.1259 103.213 57.4791" stroke="black" stroke-width="2" stroke-linecap="round"/>
<path d="M111.565 21.2876C110.998 21.7823 109.715 23.2107 108.325 24.7054C106.569 26.5941 104.436 28.4188 102.55 29.9842C100.478 31.7032 98.7248 33.9824 97.2279 36.1549C95.1359 39.1911 94.9344 40.6981 94.1152 42.9435C93.5404 44.5193 92.6558 48.0991 92.2564 50.4077C91.9395 52.2393 91.9363 54.6907 91.8635 57.9672C91.8635 58.1985 92.1461 57.4832 92.6451 56.6994C92.8614 56.3396 93.0027 56.057 93.1484 55.7657" stroke="black" stroke-width="2" stroke-linecap="round"/>
<path d="M106.212 24.7142C105.573 24.6435 103.864 24.5 102.575 24.7484C101.08 25.0367 100.147 26.8514 98.153 29.6996C97.212 31.0439 96.6519 32.6977 96.1122 33.9547C95.5247 35.3233 95.0072 37.1991 94.6132 38.5932C94.2503 39.8771 93.7223 41.268 93.3283 43.0882C92.564 46.6188 91.6493 51.7613 91.4716 52.9777C91.2953 54.1838 91.221 56.252 91.327 58.2158C91.361 58.8449 91.645 58.6955 91.9309 58.552C92.2168 58.4085 92.5702 58.2672 92.8582 58.1237C93.1462 57.9802 93.3582 57.8389 93.7908 57.6932" stroke="black" stroke-width="2" stroke-linecap="round"/>
<path d="M151.397 27.0697C151.114 26.787 150.969 25.7227 151.039 24.2247C151.107 22.784 153.102 21.9344 154.356 21.1474C155.196 20.6201 156.104 20.1484 156.997 19.7897C158.497 19.1872 160.601 19.7158 161.459 20.037C162.442 20.4053 163.171 21.6388 164.171 22.7471C164.902 23.5568 165.882 24.5641 166.92 25.7452C167.648 26.5745 168.169 27.9905 168.563 29.4553C168.998 31.0719 169.313 32.205 169.777 33.2757C170.742 35.5045 169.887 39.2719 169.779 40.8759C169.693 42.1504 168.679 44.964 167.924 47.1237C167.745 47.6238 167.602 48.0542 167.459 48.4814C167.388 48.6967 167.317 48.9087 167.244 48.6988" stroke="black" stroke-width="2" stroke-linecap="round"/>
<path d="M149.684 23.8575C150.037 23.29 152.168 21.5833 153.713 20.6828C154.557 20.191 157.016 19.1548 158.923 18.6826C160.219 18.3619 161.244 18.3624 163.914 18.325C165.466 18.3032 166.739 18.6451 168.025 18.7533C169.03 18.8378 170.092 20.7052 170.705 22.1047C171.147 23.1155 171.951 24.2087 172.738 25.6724C173.419 26.9393 174.59 31.1086 174.989 33.7031C175.197 35.0576 175.309 36.2011 175.915 40.5794C176.197 42.6162 176.238 45.1826 175.883 47.3369C175.695 48.4762 175.596 49.4784 175.418 50.835C175.382 51.1937 175.382 51.5471 175.311 51.6231C175.241 51.6991 175.099 51.4871 174.954 51.0546" stroke="black" stroke-width="2" stroke-linecap="round"/>
<path d="M152.254 23.2151C152.892 22.9324 154.177 21.9345 155.07 21.3252C156.95 20.0421 160.738 18.8636 162.562 18.4695C164.468 18.0576 166.165 17.8614 167.81 17.6836C168.449 17.6145 168.955 17.5765 169.524 17.4695C171.402 17.1157 172.666 19.3561 174.66 21.458C175.76 22.6178 176.877 23.6391 178.801 26.5216C179.724 27.9053 179.665 29.1363 179.877 30.7671C180.331 34.2637 180.95 36.8457 181.02 37.7698C181.23 40.5097 181.592 43.7521 181.379 45.5895C181.209 47.0601 181.023 48.0522 180.914 50.1894C180.665 51.4807 180.521 52.4765 180.273 53.1597C180.166 53.1275 180.025 52.8449 179.879 52.5536" stroke="black" stroke-width="2" stroke-linecap="round"/>
<path d="M151.183 25.7848C151.609 25.5728 152.464 24.577 153.993 23.1871C156.239 21.1449 158.318 20.0755 158.888 19.7554C159.49 19.4169 161.304 18.5101 164.119 17.4404C166.243 16.6332 169.294 16.5763 172.505 16.6117C174.396 16.6325 176.367 17.8527 177.77 18.5733C179.368 19.3942 180.59 21.4247 182.228 23.9902C183.077 25.3189 183.447 26.2088 183.946 27.2078C184.764 28.8456 185.16 30.4875 185.624 31.6696C186.309 33.4164 186.518 35.6271 186.731 37.0223C186.997 38.7659 187.087 39.9144 187.195 42.0163C187.22 42.487 187.301 42.6983 187.338 44.8216C187.374 50.9731 187.162 54.8406 186.806 54.2356C186.661 53.9133 186.591 53.56 186.304 52.7676" stroke="black" stroke-width="2" stroke-linecap="round"/>
<path d="M155.68 23.6432C155.963 23.1464 157.526 22.1485 158.675 21.5392C159.084 21.3222 162.571 20.6516 168.557 19.6879C173.361 18.9144 176.02 19.5722 176.804 19.9641C177.995 20.5597 179.087 21.6388 180.09 22.6046C182.425 24.8521 185.871 28.7057 187.013 30.027C187.81 30.9481 188.085 32.5561 188.835 34.416C189.26 35.4717 190.364 37.8285 191.19 40.3715C192.704 45.029 192.797 46.977 193.155 48.4086C193.438 49.5363 193.512 50.836 193.62 51.9067C193.869 53.1209 194.154 54.4037 194.262 55.8674C194.298 56.1919 194.368 56.4039 194.655 56.8364" stroke="black" stroke-width="2" stroke-linecap="round"/>
<path d="M167.458 22.1445C167.814 22.3565 168.384 23.211 168.778 24.4595C168.975 25.0841 169.949 28.3249 171.162 33.0694C171.921 36.0364 171.956 37.0579 172.133 39.0838C172.17 42.7971 172.24 45.4847 172.347 46.866C172.384 48.0352 172.384 50.1553 172.384 51.6972" stroke="black" stroke-width="2" stroke-linecap="round"/>
<path d="M175.168 22.7869C175.168 23.637 175.309 25.3524 175.417 27.632C175.479 28.9331 175.737 30.205 175.846 31.8465C175.935 33.2119 176.166 35.0576 176.274 39.4734C176.322 41.4213 176.594 42.8398 176.702 46.9697C176.748 48.7034 177.022 49.9796 177.13 51.726C177.169 52.3432 177.309 52.8364 177.345 53.3707C177.38 53.6223 177.451 53.8343 177.487 53.0248C177.523 52.2153 177.523 50.3779 177.523 48.4848" stroke="black" stroke-width="2" stroke-linecap="round"/>
<path d="M180.521 24.2859C180.946 24.7099 181.447 25.635 182.158 28.0132C183.418 32.2287 183.734 35.3467 183.946 36.9068C184.72 42.6057 185.16 43.6964 185.268 45.3379C185.441 47.9669 185.306 52.1211 185.197 53.8675C185.162 54.2647 185.091 54.4767 185.02 54.4799C184.948 54.4831 184.877 54.2711 184.804 54.0527" stroke="black" stroke-width="2" stroke-linecap="round"/>
<path d="M182.021 28.5688C182.588 28.7809 183.729 29.7767 184.409 30.8838C184.95 31.7649 185.16 32.6356 185.833 34.2642C187.471 38.2235 188.372 41.2722 188.622 41.8772C189.148 43.1525 190.15 47.0243 190.8 49.9421C191.124 51.3998 191.3 52.3373 191.371 52.3759C191.302 51.6371 191.229 50.7012 191.194 50.0245C191.158 49.7011 191.088 49.4185 191.015 49.1272" stroke="black" stroke-width="2" stroke-linecap="round"/>
<path d="M183.305 22.7869C184.374 23.7827 185.228 24.9241 186.796 27.0592C188.022 28.7285 188.586 30.2072 189.013 31.0959C189.631 32.3854 191.077 35.3275 192.575 38.9305C194.138 42.6906 195.439 46.8359 195.938 48.4067C196.61 50.5221 196.938 51.8341 197.046 52.9424C197.196 54.4756 197.366 56.6182 197.617 57.9021C197.686 58.2559 197.653 58.6141 197.512 58.3015C197.371 57.9888 197.088 56.9994 196.872 56.3484C196.656 55.6974 196.514 55.4147 196.369 55.1235" stroke="black" stroke-width="2" stroke-linecap="round"/>
<path d="M186.732 28.5688C187.8 29.6353 188.655 30.9202 189.299 31.9556C189.991 33.0663 191.006 35.8328 191.869 37.9143C192.433 39.2752 193.152 40.981 193.832 42.9094C194.508 44.8268 195.225 46.052 197.111 50.9636C197.866 52.9311 198.009 53.9756 198.153 54.8354C198.084 54.9799 197.872 55.0506 197.586 54.981C197.3 54.9114 196.947 54.6994 196.583 54.481" stroke="black" stroke-width="2" stroke-linecap="round"/>
<path d="M143.688 21.716C144.609 21.2213 146.467 20.0756 147.36 19.5766C148.365 19.0151 150.099 18.3667 156.046 17.1867C159.439 16.5135 161.813 17.0754 162.882 17.2531C165.059 17.6153 168.581 18.7821 170.345 19.6077C171.756 20.2677 172.38 21.2834 173.948 22.8874C174.521 23.5662 174.881 24.0695 175.166 24.4967C175.309 24.7119 175.45 24.9239 175.382 25.3565" stroke="black" stroke-width="2" stroke-linecap="round"/>
<path d="M149.256 23.2153C149.253 22.9347 149.967 21.5063 150.963 20.5073C152.731 18.736 154.387 18.1528 157.38 16.6537C159.013 15.8363 160.316 15.6494 162.053 15.5423C163.434 15.4571 165.839 15.5059 168.208 15.6825C172.855 16.0292 176.44 16.93 178.473 17.536C180.032 18.0007 180.519 19.0736 180.876 19.3938C181.02 19.5726 181.091 19.7846 180.951 19.9291C180.811 20.0737 180.457 20.1444 180.093 20.2172" stroke="black" stroke-width="2" stroke-linecap="round"/>
<path d="M145.615 23.0011C145.686 22.4336 145.971 21.2922 147.072 19.2278C147.972 17.5416 149.887 16.0134 151.917 14.6942C154.758 12.8488 157.096 12.7241 160.506 12.4028C165.872 11.8974 169.596 12.3643 170.803 12.6127C174.144 13.2998 175.091 14.358 176.198 15.2874C176.59 15.6429 177.155 16.2083 177.588 16.6055C178.02 17.0028 178.303 17.2148 178.594 17.8615" stroke="black" stroke-width="2" stroke-linecap="round"/>
<path d="M146.043 20.6453C146.043 19.9364 146.185 18.508 147.287 17.1536C148.974 15.0787 151.526 14.088 153.532 13.1168C155.677 12.0786 160.576 11.227 163.774 10.9732C166.586 10.7501 170.444 11.0771 172.307 11.4711C173.452 11.9358 174.59 12.5033 175.628 13.0055C175.879 13.1479 176.161 13.3599 176.667 14.0066" stroke="black" stroke-width="2" stroke-linecap="round"/>
<path d="M141.76 20.6452C141.478 20.6452 141.049 20.5745 140.586 20.3614C140.191 20.1799 140.261 19.1526 140.297 18.0829C140.345 16.6244 142.253 15.0131 147.841 11.5567C149.497 10.5322 150.607 10.3681 152.028 9.83491C154.264 8.99581 156.528 8.51146 159.58 8.33265C161.78 8.20373 165.317 8.36584 167.985 8.50825C175.268 8.89693 177.735 10.0084 178.021 10.2215C178.095 10.3639 178.024 10.5759 177.776 10.7911C177.528 11.0063 177.104 11.2183 176.667 11.4368" stroke="black" stroke-width="2" stroke-linecap="round"/>
<path d="M137.049 21.0738C136.058 20.6497 134.267 19.5769 133.946 18.9023C133.009 16.9337 134.051 15.583 134.833 13.4083C135.446 11.7012 138.604 9.66386 143.199 7.73223C145.062 6.94934 148.125 6.66576 151.032 6.37452C153.939 6.08327 156.695 6.08327 158.645 6.18928C163.365 6.44589 166.439 7.93353 168.488 8.6156C168.812 8.72374 169.094 8.79441 169.346 8.86615C169.598 8.93789 169.81 9.00856 170.028 9.08137" stroke="black" stroke-width="2" stroke-linecap="round"/>
<path d="M137.906 21.0736C137.906 20.5061 138.047 19.3647 138.368 18.0809C138.867 16.0868 140.827 14.2251 143.105 11.8052C144.87 9.93109 147.883 8.65934 151.9 7.41298C157.273 5.74606 161.1 5.58415 162.062 5.47707C163.592 5.30662 165.304 6.22017 166.634 6.93757C167.676 7.49958 169.09 8.78568 169.778 10.0406C169.814 10.3618 169.814 10.7858 169.673 11.1103C169.531 11.4347 169.249 11.6467 168.957 11.8652" stroke="black" stroke-width="2" stroke-linecap="round"/>
<path d="M129.768 16.5765C129.556 16.5058 129.344 16.4352 129.305 16.1514C129.04 14.1977 131.404 12.8674 132.582 11.9766C133.688 11.1401 134.833 10.5118 136.075 9.6948C138.288 8.23876 140.61 7.22886 142.318 6.55215C144.253 5.78566 146.814 5.44285 150.122 5.12163C157.072 4.44668 158.67 5.58205 160.527 6.11635C162.202 6.59808 163.527 7.71927 164.279 8.68508C165.078 9.70986 165.103 10.7902 164.997 11.468C164.891 11.7217 164.679 11.7924 164.357 11.8995C164.036 12.0065 163.612 12.1479 162.961 12.5077" stroke="black" stroke-width="2" stroke-linecap="round"/>
<path d="M129.126 16.5764C129.625 15.223 130.051 14.2251 130.763 12.801C132.425 9.47582 135.177 8.16464 137.575 6.87225C139.263 5.96205 141.96 5.58628 146.646 5.08731C149.838 4.74749 154.725 4.72968 157.59 4.76288C161.171 4.80435 162.102 5.36785 162.53 5.72334C163.551 6.5733 163.886 7.79202 164.245 8.72036C164.317 9.00625 164.387 9.3596 164.389 9.64763C164.39 9.93566 164.319 10.1477 164.246 10.3661" stroke="black" stroke-width="2" stroke-linecap="round"/>
<path d="M135.764 21.0737C134.267 21.7868 132.989 22.4957 131.877 23.106C130.681 23.7627 130.059 25.9135 129.165 27.9522C128.787 28.8155 128.35 30.3935 127.883 32.5725C126.833 37.4761 126.556 40.8419 126.52 41.7681C126.425 44.2643 126.483 47.6925 126.626 49.2633C126.838 50.3994 127.055 51.4787 127.162 51.8385C127.198 51.7742 127.198 51.2089 127.198 50.6264" stroke="black" stroke-width="2" stroke-linecap="round"/>
<path d="M133.623 23.001C132.062 24.2773 129.914 26.4231 129.342 27.8493C129.08 28.5016 128.629 29.9137 128.2 32.6516C127.951 34.246 128.055 36.3082 128.337 38.8481C128.954 44.3867 129.909 47.6261 130.194 48.1946C131.074 49.9503 131.408 51.4786 131.694 52.3363C131.766 52.5515 131.837 52.7635 131.908 52.6961C131.98 52.6286 132.051 52.2753 132.124 51.9112" stroke="black" stroke-width="2" stroke-linecap="round"/>
<path d="M135.122 19.3604C132.134 22.4869 129.699 25.9219 129.305 26.8877C128.836 28.0377 128.77 29.631 128.909 35.6764C129.023 40.6181 130.124 43.8398 130.444 45.296C131.342 49.3802 131.764 50.8318 132.158 52.4765C132.453 53.7063 133.122 54.618 133.656 55.5838C133.805 55.8531 134.047 56.117 134.227 56.1566C134.548 55.9842 134.693 55.2005 134.729 54.2379C134.764 53.8406 134.835 53.6286 134.908 53.4102" stroke="black" stroke-width="2" stroke-linecap="round"/>
<path d="M127.626 21.502C126.072 22.9153 124.564 24.7742 123.317 26.9114C122.279 28.6895 121.776 31.4064 121.348 34.3306C121.107 35.9717 121.131 36.9165 121.024 38.4069C120.826 41.1626 120.917 43.4116 120.81 45.7159C120.582 50.6297 120.844 54.2626 120.951 55.0817C121.199 56.9718 121.63 59.2566 122.021 59.9772C122.273 58.6976 122.343 57.3399 122.45 56.5925C122.487 56.1985 122.487 55.7745 122.487 55.3376" stroke="black" stroke-width="2" stroke-linecap="round"/>
<path d="M125.699 23.2151C124.986 26.4959 124.701 28.2005 124.558 30.4148C124.507 31.2001 124.346 32.3293 124.273 34.8905C124.2 37.4518 124.2 41.4093 124.271 43.766C124.387 47.648 125.125 49.3285 125.519 51.2623C125.847 52.8704 126.269 53.6222 126.589 53.8021C126.768 53.77 126.98 53.4873 127.301 52.7057C127.622 51.924 128.046 50.652 128.697 49.1272" stroke="black" stroke-width="2" stroke-linecap="round"/>
<path d="M124.843 21.7161C124.56 21.8574 123.001 23.5556 120.082 27.5377C118.429 29.7932 117.022 32.9332 116.115 34.7813C114.943 37.1695 114.495 38.3427 113.713 40.5066C113.144 42.0817 112.508 44.72 112.037 46.9504C111.567 49.1808 111.355 50.9475 111.246 53.589C110.994 59.6891 111.278 62.9784 111.634 62.3381C112.563 60.7663 113.062 59.7662 113.772 58.5252C114.27 57.5669 115.047 55.9415 116.062 54.0527" stroke="black" stroke-width="2" stroke-linecap="round"/>
<path d="M122.059 24.7141C120.787 27.1169 119.495 29.8387 118.461 32.37C117.194 35.4706 116.564 38.4111 115.567 42.117C115.205 43.4603 114.428 46.885 113.18 51.7698C112.427 54.7142 112.422 57.3206 112.422 59.3935C112.422 59.3464 112.493 58.4812 112.635 57.8056C112.707 57.4126 112.777 56.918 112.85 56.1941" stroke="black" stroke-width="2" stroke-linecap="round"/>
<path d="M120.56 25.1426C120.489 25.3546 120.418 25.5666 119.958 28.6439C119.497 31.7213 118.649 37.6575 118.212 41.0336C117.538 46.2474 117.561 49.1102 117.739 51.014C117.916 52.9087 118.559 55.8988 118.987 56.6954C119.2 56.417 119.553 55.569 119.876 54.5668C120.2 53.5645 120.482 52.4338 120.774 51.2689" stroke="black" stroke-width="2" stroke-linecap="round"/>
<path d="M119.489 24.9282C119.206 25.3522 117.506 27.4787 114.655 31.2885C112.03 34.7971 111.068 37.6273 110.499 38.9454C110.005 40.0875 108.719 43.8119 107.292 48.9847C106.631 51.3804 106.64 52.4764 106.604 53.6511C106.567 54.9003 106.426 57.389 106.426 59.961C106.638 58.9866 107.209 56.9115 107.459 56.1994C107.567 55.8407 107.638 55.4874 107.925 54.695" stroke="black" stroke-width="2" stroke-linecap="round"/>
<path d="M114.349 23.8574C114.208 23.8574 113.287 25.3415 111.79 28.1201C110.563 30.398 109.927 32.1322 108.508 35.3209C107.357 37.9078 105.676 42.6084 104.695 45.2938C103.516 48.5241 103.357 49.6925 103.179 50.7964C102.582 54.5031 102.856 59.19 103.069 59.6172C103.184 59.8482 103.423 60.0445 103.638 59.977C105.13 59.5096 104.995 56.7722 105.46 55.3439C105.638 54.8449 105.92 54.1382 106.207 53.2441C106.494 52.35 106.777 51.29 107.068 50.1978" stroke="black" stroke-width="2" stroke-linecap="round"/>
<path d="M106.426 27.0698C104.306 30.462 102.789 32.8454 102.041 34.0918C101.376 35.1997 100.65 37.2634 99.4037 40.3236C98.7412 41.9501 98.228 43.8078 97.6894 46.1324C97.1508 48.457 96.6561 51.2131 96.4013 53.3749C96.1465 55.5368 96.1465 57.0208 96.1818 57.644C96.2171 58.2672 96.2878 57.9845 96.3949 57.6975C97.0009 56.554 97.6434 55.556 98.2826 54.3836C98.7098 53.6351 99.3459 52.5751 100.001 51.4829" stroke="black" stroke-width="2" stroke-linecap="round"/>
<path d="M100.644 26.6416C100.22 27.0656 98.1638 29.2628 95.2031 32.6142C93.5147 34.5256 92.9385 36.6231 92.19 39.3268C91.3062 42.5194 91.4352 44.84 91.3998 45.6945C91.2558 49.1782 91.2917 53.8365 91.4694 54.2637C91.5618 54.4857 91.7178 54.6909 91.8967 54.7295C92.2875 54.6267 93.3539 53.0677 94.7802 50.5728C95.3584 49.4914 95.6411 48.7847 95.9323 48.0566" stroke="black" stroke-width="2" stroke-linecap="round"/>
<path d="M100.215 26.2134C100.074 26.2134 98.3051 28.5455 95.6293 32.2909C93.82 34.8236 93.3668 36.6982 92.3314 39.8354C91.9441 41.0091 91.084 44.3155 90.2274 49.5182C89.8499 51.811 89.9361 53.4489 90.1128 54.2156C90.2895 54.9823 90.6428 54.8409 90.9662 54.6268C92.1462 53.4854 93.2854 52.3439 94.3541 51.4895C94.8573 51.059 95.2813 50.635 95.7182 50.1982" stroke="black" stroke-width="2" stroke-linecap="round"/>
<path d="M114.992 18.9321C113.638 19.0028 111.792 19.429 110.462 19.7523C109.169 20.0668 107.574 20.217 106.465 20.4301C104.773 20.7556 102.293 22.3542 100.935 23.2472C99.1567 24.4168 97.3714 25.2795 96.0083 26.1736C94.5061 27.7101 93.9364 28.5646 93.4 29.4223C93.2919 29.6375 93.2212 29.8495 93.1484 30.2821" stroke="black" stroke-width="2" stroke-linecap="round"/>
<path d="M141.214 89.0479C141.153 89.0479 141.031 89.0175 140.847 88.9409C140.474 88.7857 140.415 88.312 140.308 87.8513C140.118 87.0406 140.2 86.4694 140.383 86.006C140.553 85.577 141.028 85.3296 141.397 85.1599C141.779 84.9845 142.134 84.8371 143.04 84.821C143.538 84.8121 143.887 85.1433 144.241 85.2968C144.617 85.4598 144.656 86.0028 144.734 86.4487C144.802 86.8424 144.903 88.0538 144.704 88.8316C144.609 89.2056 143.983 89.1088 143.507 89.2167C143.015 89.3281 142.598 89.2019 142.414 89.1102C141.986 88.8965 141.83 88.4042 141.752 87.6521C141.725 87.3873 141.675 87.1435 141.721 86.8673C141.801 86.383 142.411 86.3126 142.78 86.1895C142.964 86.1282 143.15 86.1273 143.334 86.219C143.743 86.4233 143.765 86.925 143.873 87.3095C143.902 87.4145 143.888 87.5392 143.858 87.6475C143.828 87.7559 143.767 87.8472 143.659 87.8942C143.418 88 143.152 87.8804 142.968 87.7577C142.623 87.5279 142.476 87.1131 142.214 86.7286C141.914 86.2871 141.799 85.9142 141.584 85.5449C141.361 85.1612 141.123 84.9293 141.045 84.8675C141.059 84.8666 141.181 84.9275 141.335 84.9893C141.489 85.0511 141.671 85.1119 141.86 85.1746" stroke="black" stroke-width="2" stroke-linecap="round"/>
<path d="M178.287 86.4657C178.256 86.4657 178.226 86.4657 178.165 86.4353C178.103 86.4049 178.012 86.344 177.965 86.1453C177.842 85.6241 177.948 85.1756 178.01 84.9916C178.132 84.6258 178.562 84.4074 178.931 84.1612C179.315 83.9052 179.668 83.6383 180.038 83.4386C180.428 83.2276 180.959 83.2694 181.435 83.1615C181.926 83.0501 182.343 83.1154 182.512 83.1149C182.905 83.1138 182.774 83.8817 182.775 84.7869C182.776 85.3119 182.315 85.6339 181.977 85.8963C181.665 86.1382 181.24 86.1577 180.87 86.2656C180.513 86.37 180.072 86.3735 179.671 86.4348C179.58 86.4489 179.487 86.4049 179.44 86.1457C179.307 85.4102 179.454 84.8067 179.577 84.6227C179.807 84.2779 180.343 84.2524 180.775 84.1911C180.867 84.1781 180.959 84.2211 181.022 84.2824C181.286 84.5432 181.36 84.9884 181.499 85.3729C181.577 85.5893 181.575 85.8193 181.683 85.912C181.729 85.9133 181.76 85.822 181.791 85.7294C181.822 85.6367 181.852 85.5454 181.883 85.4513" stroke="black" stroke-width="2" stroke-linecap="round"/>
<path d="M147.927 45.1948C147.927 46.2015 148.027 48.2377 148.104 48.8476C148.37 50.9524 148.432 54.3326 148.837 54.3577C149.042 54.3828 149.243 54.4331 149.899 54.459C150.555 54.4849 151.661 54.4849 152.648 54.3326" stroke="black" stroke-width="2" stroke-linecap="round"/>
<path d="M149.297 49.4592C149.348 49.4592 149.398 49.4592 149.876 49.4592C150.354 49.4592 151.259 49.4592 152.496 49.3069" stroke="black" stroke-width="2" stroke-linecap="round"/>
<path d="M153.562 44.5857C153.562 44.6862 153.562 45.4919 153.587 46.7095C153.714 49.5399 153.764 53.8742 153.84 54.2283C153.866 54.4316 153.866 54.6829 153.866 54.6372" stroke="black" stroke-width="2" stroke-linecap="round"/>
<path d="M154.628 49.3068C154.628 49.2566 154.628 49.2063 155.13 49.1804C155.633 49.1545 156.638 49.1545 157.674 49.1545" stroke="black" stroke-width="2" stroke-linecap="round"/>
<path d="M158.283 44.8901C158.333 45.1932 158.536 45.8009 158.613 46.5623C158.696 47.3905 158.892 48.0853 159.044 48.7204C159.232 49.5114 159.449 50.3179 159.653 51.1312C159.878 52.03 159.906 52.9588 159.983 53.8466C160.008 54.0766 160.059 54.2776 160.085 54.7581C160.11 55.2386 160.11 55.9925 160.11 56.7692" stroke="black" stroke-width="2" stroke-linecap="round"/>
<path d="M154.171 56.7693C154.171 56.8698 154.171 58.2283 154.196 60.3086C154.271 61.2833 154.323 61.792 154.323 62.1735C154.323 62.2534 154.323 62.1027 154.323 61.9473" stroke="black" stroke-width="2" stroke-linecap="round"/>
<path d="M154.628 57.0738C155.132 57.0738 156.349 56.9733 157.618 56.6687C158.564 56.4416 159.596 56.4646 160.687 56.54C161.081 56.5672 161.125 56.7661 161.176 56.9192C161.484 57.8431 161.429 59.2029 161.23 60.4959C161.007 61.9398 159.2 61.134 158.337 61.2109C157.675 61.3883 157.218 61.5406 156.764 61.6168C156.46 61.6427 156.008 61.6427 155.542 61.6427" stroke="black" stroke-width="2" stroke-linecap="round"/>
<path d="M94.4594 60.6309C94.4594 61.2154 94.3864 62.4696 94.3306 62.9679C94.2502 63.6865 94.1654 64.4962 94.1096 64.9387C94.0549 65.1592 94.0174 65.3813 93.9991 65.6017C93.9809 65.7128 93.9444 65.8222 93.9069 66.0454" stroke="black" stroke-width="2" stroke-linecap="round"/>
<path d="M97.1113 60.2993C97.1113 61.801 97.0384 63.9414 96.9826 64.6066C96.8903 65.3426 96.8539 66.0442 96.7986 66.447C96.7798 66.7404 96.7798 67.2144 96.7798 67.7029" stroke="black" stroke-width="2" stroke-linecap="round"/>
<path d="M99.8738 60.0781C99.9103 60.5522 99.9468 61.0262 99.9656 62.3461C99.9843 65.8175 99.9843 67.8883 100.021 67.5032C100.057 67.264 100.13 66.9358 100.205 66.5977" stroke="black" stroke-width="2" stroke-linecap="round"/>
<path d="M103.299 59.8572C103.446 61.034 103.52 62.4981 103.612 63.7755C103.631 64.1247 103.631 64.6352 103.667 64.8435C103.704 65.0518 103.777 64.9424 103.852 64.8297" stroke="black" stroke-width="2" stroke-linecap="round"/>
<path d="M106.835 59.0837C106.946 60.8131 107.019 61.475 107.038 64.248C107.042 64.8289 106.983 64.9381 106.91 65.0309C106.727 65.1966 106.432 65.3082 106.083 65.3635C105.916 65.3823 105.77 65.3823 105.62 65.3823" stroke="black" stroke-width="2" stroke-linecap="round"/>
<path d="M96.6694 65.8242C96.6694 66.0065 96.6694 66.1889 96.6694 67.6685C96.6694 69.1481 96.6694 71.9194 96.6876 73.4018C96.7058 74.8842 96.7423 74.9936 96.7611 75.1411C96.7799 75.2886 96.7799 75.4709 96.7799 75.6588" stroke="black" stroke-width="2" stroke-linecap="round"/>
<path d="M94.9013 69.5813C94.6085 70.9681 94.2383 73.924 94.1466 74.6428C94.018 75.6511 94.0173 76.0986 93.9256 76.5412C93.9068 76.6522 93.9068 76.7616 93.8886 76.7086C93.8704 76.6555 93.8339 76.4368 93.7963 75.9903" stroke="black" stroke-width="2" stroke-linecap="round"/>
<path d="M93.5753 71.7913C93.6847 72.7758 93.7941 73.7604 93.9781 75.0516C94.3862 77.9154 94.6803 79.6722 94.6986 79.9661C94.7171 80.2645 94.7908 80.5926 94.8091 80.9236C94.8273 81.0722 94.8638 81.1816 94.9372 80.9827C95.0107 80.7838 95.1201 80.2733 95.3433 79.7473" stroke="black" stroke-width="2" stroke-linecap="round"/>
<path d="M97.7744 76.1008C97.8108 76.3207 97.8849 76.8346 98.0865 77.7915C98.165 78.1637 98.2893 78.4567 98.418 78.6048C98.4738 78.607 98.5103 78.4611 98.5291 78.3131C98.5479 78.165 98.5479 78.0191 98.5479 77.8688" stroke="black" stroke-width="2" stroke-linecap="round"/>
<path d="M100.537 71.0176C100.905 72.895 101.125 73.9193 101.402 74.7906C101.603 75.4263 101.642 75.9503 101.734 76.5216C101.789 77.4255 101.863 78.2311 101.955 78.9896C101.973 79.1559 101.973 79.3383 101.973 79.5261" stroke="black" stroke-width="2" stroke-linecap="round"/>
<path d="M98.3268 82.1783C98.3268 83.4602 98.3998 85.2326 98.4556 85.8044C98.5103 86.0437 98.5478 86.2658 98.5843 86.6503C98.6208 86.9254 98.6937 87.363 98.7688 88.0349" stroke="black" stroke-width="2" stroke-linecap="round"/>
<path d="M99.5424 81.4048C99.7987 82.0976 100.095 83.796 100.462 86.1104C100.591 86.9261 100.647 87.4425 100.757 87.9227C100.794 88.0337 100.831 88.1431 100.85 87.9442C100.868 87.7453 100.868 87.2348 100.868 86.7088" stroke="black" stroke-width="2" stroke-linecap="round"/>
<path d="M101.973 80.5208C102.341 82.4711 102.415 83.133 102.507 84.1617C102.546 84.6013 102.526 85.259 102.489 85.3966C102.453 85.5342 102.38 85.133 102.288 84.7623C102.195 84.3916 102.086 84.0634 101.973 83.7253" stroke="black" stroke-width="2" stroke-linecap="round"/>
<path d="M100.095 73.2278C100.095 74.2201 100.241 75.8312 100.334 78.0091C100.361 78.6397 100.426 79.4103 100.426 80.1114C100.426 80.2656 100.426 80.0103 100.408 79.8059C100.39 79.6015 100.353 79.4556 100.316 79.3053" stroke="black" stroke-width="2" stroke-linecap="round"/>
<path d="M99.9844 69.3604C100.095 70.6466 100.168 71.8223 100.169 75.1318C100.132 75.6611 100.06 75.4423 99.9855 75.129C99.9114 74.8158 99.8385 74.4146 99.7634 73.7804" stroke="black" stroke-width="2" stroke-linecap="round"/>
<path d="M100.316 65.1611C100.352 66.9258 100.426 69.1966 100.335 70.7563C100.293 71.4595 100.205 71.7901 100.132 71.974C100.059 72.0486 99.9136 72.0851 99.7656 72.0309C99.6175 71.9768 99.4716 71.8309 99.3214 71.5702" stroke="black" stroke-width="2" stroke-linecap="round"/>
<path d="M97.5533 66.8188C97.5533 67.5482 97.5533 68.2775 97.5533 69.6924C97.5533 73.1859 97.5533 75.1086 97.5351 74.6677C97.4804 74.2268 97.4428 73.7826 97.4246 73.3417C97.4064 73.1196 97.3699 72.9008 97.3323 72.5649" stroke="black" stroke-width="2" stroke-linecap="round"/>
<path d="M97.8849 65.2717C98.2893 68.1392 98.5833 69.8332 98.6766 70.4636C98.7099 70.6883 98.8054 70.9061 98.8606 70.9807C98.8429 70.3934 98.7689 69.8409 98.7507 69.51C98.7324 69.3614 98.696 69.252 98.6584 69.1392" stroke="black" stroke-width="2" stroke-linecap="round"/>
<path d="M99.1004 65.2717C99.1004 66.074 99.1004 67.4353 99.0821 68.7989C99.0639 69.2144 99.0274 69.0685 99.0087 68.9022C98.9899 68.7359 98.9899 68.5536 98.9899 68.3657" stroke="black" stroke-width="2" stroke-linecap="round"/>
<path d="M97.9953 59.1943C97.8848 60.4441 97.8119 61.3999 97.7561 62.7801C97.7089 63.9463 97.518 65.336 97.3881 66.0448C97.3334 66.0465 97.224 65.9371 97.1677 65.826C97.1113 65.715 97.1113 65.6056 97.1113 65.4929" stroke="black" stroke-width="2" stroke-linecap="round"/>
<path d="M97.4428 58.4207C97.5533 60.6616 97.4804 62.2108 97.4064 62.7285C97.3715 62.9721 97.1124 63.1346 96.892 63.2086C96.7809 63.2097 96.6715 63.1368 96.5605 63.0263C96.4494 62.9158 96.34 62.77 96.1168 62.5092" stroke="black" stroke-width="2" stroke-linecap="round"/>
<path d="M94.0173 60.1887C94.0173 60.3346 93.908 62.4153 93.724 65.5635C93.6494 66.706 93.6129 66.9248 93.5941 67.6939C93.5753 68.463 93.5753 69.7757 93.4648 71.1283" stroke="black" stroke-width="2" stroke-linecap="round"/>
<path d="M92.6914 70.9072C92.6914 71.4188 92.6184 72.525 92.6538 73.3355C92.661 73.5019 92.8726 73.5217 93.13 73.4675C93.3875 73.4134 93.7522 73.2675 94.0129 73.1194C94.2737 72.9714 94.4196 72.8255 94.5699 72.6752" stroke="black" stroke-width="2" stroke-linecap="round"/>
<path d="M101.642 62.7302C101.752 63.2429 101.971 64.7833 102.102 65.7115C102.12 65.8596 102.157 66.0055 102.194 66.1353C102.231 66.2651 102.267 66.3745 102.415 66.3767" stroke="black" stroke-width="2" stroke-linecap="round"/>
<path d="M104.183 61.9565C104.588 63.8306 104.845 64.9014 105.066 65.1594C105.153 65.2616 105.286 65.1986 105.397 65.0704C105.803 64.2428 106.024 63.6152 106.135 63.3947C106.172 63.2837 106.172 63.1743 106.172 63.0615" stroke="black" stroke-width="2" stroke-linecap="round"/>
<path d="M108.603 58.7522C108.823 60.1102 109.118 61.3644 109.119 61.8269C109.083 61.8473 109.01 61.7379 108.972 61.6269C108.935 61.5158 108.935 61.4064 108.935 61.2937" stroke="black" stroke-width="2" stroke-linecap="round"/>
<path d="M110.15 57.7578C110.15 57.9401 110.15 58.1225 110.15 58.5263C110.15 58.9302 110.15 59.5501 110.04 60.1888" stroke="black" stroke-width="2" stroke-linecap="round"/>
<path d="M89.3823 152.031C89.6034 151.808 90.8266 151.475 92.0038 151.222C92.7203 151.068 93.6216 150.805 94.4619 150.636C95.4336 150.44 96.4131 150.245 97.3942 150.161C98.3221 150.08 100.096 149.91 101.526 149.825C101.953 149.8 104.439 149.685 108.041 149.713C109.829 149.727 110.492 149.964 111.302 150.187C112.01 150.383 112.67 150.634 113.341 150.885C114.082 151.163 114.681 151.86 115.296 152.42C115.912 152.979 116.021 154.203 116.386 155.073C116.731 155.892 116.973 156.552 117.058 157.223C117.294 159.101 116.976 162.249 116.668 162.92C116.349 163.614 115.971 164.371 115.635 165.071C115.313 165.742 114.242 166.046 113.486 166.468C112.514 167.012 111.336 167.112 110.248 167.39C109.392 167.609 108.377 167.893 107.51 168.116C106.799 168.3 106.142 168.452 105.084 168.591C102.365 168.949 101.229 168.898 99.999 168.983C99.0837 169.046 98.4339 169.401 96.5112 169.485C95.5643 169.527 94.9151 169.903 94.2164 170.155C93.2948 170.463 92.4017 170.684 91.7306 170.965C91.5622 171.021 91.3964 171.076 91.5606 171.133" stroke="black" stroke-width="2" stroke-linecap="round"/>
<path d="M115.019 166.609C115.13 166.943 115.575 167.611 115.995 168.282C116.387 168.908 116.748 169.622 117.168 170.293C117.56 170.919 117.811 171.633 118.062 172.304C118.321 172.995 118.481 173.643 118.677 174.757C119.182 177.623 118.427 178.335 118.009 178.979C117.578 179.643 116.866 180.068 116.195 180.627C115.636 181.092 114.855 181.241 114.156 181.688C113.398 182.174 112.677 182.303 112.006 182.527C111.334 182.75 110.666 182.973 109.995 183.197C108.978 183.536 107.372 183.587 106.505 183.867C105.614 184.155 104.466 184.146 103.517 184.231C102.766 184.298 102.12 184.649 101.422 185.012C100.621 185.427 99.2215 185.376 98.1265 185.682C97.3905 185.887 96.7583 186.214 96.0872 186.492C95.7529 186.549 95.4161 186.66 95.0819 186.91C94.9135 187.05 94.7476 187.216 94.5767 187.052" stroke="black" stroke-width="2" stroke-linecap="round"/>
<path d="M114.343 181.042C114.398 181.933 114.51 182.714 114.649 183.385C114.798 184.101 114.956 185.003 115.041 186.148C115.162 187.791 115.07 190.254 114.874 190.953C114.654 191.738 114.457 192.433 114.148 193.104C113.83 193.797 113.341 194.333 112.642 194.78C111.862 195.28 111.162 195.673 110.491 195.954C109.839 196.227 109.152 196.4 108.453 196.624C107.586 196.902 106.806 197.238 105.69 197.74C104.817 198.133 104.014 198.411 103.286 198.635C102.61 198.843 101.946 199.081 101.136 199.305C99.9708 199.627 98.2601 199.584 97.5613 199.669C96.6797 199.776 95.8036 199.976 94.8812 200.115C93.8547 200.27 91.7386 200.311 89.9415 200.45C86.9842 200.679 85.6427 200.144 84.6867 199.977C84.0051 199.858 83.3471 199.698 82.676 199.586C81.9362 199.462 81.3363 199.028 80.6652 198.804C79.9942 198.58 79.215 198.468 78.4869 198.301C77.7974 198.144 77.1473 197.634 76.4201 196.796C75.8587 196.149 76.028 195.288 75.9987 192.392C75.9855 191.091 76.2492 190.093 76.3338 189.422C76.4468 188.526 76.3631 187.412 76.1118 186.741C75.8343 186.001 75.2471 185.402 74.0767 184.174C73.3371 183.399 72.7337 182.888 72.2587 182.217C71.7639 181.518 71.3932 180.878 71.2516 180.206C71.0877 179.429 71.0011 178.532 70.9718 177.026C70.9402 175.404 70.78 173.17 70.2479 172.499C69.7159 171.828 69.2719 171.159 68.7952 170.488C68.3677 169.886 68.042 169.148 67.6223 168.477C67.2308 167.851 66.8691 167.138 66.7275 166.327C66.6024 165.612 66.42 163.964 66.5591 162.448C66.7738 160.108 66.3094 159.43 65.919 158.759C65.5134 158.061 64.9153 157.53 64.4109 156.915C63.8296 156.208 63.2933 155.408 63.0973 154.737C62.9076 154.088 62.9012 152.402 63.2347 151.218C63.4454 150.47 63.739 149.879 63.9057 149.208C64.0763 148.521 64.3523 147.868 64.576 147.197C64.8058 146.507 65.1901 145.857 65.5529 145.186C65.8938 144.555 66.0279 143.846 66.3907 143.175C66.7316 142.545 66.9763 141.836 67.396 141.137C67.8334 140.409 67.9817 139.657 68.2623 138.986C68.5353 138.334 68.8195 137.647 69.1001 136.976C69.3671 136.337 69.3791 135.636 69.5752 134.384C70.1423 130.764 69.3255 129.939 69.1018 129.268C68.872 128.578 68.3771 127.818 67.7907 127.229C67.2265 126.662 66.8691 125.917 66.4217 125.246C65.9136 124.484 65.1935 123.628 64.4679 122.761C63.9145 122.1 63.5178 121.393 63.0704 120.722C62.6231 120.051 62.1773 119.382 61.869 118.711C61.5504 118.018 61.3932 117.372 61.2264 116.701C61.0466 115.977 60.9474 115.193 61.0287 112.52C61.0746 111.009 62.5627 110.947 63.2338 110.667C63.8721 110.4 64.5735 110.388 65.2999 110.192C66.2215 109.943 68.0252 109.996 69.2937 110.162C70.1278 110.272 70.7733 110.609 71.4443 110.972C72.1154 111.334 72.784 111.782 73.4551 112.145C74.1044 112.496 74.7947 112.787 75.4658 113.205C76.1927 113.658 76.8055 113.96 77.3375 114.49C77.9042 115.054 78.6486 115.411 79.3197 116.025C79.9916 116.64 80.5488 117.197 81.6916 118.425C82.3607 119.143 82.7271 119.878 83.0354 120.55C83.3657 121.268 83.9 121.889 84.2083 122.56C84.527 123.254 84.9054 123.9 85.3251 124.571C85.7053 125.179 85.8002 125.911 86.1629 126.582C86.5039 127.212 86.638 127.921 86.8617 128.592C87.0854 129.264 87.3082 129.932 87.5319 130.603C87.7556 131.274 87.8679 132.164 88.007 133.06C88.1962 134.279 88.203 135.512 88.2859 136.852C88.3146 137.315 88.5348 137.308 88.7032 137.281C89.41 137.164 90.0428 136.695 90.7139 136.332C91.3633 135.981 92.0536 135.69 93.1419 135.605C93.5685 135.572 93.9537 135.465 94.3718 135.437C94.7431 135.413 97.6149 135.297 101.803 135.325C103.794 135.338 104.895 135.633 105.794 135.772C106.463 135.875 107.134 136.078 107.805 136.163C108.499 136.25 109.145 136.581 109.816 136.832C110.557 137.11 111.156 137.586 111.827 138.116C112.465 138.62 112.888 139.316 113.308 139.987C113.688 140.594 113.783 141.326 113.868 142.136C114.027 143.664 113.897 146.018 113.506 146.689C113.107 147.376 112.446 147.861 111.832 148.087C111.161 148.423 110.658 148.645 110.324 148.841C110.155 148.925 109.989 148.981 109.651 149.038" stroke="black" stroke-width="2" stroke-linecap="round"/>
<path d="M1.38422 72.2566C2.00107 71.8961 3.34822 71.3771 4.02334 71.1697C4.65037 70.9771 5.36816 70.6531 6.27402 70.0067C7.94552 68.814 8.68552 68.9423 8.94422 68.9672C9.10038 69.2484 9.10193 69.7161 9.02424 72.053C8.99783 74.1336 8.99783 78.0305 8.99783 82.0455" stroke="black" stroke-width="2" stroke-linecap="round"/>
<path d="M13.3484 64.6428C13.451 65.6233 13.6592 66.7622 14.0974 68.7783C14.2597 69.5252 14.5899 70.5395 14.8743 71.8074C15.0365 72.5309 15.8796 75.2351 16.9152 79.1701C17.2842 80.5926 17.3355 80.8489 17.3875 81.0579C17.4396 81.2669 17.4909 81.4207 17.5437 81.5792" stroke="black" stroke-width="2" stroke-linecap="round"/>
<path d="M17.0776 73.4995C17.1289 73.4995 17.1801 73.4995 17.3091 73.4482C17.4381 73.3969 17.6432 73.2944 18.6461 73.0108C19.6491 72.7272 21.4438 72.2657 23.6035 71.7903" stroke="black" stroke-width="2" stroke-linecap="round"/>
<path d="M25.9343 60.4475C26.1409 61.4808 26.245 62.4115 26.8634 66.8507C27.2799 69.8404 28.0568 70.802 28.3667 71.5036C28.9455 72.8133 31.7299 70.4447 32.7671 70.1083C33.8043 69.8231 34.5812 69.5636 35.1234 69.4347C35.4093 69.357 35.717 69.2544 36.3447 69.1488" stroke="black" stroke-width="2" stroke-linecap="round"/>
<path d="M29.0419 66.5074C29.1444 66.4049 29.4024 66.352 30.2771 66.1469C30.9468 65.9418 32.0749 65.5316 32.7586 65.3203C33.4422 65.109 33.6473 65.109 34.1694 64.9536" stroke="black" stroke-width="2" stroke-linecap="round"/>
<path d="M34.1694 58.2722C34.2206 59.3055 34.3248 60.2362 34.4537 61.2206C34.6027 62.3578 34.7909 63.4992 35.0488 64.5869C35.2556 65.4588 35.515 66.296 35.7224 67.3581C35.7744 67.5935 35.8257 67.7473 35.8778 67.9034C35.9298 68.0596 35.9811 68.2134 36.0339 68.838" stroke="black" stroke-width="2" stroke-linecap="round"/>
<path d="M33.0817 71.1689C33.2884 72.8237 33.3925 74.0621 33.5471 75.2049C33.7545 76.1395 33.9099 76.6057 33.9876 76.9413C34.014 77.1231 34.014 77.3282 34.014 77.5395" stroke="black" stroke-width="2" stroke-linecap="round"/>
<path d="M27.6434 79.7147C28.8305 79.6122 30.2787 79.3014 34.3092 78.1656C35.8515 77.731 36.8575 77.3343 39.262 76.8161C40.3302 76.6071 41.0045 76.5559 41.3145 76.4525C41.4707 76.4005 41.6245 76.3492 41.783 76.2964" stroke="black" stroke-width="2" stroke-linecap="round"/>
<path d="M43.8029 58.7383C44.1121 58.6358 44.8346 58.325 46.7474 57.4471C48.2283 56.7674 49.3935 56.3051 50.1447 55.8397C50.3237 55.7288 50.4811 55.6836 50.4835 55.9648C50.4987 57.7986 49.35 59.8105 48.8287 61.7869C48.1536 64.2264 47.8459 65.6683 46.888 68.3369C46.7039 68.8365 46.6526 68.9903 46.4444 69.4595" stroke="black" stroke-width="2" stroke-linecap="round"/>
<path d="M48.7751 64.0212C49.1868 64.1238 50.2201 64.4346 51.4119 64.7709C52.5026 65.0048 53.1226 65.2115 53.7449 65.5478C53.9011 65.6263 54.0549 65.6776 54.2134 65.8858" stroke="black" stroke-width="2" stroke-linecap="round"/>
<path d="M54.8349 60.7585C54.8349 60.6559 55.2451 60.6031 55.9435 60.5774C56.3856 60.5005 56.8517 60.3964 57.4204 60.2675C57.6815 60.1898 57.8866 60.0872 58.4086 59.8262" stroke="black" stroke-width="2" stroke-linecap="round"/>
<path d="M56.6995 52.3679C56.7507 52.6771 56.9574 53.2971 57.1905 54.0476C57.6912 55.6598 58.1476 57.1288 58.8717 59.0928C59.5553 60.9469 60.1675 62.2563 60.4278 62.9314C60.5311 63.2414 60.6352 63.5537 60.7386 63.8637C60.7906 64.0199 60.8419 64.1737 60.8947 64.6429" stroke="black" stroke-width="2" stroke-linecap="round"/>
<path d="M60.5839 74.5871C59.661 74.4317 57.6333 74.2779 57.3489 73.9679C56.7925 73.3614 56.8548 72.3124 56.7259 71.3296C56.5654 70.1068 56.802 69.1504 57.0343 68.8917C57.4835 68.3914 58.3527 68.2694 60.1885 68.2678C60.7574 68.2673 61.0485 68.5786 61.3072 68.7332C61.8644 69.0662 61.9295 69.9226 62.137 70.5706C62.2591 70.9519 62.2931 71.8866 62.2162 72.9999C61.9855 73.4466 61.6732 73.602 61.3632 73.783C61.207 73.8615 61.0532 73.9128 60.5839 73.9656" stroke="black" stroke-width="2" stroke-linecap="round"/>
<path d="M8.53168 96.8066C10.0808 95.8758 11.3254 95.3584 13.4176 94.6856C14.8024 94.2403 15.8314 93.8046 16.3512 93.6469C18.4036 93.0241 14.2838 99.65 13.7905 100.816C13.1104 102.424 12.2111 104.262 11.8218 105.425C11.7434 105.713 11.6921 105.918 11.7426 105.972C11.7931 106.027 11.9469 105.924 12.1054 105.819" stroke="black" stroke-width="2" stroke-linecap="round"/>
<path d="M14.7469 99.448C15.4663 99.5505 17.1242 99.8613 18.5226 100.327C19.5976 100.684 20.7508 100.846 21.4259 101.13C21.582 101.208 21.7359 101.26 21.892 101.312C22.0482 101.364 22.202 101.415 22.6713 101.468" stroke="black" stroke-width="2" stroke-linecap="round"/>
<path d="M17.5437 105.042C17.8016 105.868 18.1124 106.592 18.7067 107.859C18.8893 108.301 19.0447 108.614 19.2257 108.924C19.3042 109.08 19.3554 109.234 19.4083 109.392" stroke="black" stroke-width="2" stroke-linecap="round"/>
<path d="M11.3286 113.743C11.7931 113.33 14.4641 111.891 17.097 110.793C18.1922 110.336 18.7837 109.964 19.5606 109.575C20.3018 109.204 21.1641 108.979 22.0723 108.643C23.209 108.222 24.4799 107.994 26.1347 107.53C26.8603 107.22 27.3311 106.959 27.6411 106.752C27.7973 106.648 27.9511 106.546 28.1096 106.44" stroke="black" stroke-width="2" stroke-linecap="round"/>
<path d="M33.2371 93.3881C32.9279 93.4394 32.3079 93.6461 30.3183 93.622C29.8155 93.6159 29.7162 93.0789 29.5352 92.7433C28.6869 91.1706 29.5577 88.2637 30.2561 87.5381C30.7907 86.9827 31.6273 86.915 33.5921 86.9135C34.6169 86.9126 35.1514 87.9467 35.5406 88.569C35.9187 89.1735 35.8785 90.8896 35.5437 91.9617C34.9991 92.4543 34.4832 92.8692 33.8609 93.2056C33.7048 93.284 33.5509 93.3353 33.3925 93.3881" stroke="black" stroke-width="2" stroke-linecap="round"/>
<path d="M31.5279 98.8264C31.6817 98.5685 34.5578 97.3348 36.3936 96.4973C37.3047 96.0816 38.3584 95.6194 39.3699 95.1253C41.2363 94.2136 42.2957 93.8574 43.6164 93.364C43.9552 93.2343 44.2628 93.0805 44.4982 92.9756C44.7336 92.8707 44.8875 92.8194 45.2013 92.6112" stroke="black" stroke-width="2" stroke-linecap="round"/>
<path d="M38.2092 95.4081C38.5184 95.5619 39.0358 96.1819 39.4507 96.8042C39.8656 97.4265 40.1763 98.0464 40.5384 98.6687C40.9008 99.2917 41.2112 99.911 41.6004 100.533C41.7301 100.843 41.8855 101.156 42.0665 101.466C42.145 101.622 42.1963 101.776 42.2491 101.934" stroke="black" stroke-width="2" stroke-linecap="round"/>
<path d="M52.6596 90.1252C51.9402 90.0226 50.4874 89.6093 49.8651 89.2978C49.141 88.9353 48.8279 88.2637 48.6205 87.6414C48.3542 86.8426 48.3618 85.7776 48.3346 85.0264C48.3097 84.3378 48.9802 83.7577 49.9366 82.7742C50.5249 82.169 52.181 82.2008 53.2788 82.51C53.9508 82.6993 54.1077 83.5961 54.368 84.2184C54.628 84.8402 54.8349 86.6913 54.5513 87.9475C54.405 88.596 54.1621 89.036 54.0075 89.2947C53.7504 89.4508 53.438 89.5549 53.1281 89.6583C52.9719 89.7103 52.8181 89.7616 52.5042 89.9698" stroke="black" stroke-width="2" stroke-linecap="round"/>
<path d="M56.6995 78.9377C56.802 79.247 57.1128 79.9695 57.9907 81.8053C58.4133 82.6891 58.6666 83.2853 58.874 83.9332C59.1119 84.6762 59.2881 85.3052 59.4955 86.0821C59.7071 86.8747 60.065 87.4805 60.2724 88.1028C60.4799 88.7251 60.7891 89.3451 61.0493 89.9674C61.3024 90.5725 61.4634 91.2096 61.6708 91.8319C61.7742 92.1419 61.8783 92.4542 61.9816 92.7642C62.0337 92.9204 62.0849 93.0742 62.2931 93.3881" stroke="black" stroke-width="2" stroke-linecap="round"/>
<path d="M60.1178 84.2207C61.2552 83.4966 62.0818 83.1859 63.1943 82.9015C64.8289 82.3049 65.3992 82.0982 65.7091 81.9172C65.8653 81.8387 66.0191 81.7874 66.1776 81.7346" stroke="black" stroke-width="2" stroke-linecap="round"/>
<path d="M71.9267 83.5992C71.7729 83.3412 71.358 82.8254 71.1762 82.0236C70.8373 80.5291 70.9944 79.1553 71.1746 78.1632C71.3035 77.4541 72.2343 77.1789 72.8566 76.9186C73.1581 76.7925 73.5302 76.7625 73.9179 76.8137C74.6544 76.9111 75.1866 77.5891 75.8088 77.9783C76.3707 78.3297 76.8957 78.8321 77.518 79.247C77.828 79.4536 78.1403 79.6106 78.5785 79.6883C79.8923 79.9212 80.6248 78.8881 81.3505 78.1896C81.7669 77.5409 81.9735 76.9209 81.9495 74.1319C81.8725 73.5523 81.7187 73.4498 81.2495 73.1887" stroke="black" stroke-width="2" stroke-linecap="round"/>
</svg>
